<?xml version="1.0" standalone="no"?>
<!DOCTYPE svg PUBLIC "-//W3C//DTD SVG 1.1//EN" "http://www.w3.org/Graphics/SVG/1.1/DTD/svg11.dtd" >
<svg>
<metadata>
Created by FontForge 20090914 at Thu Sep 17 13:55:08 2015
 By www-data
Copyright (c) 2005 Parachute&#194;&#168;, www.parachute.gr.  All rights reserved.
</metadata>
<defs>
<font id="PFSquareSansPro-Italic" horiz-adv-x="1818" >
  <font-face 
    font-family="PF Square Sans Pro"
    font-weight="400"
    font-style="italic"
    font-stretch="normal"
    units-per-em="1000"
    panose-1="2 0 5 6 6 0 0 9 0 4"
    ascent="750"
    descent="-250"
    x-height="487"
    cap-height="662.999"
    bbox="-159.601 -265.804 1760 913.002"
    underline-thickness="20"
    underline-position="-113"
    slope="-12"
    unicode-range="U+0020-U+FB05"
  />
<missing-glyph horiz-adv-x="444" 
d="M0 700h444v-700h-444v700zM352 59l-130 237l-130 -237h260zM352 641h-260l130 -237zM59 117l128 233l-128 233v-466zM385 117v466l-129 -233z" />
    <glyph glyph-name="fj" unicode="fj" horiz-adv-x="519" 
d="M411 424l-195.006 -0.000976562l-80 -407c-2 -11.333 -8.33301 -17 -19 -17h-41c-12 0 -17 5.66699 -15 17l80 407h-49c-11.333 0 -15.666 5.66699 -12.999 17l5 28c2 12 9 18 21 18h49l11 61c10.667 52.667 32.667 92.834 66 120.501s81.333 41.5 144 41.5
c10 0 20.833 -0.333008 32.5 -1s23.834 -1.83398 36.501 -3.50098s24.834 -4 36.501 -7s22.5 -6.83301 32.5 -11.5c5.33301 -2 8.16602 -4.66699 8.49902 -8s-0.5 -7.66602 -2.5 -12.999l-8 -23c-3.33301 -9.33301 -12.666 -13 -27.999 -11
c-21.333 2.66699 -43.166 5 -65.499 7s-41.166 3 -56.499 3c-38 0 -66.167 -8.66699 -84.5 -26s-31.166 -43.333 -38.499 -78l-10 -51h254c12 0 16.667 -5.66699 14 -17l-106 -546c-3.33301 -14.667 -8.16602 -28.667 -14.499 -42s-14.833 -25 -25.5 -35
s-23.834 -17.833 -39.501 -23.5s-34.167 -8.5 -55.5 -8.5c-16 0 -32.833 1.5 -50.5 4.5s-33.167 7.5 -46.5 13.5c-6 4 -7.33301 10.333 -4 19l8 22c2.66699 6 6 9.66699 10 11s8.66699 1.66602 14 0.999023c3.33301 -0.666992 8.33301 -1.16699 15 -1.5l20.5 -1
c7 -0.333008 13.5 -0.666016 19.5 -0.999023s10.333 -0.5 13 -0.5c20.667 0 35.167 3.83301 43.5 11.5s14.5 22.167 18.5 43.5z" />
    <glyph glyph-name="ffj" unicode="ffj" horiz-adv-x="752" 
d="M484 -118c20.667 0 35.3301 3.83301 43.9971 11.5s15 22.167 19 43.5l94 487h-195l-81 -408c-2 -11.333 -8.33301 -17 -19 -17h-41c-12 0 -17 5.66699 -15 17l81 408h-195l-80 -407c-2 -11.333 -8.33301 -17 -19 -17h-41c-12 0 -17 5.66699 -15 17l80 407h-49
c-11.333 0 -16 5.66699 -14 17l5 28c2.66699 12 9.66699 18 21 18h49l12 61c10 52.667 31.667 92.834 65 120.501s81.333 41.5 144 41.5c8 0 17.5 -0.333008 28.5 -1s22.667 -1.66699 35 -3s24.666 -3.33301 36.999 -6s23.5 -6 33.5 -10c34.667 25.333 81.334 38 140.001 38
c10 0 20.833 -0.333008 32.5 -1s23.834 -1.83398 36.501 -3.50098s24.834 -4 36.501 -7s22.5 -6.83301 32.5 -11.5c8 -3.33301 10 -10.333 6 -21l-8 -23c-3.33301 -9.33301 -12.666 -13 -27.999 -11c-21.333 2.66699 -43.333 5 -66 7s-41.667 3 -57 3
c-34 0 -60.833 -7.33301 -80.5 -22s-32.834 -39.334 -39.501 -74.001l-15 -77h253c12 0 17 -5.66699 15 -17l-106 -546c-3.33301 -16 -7.66602 -30.833 -12.999 -44.5s-13 -25.167 -23 -34.5s-22.667 -16.666 -38 -21.999s-34.333 -8 -57 -8c-16 0 -33.5 1.5 -52.5 4.5
s-34.833 7.5 -47.5 13.5c-7.33301 3.33301 -9 9.66602 -5 18.999l9 22c2.66699 6 5.83398 9.66699 9.50098 11s8.5 1.66602 14.5 0.999023c3.33301 -0.666992 8.16602 -1.16699 14.499 -1.5s13 -0.666016 20 -0.999023s13.5 -0.666016 19.5 -0.999023s10.333 -0.5 13 -0.5z
M319.996 642c-34 0 -61.002 -7.33203 -81.002 -21.999s-33.667 -39.334 -41 -74.001l-12 -59h197l15 79c2.66699 13.333 5.83398 25.5 9.50098 36.5s7.83398 21.5 12.501 31.5c-21.333 3.33301 -39.833 5.5 -55.5 6.5s-30.5 1.5 -44.5 1.5z" />
    <glyph glyph-name="ff" unicode="ff" horiz-adv-x="605" 
d="M633 730c4.66699 0 11.3291 -0.331055 19.9961 -0.998047s18 -1.83398 28 -3.50098s20.5 -3.83398 31.5 -6.50098s21.167 -6 30.5 -10c5.33301 -2 8 -5 8 -9s-0.666992 -8 -2 -12l-8 -23c-2.66699 -5.33301 -6.66699 -8.83301 -12 -10.5
s-10.666 -1.83398 -15.999 -0.500977c-20 3.33301 -37.167 5.5 -51.5 6.5s-25.166 1.5 -32.499 1.5c-34 0 -60 -7.33301 -78 -22s-30.333 -39.334 -37 -74.001l-16 -79h125c11.333 0 16 -5.66699 14 -17l-6 -29c-2 -11.333 -8.66699 -17 -20 -17h-125l-118 -599
c-2.66699 -11.333 -9 -17 -19 -17h-41c-12.667 0 -17.667 5.66699 -15 17l118 599h-195l-105 -533c-2.66699 -11.333 -9 -17 -19 -17h-41c-12.667 0 -17.667 5.66699 -15 17l105 533h-49c-11.333 0 -16 5.66699 -14 17l6 28c2 12 8.66699 18 20 18h49l12 61
c10 52.667 31.833 92.834 65.5 120.501s81.834 41.5 144.501 41.5c16.667 0 37.334 -1.33301 62.001 -4s47 -7.66699 67 -15c15.333 12.667 33.5 22.334 54.5 29.001s45.833 10 74.5 10zM359.995 642.002c-34 0 -60.832 -7.33203 -80.499 -21.999
s-32.834 -39.334 -39.501 -74.001l-12 -59h196l16 81c2.66699 12 5.5 23.5 8.5 34.5s7.16699 21.5 12.5 31.5c-22.667 3.33301 -41.5 5.5 -56.5 6.5s-29.833 1.5 -44.5 1.5z" />
    <glyph glyph-name="fi" unicode="fi" horiz-adv-x="519" 
d="M413 424h-197.005l-117 -599c-2 -11.333 -8.33301 -17 -19 -17h-41c-12 0 -17 5.66699 -15 17l117 599h-49c-11.333 0 -15.666 5.66699 -12.999 17l5 28c2 12 9 18 21 18h49l11 61c10.667 52.667 32.667 92.834 66 120.501s81.333 41.5 144 41.5
c10 0 20.833 -0.333008 32.5 -1s23.834 -1.83398 36.501 -3.50098s24.834 -4 36.501 -7s22.5 -6.83301 32.5 -11.5c5.33301 -2 8.16602 -4.66699 8.49902 -8s-0.5 -7.66602 -2.5 -12.999l-8 -23c-3.33301 -9.33301 -12.666 -13 -27.999 -11
c-21.333 2.66699 -43.166 5 -65.499 7s-41.166 3 -56.499 3c-34 0 -61 -7.33301 -81 -22s-33.333 -39.334 -40 -74.001l-11 -59h253c12 0 16.667 -5.66699 14 -17l-88 -453c-2 -11.333 -8.33301 -17 -19 -17h-41c-12 0 -16.667 5.66699 -14 17z" />
    <glyph glyph-name="fl" unicode="fl" horiz-adv-x="534" 
d="M374 710c15.333 0 32.833 -0.833008 52.5 -2.5s38.5 -5.16699 56.5 -10.5l38 7c12.667 2 17.667 -3.66699 15 -17l-130 -670c-2.66699 -11.333 -9.33398 -17 -20.001 -17h-41c-12 0 -16.667 5.66699 -14 17l120 618c-17.333 2 -34.166 3.66699 -50.499 5
s-30.166 2 -41.499 2c-34 0 -60.833 -7.33301 -80.5 -22s-32.834 -39.334 -39.501 -74.001l-12 -59h120c11.333 0 16 -6 14 -18l-6 -28c-2 -11.333 -8.66699 -17 -20 -17h-120l-116 -599c-2.66699 -11.333 -9.33398 -17 -20.001 -17h-41c-12 0 -16.667 5.66699 -14 17
l116 599h-49c-11.333 0 -16 5.66699 -14 17l6 28c2 12 8.66699 18 20 18h49l12 61c10 52.667 31.833 92.834 65.5 120.501s81.834 41.5 144.501 41.5z" />
    <glyph glyph-name="ffi" unicode="ffi" horiz-adv-x="752" 
d="M712 487c12 0 16.665 -5.66602 13.998 -16.999l-88 -453c-2 -11.333 -8.33301 -17 -19 -17h-41c-12 0 -16.667 5.66699 -14 17l79 407h-197l-118 -599c-2 -11.333 -8.33301 -17 -19 -17h-41c-12 0 -17 5.66699 -15 17l118 599h-195l-105 -533
c-2 -11.333 -8.33301 -17 -19 -17h-41c-12 0 -17 5.66699 -15 17l105 533h-49c-11.333 0 -16 5.66699 -14 17l5 28c2.66699 12 9.66699 18 21 18h49l12 61c10 52.667 31.667 92.834 65 120.501s81.333 41.5 144 41.5c8 0 17.5 -0.333008 28.5 -1s22.667 -1.66699 35 -3
s24.666 -3.33301 36.999 -6s23.5 -6 33.5 -10c34.667 25.333 81.334 38 140.001 38c10 0 20.833 -0.333008 32.5 -1s23.834 -1.83398 36.501 -3.50098s24.834 -4 36.501 -7s22.5 -6.83301 32.5 -11.5c8 -3.33301 10 -10.333 6 -21l-8 -23
c-3.33301 -9.33301 -12.666 -13 -27.999 -11c-21.333 2.66699 -43.333 5 -66 7s-41.667 3 -57 3c-34 0 -60.833 -7.33301 -80.5 -22s-32.834 -39.334 -39.501 -74.001l-15 -77h254zM319.998 642.001c-34 0 -60.835 -7.33203 -80.502 -21.999s-33.167 -39.334 -40.5 -74.001
l-11 -59h195l15 79c2.66699 13.333 5.83398 25.5 9.50098 36.5s7.83398 21.5 12.501 31.5c-21.333 3.33301 -39.833 5.5 -55.5 6.5s-30.5 1.5 -44.5 1.5z" />
    <glyph glyph-name="ffl" unicode="ffl" horiz-adv-x="804" 
d="M647 728c15.333 0 32.999 -0.833008 52.999 -2.5s39 -5.16699 57 -10.5l38 7c12.667 2 17.667 -3.66699 15 -17l-134 -688c-2 -11.333 -8.33301 -17 -19 -17h-41c-12 0 -17 5.66699 -15 17l124 636c-17.333 2 -34.166 3.66699 -50.499 5s-30.166 2 -41.499 2
c-34 0 -60.833 -7.33301 -80.5 -22s-33.167 -39.334 -40.5 -74.001l-15 -77h120c11.333 0 16 -6 14 -18l-6 -28c-2 -11.333 -8.66699 -17 -20 -17h-120l-117 -599c-2 -11.333 -8.33301 -17 -19 -17h-41c-12 0 -17 5.66699 -15 17l117 599h-195l-104 -533
c-2 -11.333 -8.33301 -17 -19 -17h-41c-12 0 -17 5.66699 -15 17l104 533h-49c-11.333 0 -16 5.66699 -14 17l6 28c2 12 8.66699 18 20 18h49l12 61c10.667 52.667 32.667 92.834 66 120.501s81.333 41.5 144 41.5c8 0 17.5 -0.333008 28.5 -1s22.667 -1.66699 35 -3
s24.666 -3.33301 36.999 -6s23.5 -6 33.5 -10c17.333 12.667 37.333 22.167 60 28.5s49 9.5 79 9.5zM226.999 487h195.001l16 79c5.33301 26.667 12.666 49.334 21.999 68.001c-21.333 3.33301 -39.833 5.5 -55.5 6.5s-30.5 1.5 -44.5 1.5c-34 0 -61 -7.33301 -81 -22
s-33.333 -39.334 -40 -74.001z" />
    <glyph glyph-name="ft" unicode="ft" horiz-adv-x="590" 
d="M372 716c4.66699 0 11.3311 -0.331055 19.998 -0.998047s18 -1.83398 28 -3.50098s20.5 -3.83398 31.5 -6.50098s21.167 -6 30.5 -10c4.66699 -2 7.16699 -5 7.5 -9s-0.166992 -8 -1.5 -12l-9 -23c-2.66699 -5.33301 -6.5 -8.83301 -11.5 -10.5
s-10.5 -1.83398 -16.5 -0.500977c-20 3.33301 -37 5.5 -51 6.5s-24.667 1.5 -32 1.5c-34 0 -60.167 -7.33301 -78.5 -22s-30.833 -39.334 -37.5 -74.001l-13 -65h187l17 88c1.33301 6 3.83301 10.333 7.5 13s8.16699 4.66699 13.5 6l42 11
c12.667 3.33301 17.334 -1.66699 14.001 -15l-20 -103h111c7.33301 0 11.833 -1.5 13.5 -4.5s1.83398 -7.16699 0.500977 -12.5l-6 -29c-1.33301 -6 -3.16602 -10.333 -5.49902 -13s-7.16602 -4 -14.499 -4h-111l-59 -303c-2.66699 -13.333 -3.66699 -24.166 -3 -32.499
s3.5 -14.5 8.5 -18.5s12.167 -6.5 21.5 -7.5s21.666 -1.16699 36.999 -0.5l55 4c8 0.666992 13.167 0.166992 15.5 -1.5s3.5 -5.16699 3.5 -10.5v-23c-0.666992 -8.66699 -5 -15 -13 -19c-6.66699 -3.33301 -15.167 -6.16602 -25.5 -8.49902s-21 -4.33301 -32 -6
s-21.833 -3 -32.5 -4s-19.667 -1.5 -27 -1.5c-21.333 0 -38.5 2.5 -51.5 7.5s-22.667 12.167 -29 21.5s-9.83301 20.5 -10.5 33.5s0.666016 27.5 3.99902 43.5l63 326h-186l-117 -599c-2.66699 -11.333 -9 -17 -19 -17h-41c-12.667 0 -17.667 5.66699 -15 17l117 599h-49
c-11.333 0 -16 5.66699 -14 17l6 28c2 12 8.66699 18 20 18h50l13 67c4.66699 24.667 11.834 47 21.501 67s22.167 37 37.5 51s34.166 24.833 56.499 32.5s48.5 11.5 78.5 11.5z" />
    <glyph glyph-name=".notdef" horiz-adv-x="444" 
d="M0 700h444v-700h-444v700zM352 59l-130 237l-130 -237h260zM352 641h-260l130 -237zM59 117l128 233l-128 233v-466zM385 117v466l-129 -233z" />
    <glyph glyph-name="space" unicode=" " horiz-adv-x="270" 
 />
    <glyph glyph-name="exclam" unicode="!" horiz-adv-x="224" 
d="M135 188c-2 -10.667 -6.99902 -16 -14.999 -16h-26c-8.66699 0 -12 5.33301 -10 16l78 458c2 11.333 8.33301 17 19 17h44c9.33301 0 12.666 -5.66699 9.99902 -17zM125.001 53c0 -18.667 -4.50098 -34 -13.501 -46s-23.5 -18 -43.5 -18
c-10.667 0 -19.667 1.83301 -27 5.5s-11 11.5 -11 23.5c0 19.333 4.33301 34.833 13 46.5s23 17.5 43 17.5c10.667 0 19.834 -1.83301 27.501 -5.5s11.5 -11.5 11.5 -23.5z" />
    <glyph glyph-name="quotedbl" unicode="&#x22;" horiz-adv-x="283" 
d="M268 483c-1.33301 -6 -5.33496 -9 -12.002 -9h-26c-5.33301 0 -7.66602 3 -6.99902 9l23 169c1.33301 7.33301 6 11 14 11h43c4.66699 0 7.33398 -1.33301 8.00098 -4s0.666992 -5 0 -7zM167.998 483c-1.33301 -6 -5.66797 -9 -13.001 -9h-25c-5.33301 0 -8 3 -8 9
l24 169c1.33301 7.33301 6 11 14 11h42c5.33301 0 8.33301 -1.33301 9 -4s0.333984 -5 -0.999023 -7z" />
    <glyph glyph-name="numbersign" unicode="#" horiz-adv-x="556" 
d="M559 416c-3.33301 -7.33301 -8.66895 -11 -16.002 -11h-130l-51 -117h127c10.667 0 14 -4.33301 10 -13l-12 -27c-2.66699 -6.66699 -8 -10 -16 -10l-131 -1l-99 -225c-3.33301 -8 -7.66602 -12 -12.999 -12h-35c-10 0 -12.667 5 -8 15l97 222h-109l-98 -225
c-3.33301 -8 -8 -12 -14 -12h-35c-10 0 -12.667 5 -8 15l97 222h-120c-10 0 -13.333 3.33301 -10 10l13 29c3.33301 8 9.33301 12 18 12h121l51 117h-121c-9.33301 0 -12.666 3.33301 -9.99902 10l13 28c3.33301 8 9.33301 12 18 12h122l85 194c2 4.66699 4 8 6 10
s5.66699 3 11 3l34 -1c8 0 10 -4.66699 6 -14l-84 -192h109l85 194c2 4.66699 4 8 6 10s5.66699 3 11 3l34 -1c8 0 10 -4.66699 6 -14l-84 -192h126c10.667 0 14 -4.33301 10 -13zM245.997 405l-51 -117h109l51 117h-109z" />
    <glyph glyph-name="dollar" unicode="$" horiz-adv-x="556" 
d="M524 587c-3.33301 -8 -10.332 -11.6699 -20.999 -11.0029c-21.333 3.33301 -46.666 6.33301 -75.999 9s-58.666 4 -87.999 4c-48 0 -86.333 -10.5 -115 -31.5s-43 -54.167 -43 -99.5c0 -14.667 2.33301 -26.5 7 -35.5s12 -16.333 22 -22s22.667 -10.167 38 -13.5
s33.666 -7 54.999 -11c22.667 -4 44.834 -8.83301 66.501 -14.5s40.834 -14 57.501 -25s30.167 -25.333 40.5 -43s15.5 -40.834 15.5 -69.501c0 -36.667 -5.83301 -68.5 -17.5 -95.5s-28 -49.667 -49 -68s-45.833 -32.333 -74.5 -42s-59.667 -15.5 -93 -17.5l-17 -88
c0 -4.66699 -3.33301 -7 -10 -7h-34c-6 0 -8.33301 2 -7 6l16 89c-14.667 0.666992 -30 1.66699 -46 3s-31.833 3 -47.5 5s-30.167 4.5 -43.5 7.5s-24.333 6.5 -33 10.5c-6 2.66699 -9.16699 5.83398 -9.5 9.50098s0.166992 7.83398 1.5 12.501l11 26
c2.66699 8.66699 9.33398 12.334 20.001 11.001l44 -5.5c13.333 -1.66699 26.666 -3.16699 39.999 -4.5s27.166 -2.33301 41.499 -3s30.5 -1 48.5 -1c24.667 0 47.667 2.66699 69 8s40 13.666 56 24.999s28.5 25.833 37.5 43.5s13.5 39.167 13.5 64.5
c0 14.667 -2.16699 27 -6.5 37s-11.333 18.5 -21 25.5s-21.834 12.833 -36.501 17.5s-32.334 8.66699 -53.001 12c-24 4 -47 8.83301 -69 14.5s-41.167 13.667 -57.5 24s-29.5 24 -39.5 41s-15 38.5 -15 64.5c0 34 5.66699 63.833 17 89.5s27 47.334 47 65.001
s43.5 31.334 70.5 41.001s56.5 15.167 88.5 16.5l17 80c1.33301 4 4.66602 6 9.99902 6h34c6 0 8.33301 -2.66699 7 -8l-16 -79c11.333 0 23.833 -0.5 37.5 -1.5s27.334 -2.66699 41.001 -5s26.667 -5 39 -8s23.166 -6.5 32.499 -10.5c6 -2.66699 9.33301 -5.66699 10 -9
s0 -7.33301 -2 -12z" />
    <glyph glyph-name="percent" unicode="%" horiz-adv-x="820" 
d="M259 -11c-5.33301 -8 -11.001 -12 -17.001 -12h-32c-10 0 -12.333 5 -7 15l411 695c4.66699 8.66699 10.667 13 18 13l32 -1c8.66699 0 10.334 -4.66699 5.00098 -14zM256.999 667c26.667 0 48.667 -3.50098 66 -10.501s31.166 -16.333 41.499 -28
s17.5 -25.334 21.5 -41.001s6 -32.167 6 -49.5c0 -13.333 -0.833008 -26.5 -2.5 -39.5s-3.83398 -26.167 -6.50098 -39.5c-4 -20.667 -9.16699 -43.834 -15.5 -69.501s-16.333 -49.667 -30 -72s-32.167 -41.166 -55.5 -56.499s-54.333 -23 -93 -23
c-26 0 -47.667 3.16699 -65 9.5s-31.166 15.333 -41.499 27s-17.5 25.167 -21.5 40.5s-6 32 -6 50c0 14.667 1 29.834 3 45.501s4.66699 31.834 8 48.501c2.66699 16 7.33398 35.833 14.001 59.5s16.834 46.5 30.501 68.5s32.167 40.833 55.5 56.5s53.666 23.5 90.999 23.5z
M249.999 610.999c-20 0 -36.833 -4.33496 -50.5 -13.002s-25 -20.167 -34 -34.5s-16.333 -31.166 -22 -50.499s-10.5 -39.666 -14.5 -60.999c-3.33301 -15.333 -5.83301 -30 -7.5 -44s-2.5 -26.667 -2.5 -38c0 -23.333 4.83301 -41.5 14.5 -54.5s28.167 -19.5 55.5 -19.5
c20.667 0 38.167 4 52.5 12s26.333 19 36 33s17.5 30.5 23.5 49.5s11 39.5 15 61.5c3.33301 16.667 6 32 8 46s3 27 3 39c0 23.333 -5.5 41.5 -16.5 54.5s-31.167 19.5 -60.5 19.5zM679.999 423.997c26.667 0 48.667 -3.50098 66 -10.501s31.166 -16.333 41.499 -28
s17.5 -25.334 21.5 -41.001s6 -32.167 6 -49.5c0 -13.333 -0.833008 -26.5 -2.5 -39.5s-3.83398 -26.167 -6.50098 -39.5c-4 -20.667 -9.16699 -43.834 -15.5 -69.501s-16.333 -49.667 -30 -72s-32.167 -41.166 -55.5 -56.499s-54.333 -23 -93 -23
c-26 0 -47.667 3.16699 -65 9.5s-31.166 15.333 -41.499 27s-17.5 25.167 -21.5 40.5s-6 32 -6 50c0 14.667 1 29.834 3 45.501s4.66699 31.834 8 48.501c2.66699 16 7.33398 35.833 14.001 59.5s16.834 46.5 30.501 68.5s32.167 40.833 55.5 56.5s53.666 23.5 90.999 23.5z
M672.999 367.996c-20 0 -36.833 -4.33496 -50.5 -13.002s-25 -20.167 -34 -34.5s-16.333 -31.166 -22 -50.499s-10.5 -39.666 -14.5 -60.999c-3.33301 -15.333 -5.83301 -30 -7.5 -44s-2.5 -26.667 -2.5 -38c0 -23.333 4.83301 -41.5 14.5 -54.5s28.167 -19.5 55.5 -19.5
c20.667 0 38.167 4 52.5 12s26.333 19 36 33s17.5 30.5 23.5 49.5s11 39.5 15 61.5c3.33301 16.667 6 32 8 46s3 27 3 39c0 23.333 -5.5 41.5 -16.5 54.5s-31.167 19.5 -60.5 19.5z" />
    <glyph glyph-name="ampersand" unicode="&#x26;" horiz-adv-x="691" 
d="M214 -11c-24 0 -46.999 2.83789 -68.999 8.50488s-41.333 14.667 -58 27s-30 28 -40 47s-15 41.833 -15 68.5c0 32 6 61 18 87s27.667 49.333 47 70s41.333 39.167 66 55.5s50 31.166 76 44.499c-8 16.667 -14.5 34.334 -19.5 53.001s-7.5 37 -7.5 55
c0 23.333 4.33301 45.166 13 65.499s20.5 38.166 35.5 53.499s32.667 27.333 53 36s41.833 13 64.5 13c16 0 31.667 -2.33301 47 -7s28.666 -11.5 39.999 -20.5s20.5 -20 27.5 -33s10.5 -28.167 10.5 -45.5c0 -24.667 -5.5 -47 -16.5 -67s-25 -37.833 -42 -53.5
s-35.333 -29.5 -55 -41.5s-37.834 -22.333 -54.501 -31c18 -40 38.333 -78.5 61 -115.5s47.667 -72.5 75 -106.5c36 30 68.667 65.167 98 105.5s52.333 85.5 69 135.5c2 5.33301 4.16699 8.83301 6.5 10.5s6.5 2.5 12.5 2.5l27 -1
c6.66699 -0.666992 10.5 -2.83398 11.5 -6.50098s0.833008 -8.16699 -0.5 -13.5c-7.33301 -28 -18.166 -55.833 -32.499 -83.5s-30 -53.834 -47 -78.501s-34.833 -47.167 -53.5 -67.5s-36 -37.166 -52 -50.499c16.667 -18.667 35.167 -36.834 55.5 -54.501
s40.5 -32.834 60.5 -45.501c4 -2.66699 6.16699 -5 6.5 -7s-1.5 -5.66699 -5.5 -11l-21 -29c-3.33301 -3.33301 -6.83301 -5.83301 -10.5 -7.5s-8.16699 -1.16699 -13.5 1.5c-9.33301 4.66699 -19.833 11 -31.5 19s-23.5 17 -35.5 27l-36 31.5
c-12 11 -22.667 21.833 -32 32.5c-34 -21.333 -71.167 -38.833 -111.5 -52.5s-80.833 -20.5 -121.5 -20.5zM433.001 554.005c0 17.333 -6.33301 30.999 -19 40.999s-27.334 15 -44.001 15c-12 0 -23.167 -2.83301 -33.5 -8.5s-19.166 -13 -26.499 -22s-13 -19.167 -17 -30.5
s-6 -22.666 -6 -33.999c0 -15.333 2.5 -30 7.5 -44s10.5 -27.667 16.5 -41l39.5 20.5c14.333 7.66699 27.5 16.667 39.5 27s22.167 21.833 30.5 34.5s12.5 26.667 12.5 42zM408.001 109.004c-28.667 34.667 -55.165 72 -79.498 112s-45.833 80.667 -64.5 122
c-19.333 -10 -38.833 -20.833 -58.5 -32.5s-37.334 -25.167 -53.001 -40.5s-28.334 -32.5 -38.001 -51.5s-14.5 -40.833 -14.5 -65.5c0 -18 3.33301 -33.333 10 -46s15.5 -23.167 26.5 -31.5s23.833 -14.5 38.5 -18.5s30 -6 46 -6c33.333 0 65.833 5.5 97.5 16.5
s61.5 24.833 89.5 41.5z" />
    <glyph glyph-name="quotesingle" unicode="'" horiz-adv-x="205" 
d="M176 483c-1.33301 -6 -5.66797 -9 -13.001 -9h-25c-5.33301 0 -8 3 -8 9l24 169c1.33301 7.33301 6 11 14 11h42c5.33301 0 8.33301 -1.33301 9 -4s0.333984 -5 -0.999023 -7z" />
    <glyph glyph-name="parenleft" unicode="(" horiz-adv-x="289" 
d="M328 676c-63.333 -72.667 -110.334 -151.166 -141.001 -235.499s-46 -172.5 -46 -264.5c0 -28 1 -54.833 3 -80.5s4.83301 -49.834 8.5 -72.501s8 -42.834 13 -60.501s10.5 -32.5 16.5 -44.5c2.66699 -5.33301 -0.666016 -10.666 -9.99902 -15.999l-20 -10
c-9.33301 -6 -15.666 -5.33301 -18.999 2c-14 26.667 -28 63.334 -42 110.001s-21 105 -21 175c0 105.333 19.167 202.166 57.5 290.499s92.5 164.833 162.5 229.5c7.33301 6 13.666 7.33301 18.999 4l16 -11c7.33301 -4.66699 8.33301 -10 3 -16z" />
    <glyph glyph-name="parenright" unicode=")" horiz-adv-x="291" 
d="M272 437c0 -101.333 -19.0039 -198.666 -57.0039 -291.999s-93.667 -177 -167 -251c-6 -7.33301 -12.667 -8 -20 -2l-16 10c-6.66699 4.66699 -7.66699 10 -3 16c30.667 34.667 57.834 72.667 81.501 114s43.834 84.5 60.501 129.5s29.334 90.833 38.001 137.5
s13 93 13 139c0 50 -4.66699 96.333 -14 139s-19.666 75.667 -30.999 99c-3.33301 5.33301 -0.333008 10.666 9 15.999l20 11c9.33301 4.66699 15.333 3.33398 18 -3.99902l22 -47.5c8 -17.667 15.5 -37.334 22.5 -59.001s12.667 -45.5 17 -71.5s6.5 -54 6.5 -84z" />
    <glyph glyph-name="asterisk" unicode="*" horiz-adv-x="343" 
d="M378 587c2.66699 -4.66699 1.00098 -8.66797 -4.99902 -12.001l-82 -47l63 -48c3.33301 -2 5 -4 5 -6s-1.66699 -5.33301 -5 -10l-13 -15c-5.33301 -6 -10.666 -7.33301 -15.999 -4l-67 41l-18 -83c-1.33301 -4 -2.83301 -6.66699 -4.5 -8s-5.16699 -2 -10.5 -2h-22
c-4.66699 0 -7.66699 0.5 -9 1.5s-1.33301 3.83301 0 8.5l11 84l-83 -39c-7.33301 -4 -12.333 -2.66699 -15 4l-6 16c-2.66699 6 -0.333984 10.667 6.99902 14l80 47l-63 43c-2.66699 2 -4.33398 4.16699 -5.00098 6.5s1 5.83301 5 10.5l11 14
c3.33301 4.66699 6.33301 7.33398 9 8.00098s6 -0.333008 10 -3l67 -38l19 83c1.33301 4 2.83301 6.66699 4.5 8s5.16699 2 10.5 2h22c5.33301 0 8.5 -0.666992 9.5 -2s1.16699 -4.33301 0.5 -9l-13 -81l81 37c4 2 7 2.83301 9 2.5s4 -2.83301 6 -7.5l7 -16v0z" />
    <glyph glyph-name="plus" unicode="+" horiz-adv-x="556" 
d="M469 310c-2 -8 -7.66602 -12 -16.999 -12h-146l-30 -153c-1.33301 -9.33301 -6 -14 -14 -14h-41c-9.33301 0 -13 4.66699 -11 14l30 153h-150c-9.33301 0 -13 4 -11 12l7 35c1.33301 5.33301 3.16602 8.83301 5.49902 10.5s5.83301 2.5 10.5 2.5h149l28 145
c2 9.33301 7.66699 14 17 14h40c8.66699 0 12 -4.66699 10 -14l-28 -145h146c4.66699 0 8.16699 -0.833008 10.5 -2.5s2.83301 -5.16699 1.5 -10.5l-7 -35v0z" />
    <glyph glyph-name="comma" unicode="," horiz-adv-x="195" 
d="M114 31c0 -17.333 -3.16895 -34.168 -9.50195 -50.501s-14.5 -31.5 -24.5 -45.5s-21.667 -26.667 -35 -38s-27 -21 -41 -29c-2 -1.33301 -4.83301 -2.5 -8.5 -3.5s-6.16699 -0.5 -7.5 1.5l-11 14c-2 3.33301 0 7.66602 6 12.999c14 10.667 24.667 22 32 34
s12.333 24.333 15 37c2 12 1.83301 24.167 -0.5 36.5s-6.16602 22.833 -11.499 31.5c-1.33301 2.66699 -1.66602 5.83398 -0.999023 9.50098s4 7.5 10 11.5l45 30c10 6.66699 18 6.33398 24 -0.999023c6 -6.66699 10.5 -14.5 13.5 -23.5s4.5 -18.167 4.5 -27.5z" />
    <glyph glyph-name="hyphen" unicode="-" horiz-adv-x="370" 
d="M355 307c-2 -8 -7.66504 -12 -16.998 -12h-271c-10 0 -14 4 -12 12l8 41c1.33301 5.33301 3.16602 8.83301 5.49902 10.5s6.16602 2.5 11.499 2.5h271c4.66699 0 8.16699 -0.833008 10.5 -2.5s2.83301 -5.16699 1.5 -10.5l-8 -41v0z" />
    <glyph glyph-name="period" unicode="." horiz-adv-x="186" 
d="M106 56c0 -19.333 -4.33301 -35 -13 -47s-23 -18 -43 -18c-10.667 0 -19.834 2 -27.501 6s-11.5 12 -11.5 24c0 18.667 4.33301 34 13 46s23.334 18 44.001 18c10.667 0 19.667 -1.83301 27 -5.5s11 -11.5 11 -23.5z" />
    <glyph glyph-name="slash" unicode="/" horiz-adv-x="256" 
d="M18 -52c-3.33301 -8 -8.99902 -12 -16.999 -12h-33c-9.33301 0 -11.333 4.66699 -6 14l315 730c3.33301 8.66699 9.66602 13 18.999 13h32c8 0 9.66699 -5 5 -15z" />
    <glyph glyph-name="zero" unicode="0" horiz-adv-x="556" 
d="M561 475c0 -22.667 -1.49805 -45.166 -4.49805 -67.499s-6.5 -44.5 -10.5 -66.5c-8 -43.333 -18.167 -85.833 -30.5 -127.5s-29.5 -79 -51.5 -112s-50.167 -59.667 -84.5 -80s-77.5 -30.5 -129.5 -30.5c-66.667 0 -116 16.833 -148 50.5s-48 82.834 -48 147.501
c0 25.333 1.66699 50.666 5 75.999s7.66602 50.666 12.999 75.999c8 40 18.167 79.833 30.5 119.5s29.166 75 50.499 106s48.5 56.167 81.5 75.5s73.5 29 121.5 29c67.333 0 118.333 -16 153 -48s52 -81.333 52 -148zM356.002 601.001
c-30 0 -55.499 -5.83496 -76.499 -17.502s-38.667 -27 -53 -46s-26.333 -40.667 -36 -65s-17.834 -49.166 -24.501 -74.499c-5.33301 -19.333 -9.66602 -39 -12.999 -59l-10 -60c-4 -31.333 -6.33301 -60.166 -7 -86.499s2.5 -49.166 9.5 -68.499s18.833 -34.333 35.5 -45
s40.334 -16 71.001 -16c30 0 55.833 5.33301 77.5 16s40 25 55 43s27.5 39.167 37.5 63.5s19 50.166 27 77.499c5.33301 18 9.66602 37.333 12.999 58l10 62c4.66699 33.333 7.16699 63.333 7.5 90s-3.33398 49.5 -11.001 68.5s-20.5 33.667 -38.5 44s-42.667 15.5 -74 15.5
z" />
    <glyph glyph-name="one" unicode="1" horiz-adv-x="556" 
d="M434 13c-0.666992 -8.66699 -6.33496 -12.9971 -17.002 -12.9971h-328c-10 0 -14 4.33301 -12 13l8 44c2 9.33301 8 14 18 14h120l97 499h-112c-5.33301 0 -9 0.666992 -11 2s-2.33301 4.66602 -1 9.99902l4 24c1.33301 3.33301 2.83301 6.66602 4.5 9.99902
s5.16699 5.66602 10.5 6.99902l100 32c14 5.33301 27.667 8 41 8h42c8.66699 0 13.334 -1.5 14.001 -4.5s0.333984 -7.16699 -0.999023 -12.5l-112 -575h132c10 0 14 -4.66699 12 -14z" />
    <glyph glyph-name="two" unicode="2" horiz-adv-x="556" 
d="M534 528c0 -28 -3.66797 -53.0029 -11.001 -75.0029s-17.166 -42 -29.499 -60s-26.5 -34.667 -42.5 -50l-49 -45l-63 -53l-60 -49l-68 -54.5l-86 -69.5l2 -1h319c10.667 0 15 -4.66699 13 -14l-8 -44c-2 -8.66699 -7.66699 -13 -17 -13h-410c-10 0 -14 4.66699 -12 14
l9 46c2.66699 10.667 7.33398 19.334 14.001 26.001l46 39.5l53 42.5l51 40c16 12.667 29 23.334 39 32.001l45.5 37.5l79.5 65.5c14 12 27.5 24.333 40.5 37s24.333 25.834 34 39.501s17.334 28.334 23.001 44.001s8.5 32.5 8.5 50.5c0 14 -2 26.167 -6 36.5
s-10.833 19 -20.5 26s-22.5 12.167 -38.5 15.5s-36.333 5 -61 5c-30 0 -60.167 -1.5 -90.5 -4.5s-57.166 -6.16699 -80.499 -9.5c-6.66699 -1.33301 -11 -0.666016 -13 2.00098s-3 5.66699 -3 9l-1 28c-0.666992 4.66699 0.166016 8.66699 2.49902 12
s7.16602 6.66602 14.499 9.99902c14.667 5.33301 31 9.66602 49 12.999s35.833 6 53.5 8s34.167 3.33301 49.5 4s28 1 38 1c65.333 0 112.666 -12.333 141.999 -37s44 -59.667 44 -105z" />
    <glyph glyph-name="three" unicode="3" horiz-adv-x="556" 
d="M544 603c-1.33301 -5.33301 -2.66699 -10.166 -4 -14.499s-4.33301 -8.16602 -9 -11.499l-216 -172v-2l77 -13c34 -6.66699 61.333 -19.5 82 -38.5s31 -46.833 31 -83.5c0 -46.667 -7.5 -87.167 -22.5 -121.5s-35.667 -63 -62 -86s-57.833 -40.167 -94.5 -51.5
s-77 -17 -121 -17c-10 0 -23 0.5 -39 1.5s-32.667 2.5 -50 4.5s-34.5 4.66699 -51.5 8s-30.833 7.66602 -41.5 12.999c-6 2.66699 -9.16699 5.66699 -9.5 9s0.5 7.66602 2.5 12.999l10 26c1.33301 3.33301 3.66602 6.5 6.99902 9.5s8.66602 3.83301 15.999 2.5
c23.333 -3.33301 49.333 -6.66602 78 -9.99902s58 -5 88 -5c28 0 54.333 3.83301 79 11.5s46.334 19 65.001 34s33.5 33.833 44.5 56.5s16.5 49.334 16.5 80.001c0 24 -7.83301 41.5 -23.5 52.5s-36.167 18.833 -61.5 23.5l-120 21c-12 2 -17 9 -15 21l6 30
c1.33301 7.33301 3.33301 12.666 6 15.999s5.66699 6.66602 9 9.99902l213 170l-1 1h-287c-10.667 0 -14.667 5 -12 15l8 43c2 8.66699 7.33301 13 16 13h380c5.33301 0 9.33301 -1 12 -3s3.33398 -6.66699 2.00098 -14z" />
    <glyph glyph-name="four" unicode="4" horiz-adv-x="556" 
d="M532 193c-2 -8.66699 -7.66699 -13 -17 -13h-80l-32 -165c-2.66699 -10 -8.66699 -15 -18 -15h-48c-9.33301 0 -13 4.66699 -11 14l33 166h-331c-10 0 -14 4.33301 -12 13l8 40c1.33301 5.33301 2.83301 10 4.5 14s5.16699 8.66699 10.5 14l405 388
c5.33301 5.33301 10 8.83301 14 10.5s9.66699 2.5 17 2.5h41c8.66699 0 12 -4 10 -12l-78 -399h80c10 0 14 -4.66699 12 -14zM428 544l-108 -106l-194 -187h246l58 293h-2z" />
    <glyph glyph-name="five" unicode="5" horiz-adv-x="556" 
d="M538 606c-2 -9.33301 -8 -13.998 -18 -13.998h-269l-58 -171l188 -30c16.667 -2.66699 32.334 -7 47.001 -13s27.5 -14 38.5 -24s19.667 -22 26 -36s9.5 -30 9.5 -48c0 -46.667 -7.5 -87.5 -22.5 -122.5s-35.833 -64 -62.5 -87s-57.834 -40.167 -93.501 -51.5
s-74.167 -17 -115.5 -17c-9.33301 0 -22 0.5 -38 1.5s-32.833 2.5 -50.5 4.5s-34.834 4.66699 -51.501 8s-30.667 7.66602 -42 12.999c-5.33301 2.66699 -8.16602 5.66699 -8.49902 9s0.5 7.66602 2.5 12.999l10 26c1.33301 3.33301 3.66602 6.5 6.99902 9.5
s8.33301 3.83301 15 2.5c23.333 -3.33301 49.5 -6.66602 78.5 -9.99902s58.5 -5 88.5 -5c26.667 0 52.167 3.66699 76.5 11s45.5 18.5 63.5 33.5s32.333 34.167 43 57.5s16 51 16 83c0 21.333 -7.66699 37.666 -23 48.999s-35.666 19.333 -60.999 24l-214 36
c-16.667 3.33301 -22 14 -16 32l91 258c2 6 4.5 9.83301 7.5 11.5s7.16699 2.5 12.5 2.5h320c8.66699 0 12.667 -4 12 -12z" />
    <glyph glyph-name="six" unicode="6" horiz-adv-x="556" 
d="M550 594c-1.33301 -3.33301 -3.66504 -6.33203 -6.99805 -8.99902s-8 -3.33398 -14 -2.00098c-21.333 3.33301 -45 6.5 -71 9.5s-54 4.5 -84 4.5c-34 0 -62.833 -5.66699 -86.5 -17s-43.834 -26.833 -60.501 -46.5s-30.167 -42.667 -40.5 -69
s-19.166 -54.5 -26.499 -84.5l105.5 10.5c31 3 62.833 4.5 95.5 4.5c53.333 0 92.666 -13.333 117.999 -40s37.666 -65.334 36.999 -116.001c-0.666992 -43.333 -7.66699 -80.5 -21 -111.5s-31.833 -56.667 -55.5 -77s-52.167 -35.333 -85.5 -45s-70.333 -14.5 -111 -14.5
c-36.667 0 -67.5 3.5 -92.5 10.5s-45 17.833 -60 32.5s-25.667 33.167 -32 55.5s-9.5 48.5 -9.5 78.5c0.666992 32 3.66699 63.667 9 95s11.666 62.666 18.999 93.999c9.33301 39.333 21 77.833 35 115.5s32.667 71.167 56 100.5s52.5 52.833 87.5 70.5
s78.167 26.5 129.5 26.5c8.66699 0 20.167 -0.333008 34.5 -1s29.333 -2 45 -4s31.334 -4.66699 47.001 -8s29.5 -7.66602 41.5 -12.999c6 -3.33301 9.33301 -6.66602 10 -9.99902s0 -7.33301 -2 -12zM338.001 321.001c-28 0 -57.833 -1.33203 -89.5 -3.99902
s-66.5 -6.33398 -104.5 -11.001c-5.33301 -24.667 -10.333 -51 -15 -79s-6 -54 -4 -78c2.66699 -33.333 14.667 -56.333 36 -69s52 -19 92 -19c56 0 100.5 13.833 133.5 41.5s49.167 72.167 48.5 133.5c-0.666992 30.667 -8.5 52.5 -23.5 65.5s-39.5 19.5 -73.5 19.5z" />
    <glyph glyph-name="seven" unicode="7" horiz-adv-x="556" 
d="M575 606c-0.666992 -3.33301 -1.83301 -7.16699 -3.5 -11.5s-4.16699 -8.5 -7.5 -12.5l-399 -581c-5.33301 -8 -11.666 -10.333 -18.999 -7l-44 24c-8 4 -9 10.667 -3 20l383 554h-352c-9.33301 0 -13 4.33301 -11 13l8 43c2 10 7.66699 15 17 15h426
c5.33301 0 9.16602 -1 11.499 -3s2.83301 -6 1.5 -12z" />
    <glyph glyph-name="eight" unicode="8" horiz-adv-x="556" 
d="M176 353c-20.667 10.667 -36.998 25.501 -48.998 44.501s-18 40.167 -18 63.5c0 35.333 7.16699 66.166 21.5 92.499s33.166 48.333 56.499 66s50.166 30.834 80.499 39.501s61.166 13 92.499 13c24.667 0 48.334 -2.5 71.001 -7.5s42.834 -13.167 60.501 -24.5
s31.834 -26.5 42.501 -45.5s16 -42.5 16 -70.5c0 -40 -11.167 -75.333 -33.5 -106s-52.166 -52.334 -89.499 -65.001l-1 -2c30 -10.667 52 -28.334 66 -53.001s21 -52 21 -82c0 -38.667 -7.83301 -72.167 -23.5 -100.5s-36.334 -51.666 -62.001 -69.999
s-54.834 -32 -87.501 -41s-66.334 -13.5 -101.001 -13.5c-26 0 -51.667 2 -77 6s-47.833 11.667 -67.5 23s-35.667 26.833 -48 46.5s-18.5 45.167 -18.5 76.5c0 50 12.833 93.167 38.5 129.5s62.167 62.5 109.5 78.5v2zM353.002 603.001
c-21.333 0 -41.6689 -2.33301 -61.002 -7s-36.333 -12.334 -51 -23.001s-26.5 -24.167 -35.5 -40.5s-13.5 -36.5 -13.5 -60.5c0 -15.333 3.83301 -28 11.5 -38s17.334 -18.333 29.001 -25s24.334 -12 38.001 -16s26.5 -7.33301 38.5 -10
c19.333 2.66699 38.5 6.66699 57.5 12s36 13 51 23s27.167 22.667 36.5 38s14 34.666 14 57.999c0 16.667 -3.16699 30.834 -9.5 42.501s-14.833 20.834 -25.5 27.501s-23 11.5 -37 14.5s-28.333 4.5 -43 4.5zM289.999 320.001
c-23.333 -4.66699 -45.8311 -10.667 -67.498 -18s-40.834 -17.333 -57.501 -30s-30 -28.5 -40 -47.5s-15 -42.167 -15 -69.5c0 -19.333 4 -35 12 -47s18.5 -21.5 31.5 -28.5s27.5 -11.833 43.5 -14.5s32 -4 48 -4c22 0 44 2.83301 66 8.5s41.833 14.334 59.5 26.001
s32 26.5 43 44.5s16.5 39.333 16.5 64c0 19.333 -4.33301 35.666 -13 48.999s-19.834 24.5 -33.501 33.5s-28.667 16 -45 21s-32.5 9.16699 -48.5 12.5z" />
    <glyph glyph-name="nine" unicode="9" horiz-adv-x="556" 
d="M59 66c1.33301 4 3.5 7.16602 6.5 9.49902s7.83301 3.16602 14.5 2.49902c21.333 -3.33301 45 -6.5 71 -9.5s54 -4.5 84 -4.5c34 0 62.833 5.66699 86.5 17s43.834 26.833 60.501 46.5s30 42.5 40 68.5s18.667 54 26 84c-38.667 -4 -73.667 -7.33301 -105 -10
s-63.333 -4 -96 -4c-53.333 0 -92.333 13.167 -117 39.5s-37 65.166 -37 116.499c0 42.667 6.5 79.667 19.5 111s31.5 57.166 55.5 77.499s52.667 35.333 86 45s70.666 14.5 111.999 14.5c36.667 0 67.334 -3.66699 92.001 -11s44.5 -18.166 59.5 -32.499
s25.667 -32.666 32 -54.999s9.5 -48.5 9.5 -78.5c0 -32 -2.66699 -63.667 -8 -95s-11.666 -62.666 -18.999 -93.999c-9.33301 -39.333 -21 -77.833 -35 -115.5s-32.833 -71.167 -56.5 -100.5s-53 -52.833 -88 -70.5s-78.167 -26.5 -129.5 -26.5
c-8.66699 0 -20 0.333008 -34 1s-28.833 2 -44.5 4s-31.334 4.66699 -47.001 8s-29.5 7.66602 -41.5 12.999c-6.66699 2.66699 -10.334 5.83398 -11.001 9.50098s0 7.83398 2 12.501zM270 338.999c28 0 57.9961 1.5 89.9961 4.5s67 6.5 105 10.5
c4.66699 24.667 9.33398 51 14.001 79s6.33398 54 5.00098 78c-2.66699 34 -14.667 57.333 -36 70s-52.333 19 -93 19c-55.333 0 -99.666 -14 -132.999 -42s-49.333 -72.333 -48 -133c0.666992 -30.667 8.33398 -52.667 23.001 -66s39 -20 73 -20z" />
    <glyph glyph-name="colon" unicode=":" horiz-adv-x="195" 
d="M182 411c0 -18.667 -4.5 -34.167 -13.5 -46.5s-23.5 -18.5 -43.5 -18.5c-10.667 0 -19.834 2 -27.501 6s-11.5 12 -11.5 24c0 19.333 4.5 34.833 13.5 46.5s23.5 17.5 43.5 17.5c10.667 0 19.834 -1.83301 27.501 -5.5s11.5 -11.5 11.5 -23.5zM112 56
c0 -19.333 -4.33203 -35 -12.999 -47s-23 -18 -43 -18c-10.667 0 -19.834 2 -27.501 6s-11.5 12 -11.5 24c0 18.667 4.5 34 13.5 46s23.5 18 43.5 18c10.667 0 19.667 -1.83301 27 -5.5s11 -11.5 11 -23.5z" />
    <glyph glyph-name="semicolon" unicode=";" horiz-adv-x="195" 
d="M182 411c0 -18.667 -4.5 -34.167 -13.5 -46.5s-23.5 -18.5 -43.5 -18.5c-10.667 0 -19.834 2 -27.501 6s-11.5 12 -11.5 24c0 19.333 4.5 34.833 13.5 46.5s23.5 17.5 43.5 17.5c10.667 0 19.834 -1.83301 27.501 -5.5s11.5 -11.5 11.5 -23.5zM114 31
c0 -17.333 -3.16895 -34.168 -9.50195 -50.501s-14.5 -31.5 -24.5 -45.5s-21.667 -26.667 -35 -38s-27 -21 -41 -29c-2 -1.33301 -4.83301 -2.5 -8.5 -3.5s-6.16699 -0.5 -7.5 1.5l-11 14c-2 3.33301 0 7.66602 6 12.999c14 10.667 24.667 22 32 34s12.333 24.333 15 37
c2 12 1.83301 24.167 -0.5 36.5s-6.16602 22.833 -11.499 31.5c-1.33301 2.66699 -1.66602 5.83398 -0.999023 9.50098s4 7.5 10 11.5l45 30c10 6.66699 18 6.33398 24 -0.999023c6 -6.66699 10.5 -14.5 13.5 -23.5s4.5 -18.167 4.5 -27.5z" />
    <glyph glyph-name="less" unicode="&#x3c;" horiz-adv-x="556" 
d="M409 101c-0.666992 -4 -2.16602 -6.66699 -4.49902 -8s-4.83301 -1 -7.5 1l-328 197c-2.66699 1.33301 -4.83398 3.16602 -6.50098 5.49902s-1.83398 6.5 -0.500977 12.5l6 31c1.33301 5.33301 2.83301 9 4.5 11s4.5 4 8.5 6l403 196c8.66699 4.66699 12 2 10 -8l-9 -56
c-1.33301 -5.33301 -3.33301 -9 -6 -11s-5.66699 -4 -9 -6l-310 -152l-1 -3l252 -153c3.33301 -2 5.83301 -4.16699 7.5 -6.5s1.83398 -6.16602 0.500977 -11.499l-10 -45v0z" />
    <glyph glyph-name="equal" unicode="=" horiz-adv-x="556" 
d="M485 387c-2 -8 -7.66699 -11.999 -17 -11.999h-362c-4 0 -7.16699 0.666992 -9.5 2s-2.83301 4.66602 -1.5 9.99902l7 36c2 8.66699 7.33301 13 16 13h362c10 0 14 -4.33301 12 -13zM454 227.001c-2 -8 -7.66699 -12 -17 -12h-362c-9.33301 0 -13 4 -11 12l7 36
c2 8.66699 7.33301 13 16 13h362c10 0 14 -4.33301 12 -13z" />
    <glyph glyph-name="greater" unicode="&#x3e;" horiz-adv-x="556" 
d="M70 157c1.33301 5.33301 3.16797 9.16699 5.50098 11.5s5.83301 4.5 10.5 6.5l310 153l1 3l-250 152c-3.33301 2 -6 4 -8 6s-2.33301 5.66699 -1 11l9 45c2 10 6.66699 12.667 14 8l327 -196c3.33301 -2 5.66602 -4 6.99902 -6s1.33301 -5.66699 0 -11l-6 -31
c-1.33301 -6 -3.33301 -10.167 -6 -12.5s-5.66699 -4.16602 -9 -5.49902l-404 -197c-8 -4.66699 -11.333 -2.33398 -10 6.99902z" />
    <glyph glyph-name="question" unicode="?" horiz-adv-x="352" 
d="M289 390c-28 -18.667 -52.502 -37.001 -73.502 -55.001s-36.5 -41 -46.5 -69c-2 -6 -4 -13 -6 -21s-3.66699 -16 -5 -24c-1.33301 -6.66699 -2.66602 -14.667 -3.99902 -24s-3 -18 -5 -26c-0.666992 -4.66699 -4 -7 -10 -7h-38c-9.33301 0 -13.666 4.66699 -12.999 14
c0.666992 12.667 1.66699 25.667 3 39s2.66602 24 3.99902 32c4.66699 22.667 12 43 22 61s21.833 34.667 35.5 50s29 29.5 46 42.5l53.5 39.5l26 17.5c8.66699 5.66699 16.167 11.667 22.5 18s11.5 13.833 15.5 22.5s6 19.334 6 32.001c0 24.667 -7.33301 42.167 -22 52.5
s-41 15.5 -79 15.5c-16.667 0 -35 -0.833008 -55 -2.5l-55 -4.5c-6.66699 -0.666992 -11 0.333008 -13 3s-3 5.66699 -3 9v27c-1.33301 10 4.33398 17.333 17.001 22c22 8 43.667 13.167 65 15.5s41.666 3.5 60.999 3.5c51.333 0 90.333 -10.833 117 -32.5
s40.334 -52.5 41.001 -92.5c0 -20 -3 -38 -9 -54s-14 -30.167 -24 -42.5s-21.5 -23.5 -34.5 -33.5s-26.167 -19.333 -39.5 -28zM143.998 38.999c-2.66699 -13.333 -7.66895 -24.666 -15.002 -33.999s-20.666 -14 -39.999 -14c-20 0 -31.667 4.66699 -35 14
s-3.66602 20.666 -0.999023 33.999s7.66699 24.333 15 33s20.333 13 39 13c19.333 0 31 -4.33301 35 -13s4.66699 -19.667 2 -33z" />
    <glyph glyph-name="at" unicode="@" horiz-adv-x="813" 
d="M807 416c0 -30 -4.50098 -61.1729 -13.501 -93.5059s-22.333 -61.833 -40 -88.5s-39.5 -48.5 -65.5 -65.5s-56.333 -25.5 -91 -25.5c-18 0 -33.167 2.16699 -45.5 6.5s-22.5 9.83301 -30.5 16.5s-14.167 13.834 -18.5 21.501s-7.16602 14.834 -8.49902 21.501
c0 0.666992 -0.333008 1.33398 -1 2.00098c-6.66699 -4 -15.5 -8.66699 -26.5 -14s-23 -10.5 -36 -15.5s-26.333 -9.33301 -40 -13s-26.167 -5.5 -37.5 -5.5c-34 0 -58 8.83301 -72 26.5s-21 42.5 -21 74.5c0 11.333 0.833008 23.333 2.5 36s4.16699 26.334 7.5 41.001
c5.33301 29.333 12.166 55.5 20.499 78.5s19 42.333 32 58s29.333 27.667 49 36s43.5 12.5 71.5 12.5c13.333 0 29.5 -2.33301 48.5 -7s36.5 -11 52.5 -19v3c0 0.666992 0.333008 1.66699 1 3c0.666992 8.66699 6.33398 13 17.001 13h28c9.33301 0 13 -5 11 -15l-49 -253
c-1.33301 -6 -1.83301 -12.167 -1.5 -18.5s2.16602 -12.333 5.49902 -18s9 -10.334 17 -14.001s19.667 -5.5 35 -5.5c24 0 45 7.5 63 22.5s33 33.5 45 55.5s21 45.333 27 70s9 47 9 67c0 34 -5.66699 64.833 -17 92.5s-27.666 51.167 -48.999 70.5s-47.5 34.333 -78.5 45
s-65.833 16 -104.5 16c-51.333 0 -100 -9 -146 -27s-86.5 -43 -121.5 -75s-62.833 -69.833 -83.5 -113.5s-31 -91.5 -31 -143.5c0 -37.333 6 -71 18 -101s29.167 -55.5 51.5 -76.5s49.833 -37 82.5 -48s69.334 -16.5 110.001 -16.5c4.66699 0 11.167 0.166992 19.5 0.5
s17.666 0.833008 27.999 1.5s21.166 1.83398 32.499 3.50098s22.666 3.83398 33.999 6.50098c10 2 16 -0.666992 18 -8l4 -16c2 -6.66699 -1 -11.667 -9 -15c-22.667 -9.33301 -46.167 -15.666 -70.5 -18.999s-47.833 -5 -70.5 -5c-46.667 0 -88.667 6.83301 -126 20.5
s-69.166 33.167 -95.499 58.5s-46.5 55.666 -60.5 90.999s-21 74.666 -21 117.999c0 60 11.833 115.333 35.5 166s55.834 94.334 96.501 131.001s87.834 65.334 141.501 86.001s110.5 31 170.5 31c46.667 0 88.5 -6.5 125.5 -19.5s68.167 -31.333 93.5 -55
s44.666 -52 57.999 -85s20 -69.167 20 -108.5zM533.999 451.994c-17.333 7.33301 -34.6689 12.833 -52.002 16.5s-33.666 5.5 -48.999 5.5c-27.333 0 -47.833 -7.33301 -61.5 -22s-25.167 -41 -34.5 -79c-4.66699 -19.333 -8.66699 -39 -12 -59
c-3.33301 -21.333 -5 -38.5 -5 -51.5s1.83301 -23 5.5 -30s9 -11.667 16 -14s15.5 -3.5 25.5 -3.5c8.66699 0 18.834 1.5 30.501 4.5s23.667 6.5 36 10.5s24 8.33301 35 13s19.833 8.66699 26.5 12z" />
    <glyph glyph-name="A" unicode="A" horiz-adv-x="548" 
d="M491 14c1.33301 -9.33301 -2.33398 -13.999 -11.001 -13.999h-54c-9.33301 0 -14.333 4.33301 -15 13l-20 164h-244l-81 -161c-3.33301 -6.66699 -6.83301 -11 -10.5 -13s-8.16699 -3 -13.5 -3h-55c-9.33301 0 -11 5.33301 -5 16l329 631c4.66699 10 12 15 22 15h55
c6.66699 0 10.834 -1.33301 12.501 -4s3.16699 -6.33398 4.5 -11.001zM357 465.001c-2.66699 24 -4.66699 45.666 -6 64.999s-2.33301 34.333 -3 45h-3l-19.5 -43.5c-8.33301 -18.333 -18.5 -39.166 -30.5 -62.499l-10.5 -21.5l-20.5 -40.5l-25 -49.5l-25 -49.5l-20.5 -39.5
l-10.5 -20.5h201z" />
    <glyph glyph-name="B" unicode="B" horiz-adv-x="551" 
d="M511 182c-4 -28.667 -12.167 -54.168 -24.5 -76.501s-27.666 -41.333 -45.999 -57s-38.833 -27.667 -61.5 -36s-46.334 -12.5 -71.001 -12.5h-262c-14 0 -19.667 5.66699 -17 17l122 629c2 10.667 9 16 21 16l198 1c63.333 0 109.666 -15.667 138.999 -47
s41 -72.666 35 -123.999c-1.33301 -12 -4.5 -25 -9.5 -39s-12.333 -27.667 -22 -41s-21.5 -26 -35.5 -38s-30.333 -22 -49 -30l1 -1c18.667 -6 33.834 -15.167 45.501 -27.5s20.5 -26 26.5 -41s9.66699 -30.667 11 -47s1 -31.5 -1 -45.5zM177 378.999l156.001 0.000976562
c14.667 0 29.167 2.66699 43.5 8s27.5 12.666 39.5 21.999s22 20.5 30 33.5s13 27.5 15 43.5c4 30.667 -1.33301 56 -16 76s-43.334 30 -86.001 30h-141zM430.001 189c2 16 1.50195 31.167 -1.49805 45.5s-9 27 -18 38s-20.833 19.833 -35.5 26.5s-33 10 -55 10h-157
l-46 -238h167c43.333 0 77.666 11.5 102.999 34.5s39.666 50.833 42.999 83.5z" />
    <glyph glyph-name="C" unicode="C" horiz-adv-x="538" 
d="M580 594c-1.33301 -3.33301 -3.5 -6.33887 -6.5 -9.00586s-7.83301 -3.33398 -14.5 -2.00098c-21.333 3.33301 -46.5 6.5 -75.5 9.5s-58.167 4.5 -87.5 4.5c-39.333 0 -72 -7.5 -98 -22.5s-47.333 -35.167 -64 -60.5s-29.834 -54.5 -39.501 -87.5
s-17.834 -67.167 -24.501 -102.5c-4 -18.667 -7.16699 -37.167 -9.5 -55.5s-3.5 -36.166 -3.5 -53.499c0 -23.333 2.33301 -44.166 7 -62.499s12.167 -34 22.5 -47s24.166 -23 41.499 -30s38.666 -10.5 63.999 -10.5c30.667 0 60.334 1.5 89.001 4.5s55 6.16699 79 9.5
c7.33301 1.33301 12.166 0.5 14.499 -2.5s3.5 -6.16699 3.5 -9.5v-26c0 -5.33301 -0.666992 -9.66602 -2 -12.999s-5.66602 -6.33301 -12.999 -9c-13.333 -5.33301 -28.666 -9.66602 -45.999 -12.999s-34.666 -6 -51.999 -8s-33.666 -3.5 -48.999 -4.5s-28 -1.5 -38 -1.5
c-36.667 0 -67.834 4.83301 -93.501 14.5s-46.5 23.667 -62.5 42s-27.667 40.5 -35 66.5s-11 55.333 -11 88c0 20 1.16699 40.167 3.5 60.5s5.16602 40.5 8.49902 60.5c8 42.667 18.5 84.834 31.5 126.501s31.333 78.667 55 111s53.834 58.5 90.501 78.5s82.667 30 138 30
c10 0 22.667 -0.333008 38 -1s31.5 -2 48.5 -4s33.833 -4.66699 50.5 -8s31 -7.66602 43 -12.999c6.66699 -3.33301 10.334 -6.66602 11.001 -9.99902s0 -7.33301 -2 -12z" />
    <glyph glyph-name="D" unicode="D" horiz-adv-x="617" 
d="M588 438c0 -17.333 -0.667969 -34.835 -2.00098 -52.502s-3.33301 -35.167 -6 -52.5c-6.66699 -47.333 -16.667 -91.166 -30 -131.499s-32 -75.5 -56 -105.5s-54.167 -53.5 -90.5 -70.5s-81.166 -25.5 -134.499 -25.5h-212c-5.33301 0 -10 0.833008 -14 2.5
s-5.33301 5.83398 -4 12.501l1 5l121 626c2.66699 10.667 10 16 22 16h184c76.667 0 132.667 -18.5 168 -55.5s53 -93.167 53 -168.5zM506.999 428.998c0 50 -11.167 89.502 -33.5 118.502s-60.833 43.5 -115.5 43.5h-129l-101 -519h135c40 0 73.5 6.5 100.5 19.5
s49.333 30.833 67 53.5s31.5 49.5 41.5 80.5s18 64.167 24 99.5c3.33301 17.333 6 34.666 8 51.999s3 34.666 3 51.999z" />
    <glyph glyph-name="E" unicode="E" horiz-adv-x="505" 
d="M532 608c-2 -11.333 -9 -17 -21 -17h-284l-41 -211h255c11.333 0 16 -5.33301 14 -16l-8 -39c-2 -10.667 -8.66699 -16 -20 -16h-255l-46 -238h292c10.667 0 15 -5.66699 13 -17l-8 -38c-1.33301 -6.66699 -3.5 -11 -6.5 -13s-7.5 -3 -13.5 -3h-351
c-12 -0 -17 5.33301 -15 16l123 630c2 11.333 9 17 21 17h345c11.333 0 16 -5.33301 14 -16z" />
    <glyph glyph-name="F" unicode="F" horiz-adv-x="514" 
d="M516 608c-2.66699 -11.333 -9.66504 -17 -20.998 -17h-279l-41 -211h247c11.333 0 16 -5.33301 14 -16l-8 -39c-2 -11.333 -9 -17 -21 -17h-246l-57 -291c-2.66699 -11.333 -9.33398 -17 -20.001 -17h-43c-12 0 -17 5.66699 -15 17l123 630c2 10.667 9 16 21 16h340
c11.333 0 15.666 -5.33301 12.999 -16z" />
    <glyph glyph-name="G" unicode="G" horiz-adv-x="604" 
d="M582 594c-1.33301 -3.33301 -3.50488 -6.33105 -6.50488 -8.99805s-7.83301 -3.33398 -14.5 -2.00098c-21.333 3.33301 -46.666 6.5 -75.999 9.5s-58.666 4.5 -87.999 4.5c-39.333 0 -71.833 -7.33301 -97.5 -22s-46.834 -34.5 -63.501 -59.5s-29.834 -54 -39.501 -87
s-18.167 -67.833 -25.5 -104.5c-3.33301 -18.667 -6.16602 -38 -8.49902 -58s-3.5 -36.667 -3.5 -50c0 -22 2.33301 -42.333 7 -61s12.334 -34.834 23.001 -48.501s24.834 -24.334 42.501 -32.001s39.834 -11.5 66.501 -11.5c8.66699 0 18.834 0.5 30.501 1.5
s23.5 2.33301 35.5 4s23.833 3.66699 35.5 6s21.834 4.83301 30.501 7.5l39 201h-91c-12 0 -17 5.66699 -15 17l8 39c2 10.667 8.66699 16 20 16h153c12.667 0 17.667 -5.66699 15 -17l-55 -285c-2 -10 -5.66699 -17.667 -11 -23s-13 -9.66602 -23 -12.999
c-28.667 -8 -58.834 -14.167 -90.501 -18.5s-64.5 -6.5 -98.5 -6.5c-38 0 -70 5.16699 -96 15.5s-46.833 24.833 -62.5 43.5s-27 40.5 -34 65.5s-10.833 52.5 -11.5 82.5c0 19.333 1.16699 39.666 3.5 60.999s5.5 42.666 9.5 63.999c8 44 18.833 86.833 32.5 128.5
s32.5 78.5 56.5 110.5s54.167 57.833 90.5 77.5s81.5 29.5 135.5 29.5c10 0 22.667 -0.333008 38 -1s31.5 -2 48.5 -4s33.833 -4.66699 50.5 -8s31 -7.66602 43 -12.999c6 -2.66699 9.5 -5.66699 10.5 -9s0.166992 -7.66602 -2.5 -12.999z" />
    <glyph glyph-name="H" unicode="H" horiz-adv-x="596" 
d="M487 17c-2 -11.333 -8.33008 -17 -18.9971 -17h-43c-12 0 -17 5.66699 -15 17l58 298h-296l-58 -298c-2.66699 -11.333 -9.33398 -17 -20.001 -17h-43c-12 0 -16.667 5.66699 -14 17l122 628c1.33301 7.33301 3.66602 12.166 6.99902 14.499s8 3.5 14 3.5h43
c5.33301 0 9.16602 -1.16699 11.499 -3.5s2.83301 -7.16602 1.5 -14.499l-50 -258h296l50 258c1.33301 7.33301 3.83301 12.166 7.5 14.499s8.16699 3.5 13.5 3.5h43c6 0 10.167 -1.16699 12.5 -3.5s2.83301 -7.16602 1.5 -14.499z" />
    <glyph glyph-name="I" unicode="I" horiz-adv-x="254" 
d="M128 17c-2.66699 -11.333 -9.33105 -17 -19.998 -17h-43c-12 0 -16.667 5.66699 -14 17l122 628c1.33301 7.33301 3.66602 12.166 6.99902 14.499s8 3.5 14 3.5h43c5.33301 0 9.16602 -1.16699 11.499 -3.5s2.83301 -7.16602 1.5 -14.499z" />
    <glyph glyph-name="J" unicode="J" horiz-adv-x="465" 
d="M324 160c-5.33301 -26 -12.6631 -49.501 -21.9961 -70.501s-22 -38.833 -38 -53.5s-35.833 -25.834 -59.5 -33.501s-52.5 -11.5 -86.5 -11.5c-21.333 0 -43.5 1.5 -66.5 4.5s-43.833 8.5 -62.5 16.5c-7.33301 3.33301 -11.333 6.83301 -12 10.5
s-0.333984 8.16699 0.999023 13.5l10 28c4 8.66699 10.667 12 20 10c14 -2 31.167 -4 51.5 -6s37.5 -3 51.5 -3c24 0 44 2.33301 60 7s29.167 11.334 39.5 20.001s18.166 19.334 23.499 32.001s9.66602 27 12.999 43l93 478c1.33301 7.33301 3.66602 12.166 6.99902 14.499
s8.33301 3.5 15 3.5h42c6 0 10.167 -1.16699 12.5 -3.5s2.83301 -7.16602 1.5 -14.499z" />
    <glyph glyph-name="K" unicode="K" horiz-adv-x="550" 
d="M343 382l153.002 -368c1.33301 -3.33301 1 -6.5 -1 -9.5s-5.33301 -4.5 -10 -4.5h-53c-6.66699 0 -11.334 1 -14.001 3s-5 5.66699 -7 11l-126 310l-142 -142l-32 -165c-2.66699 -11.333 -9.33398 -17 -20.001 -17h-43c-12 0 -16.667 5.66699 -14 17l122 628
c1.33301 7.33301 3.66602 12.166 6.99902 14.499s8 3.5 14 3.5h43c5.33301 0 9.16602 -1.16699 11.499 -3.5s2.83301 -7.16602 1.5 -14.499l-68 -346h2l96 100l256 253c4 4 7.66699 6.83301 11 8.5s8 2.5 14 2.5h65c4.66699 0 7.33398 -1.5 8.00098 -4.5
s-0.666016 -6.16699 -3.99902 -9.5z" />
    <glyph glyph-name="L" unicode="L" horiz-adv-x="484" 
d="M432 16c-2 -10.667 -8.33105 -16 -18.998 -16h-360c-12.667 -0 -17.667 5.33301 -15 16l122 629c1.33301 7.33301 3.66602 12.166 6.99902 14.499s8 3.5 14 3.5h44c5.33301 0 9.16602 -1.16699 11.499 -3.5s2.83301 -7.16602 1.5 -14.499l-111 -573h299
c11.333 0 16 -5.66699 14 -17z" />
    <glyph glyph-name="M" unicode="M" horiz-adv-x="739" 
d="M629 17c-2.66699 -11.333 -9.33008 -17.001 -19.9971 -17.001h-43c-12 0 -16.667 5.66699 -14 17l93 475h-3l-51 -78l-204 -298c-6.66699 -8.66699 -14.667 -13 -24 -13h-27c-10.667 0 -17.334 4 -20.001 12l-91 310l-17 65l-1 2l-2 -1l-93 -474
c-2 -11.333 -8.33301 -17 -19 -17h-42c-11.333 0 -16 5.66699 -14 17l123 631c2 10 7.66699 15 17 15h42c7.33301 0 12.166 -1.16699 14.499 -3.5s4.16602 -6.16602 5.49902 -11.499l99 -345l28 -104h2l69 108l233 340c3.33301 5.33301 7 9.33301 11 12s9.66699 4 17 4h41
c10 0 14 -5 12 -15z" />
    <glyph glyph-name="N" unicode="N" horiz-adv-x="629" 
d="M520 16c-2.66699 -10.667 -9.33008 -16 -19.9971 -16h-34c-7.33301 -0 -12.333 1.33301 -15 4s-5.33398 6.66699 -8.00098 12l-192 415l-38 92l-2 2l-2 -2l-98 -506c-2.66699 -11.333 -9.33398 -17 -20.001 -17h-41c-12 0 -16.667 5.66699 -14 17l122 631
c2 10 8.33301 15 19 15h38c6.66699 0 11.5 -1.5 14.5 -4.5s5.5 -6.83301 7.5 -11.5l193 -421l36 -84l1 -1l2 1l97 503c1.33301 7.33301 3.66602 12.166 6.99902 14.499s8 3.5 14 3.5h41c6 0 10.167 -1.16699 12.5 -3.5s2.83301 -7.16602 1.5 -14.499z" />
    <glyph glyph-name="O" unicode="O" horiz-adv-x="640" 
d="M615 459c0 -20 -1.33301 -39.833 -4 -59.5s-5.66699 -39.167 -9 -58.5c-8 -46.667 -18.5 -91.167 -31.5 -133.5s-31.333 -79.5 -55 -111.5s-54 -57.5 -91 -76.5s-83.5 -28.5 -139.5 -28.5c-72.667 0 -126.167 18.167 -160.5 54.5s-51.5 90.166 -51.5 161.499
c0 22.667 1.5 45 4.5 67s6.5 44.333 10.5 67c8 43.333 19 84.833 33 124.5s32.833 74.834 56.5 105.501s53 55 88 73s78.167 27 129.5 27c72 0 126.667 -17 164 -51s56 -87.667 56 -161zM536 452c0 49.333 -10.833 86.8359 -32.5 112.503s-58.5 38.5 -110.5 38.5
c-38.667 0 -71 -8.16699 -97 -24.5s-47.667 -37.5 -65 -63.5s-31 -55.167 -41 -87.5s-18 -64.5 -24 -96.5c-4 -19.333 -7.16699 -39 -9.5 -59s-3.5 -39.667 -3.5 -59c0 -46.667 10 -83.667 30 -111s55 -41 105 -41c41.333 0 75.666 7.83301 102.999 23.5
s49.5 36.167 66.5 61.5s30.333 54.166 40 86.499s17.834 65.166 24.501 98.499c4 19.333 7.33301 39.166 10 59.499s4 40.833 4 61.5z" />
    <glyph glyph-name="P" unicode="P" horiz-adv-x="508" 
d="M532 495c0 -34 -5.83203 -64.833 -17.499 -92.5s-27.667 -51.5 -48 -71.5s-45 -35.333 -74 -46s-61.167 -16 -96.5 -16h-141l-49 -252c-2.66699 -11.333 -9.33398 -17 -20.001 -17h-43c-12 0 -16.667 5.66699 -14 17l122 630c2 10.667 9 16 21 16l179 -1
c24.667 0 48 -3.5 70 -10.5s41.333 -17.333 58 -31s29.667 -31 39 -52s14 -45.5 14 -73.5zM453.001 493c0 36 -11.168 61.5 -33.501 76.5s-51.166 22.5 -86.499 22.5l-115 -1l-50 -253h134c46 0 82.667 13.833 110 41.5s41 65.5 41 113.5z" />
    <glyph glyph-name="Q" unicode="Q" horiz-adv-x="641" 
d="M611 410c-1.33301 -17.333 -3.16797 -34.3398 -5.50098 -51.0068s-5.16602 -33.667 -8.49902 -51c-6 -27.333 -13 -54.666 -21 -81.999s-18.5 -53.666 -31.5 -78.999s-29 -48.5 -48 -69.5s-42.167 -38.5 -69.5 -52.5l118 -35c5.33301 -1.33301 8 -4.16602 8 -8.49902
s-1 -8.16602 -3 -11.499l-26 -40c-8 -12 -18 -16 -30 -12l-196 74c-3.33301 -0.666992 -6 -1 -8 -1h-9c-39.333 0 -72.166 5 -98.499 15s-47.5 24.333 -63.5 43s-27.5 41.167 -34.5 67.5s-10.5 55.833 -10.5 88.5c0 22.667 1.5 45.334 4.5 68.001
s6.83301 45.334 11.5 68.001c6.66699 36.667 16.5 74.5 29.5 113.5s31.167 74.5 54.5 106.5s53.166 58.333 89.499 79s81.166 31 134.499 31c44.667 0 81.334 -6.66699 110.001 -20s51 -31.666 67 -54.999s26.5 -51 31.5 -83s6.5 -66.333 4.5 -103zM393.998 602.993
c-34 0 -63.167 -6.6709 -87.5 -20.0039s-45 -31.166 -62 -53.499s-31 -48.166 -42 -77.499s-20.167 -59.666 -27.5 -90.999c-4 -16.667 -7.33301 -33.667 -10 -51s-4.66699 -35 -6 -53c-2.66699 -31.333 -2.66699 -59 0 -83s9 -44.5 19 -61.5s24 -29.833 42 -38.5
s41 -13 69 -13c34.667 0 64.5 6.5 89.5 19.5s46.5 30.333 64.5 52s32.667 47 44 76s21 59.5 29 91.5c3.33301 17.333 6.33301 34.666 9 51.999s5 35 7 53c2.66699 32.667 2.5 61.334 -0.5 86.001s-9.83301 45.334 -20.5 62.001s-25.667 29.167 -45 37.5
s-43.333 12.5 -72 12.5z" />
    <glyph glyph-name="R" unicode="R" horiz-adv-x="526" 
d="M536 502c-1.33301 -53.333 -15.999 -98.167 -43.999 -134.5s-67.333 -62.166 -118 -77.499l83 -273c1.33301 -4.66699 1 -8.66699 -1 -12s-5.66699 -5 -11 -5h-55c-6 0 -10.5 0.833008 -13.5 2.5s-5.16699 5.16699 -6.5 10.5l-31.5 111l-20 69l-11 38.5
c-2.33301 8.33301 -4 14.833 -5 19.5s-2 8.66699 -3 12s-2.16699 8.66602 -3.5 15.999h-138l-50 -261c-2.66699 -12 -9.66699 -18 -21 -18h-43c-11.333 0 -16 5.66699 -14 17l123 630c2 10.667 8.66699 16 20 16l196 -1c22.667 0 44.167 -3 64.5 -9
s38.166 -15.333 53.499 -28s27.333 -29.167 36 -49.5s13 -44.833 13 -73.5zM456.001 496.999c0 18.667 -3.16699 34 -9.5 46s-15 21.5 -26 28.5s-23.833 12 -38.5 15s-30 4.5 -46 4.5h-117l-47 -243h126c46.667 0 84.5 12.5 113.5 37.5s43.833 62.167 44.5 111.5z" />
    <glyph glyph-name="S" unicode="S" horiz-adv-x="526" 
d="M525 594c-1.33301 -3.33301 -3.50488 -6.3291 -6.50488 -8.99609s-7.83301 -3.66699 -14.5 -3c-21.333 3.33301 -46.666 6.5 -75.999 9.5s-59 4.5 -89 4.5c-48 0 -86.5 -11 -115.5 -33s-43.5 -56 -43.5 -102c0 -15.333 2.5 -27.5 7.5 -36.5s12.5 -16.5 22.5 -22.5
s22.667 -10.667 38 -14s33.666 -7 54.999 -11c22.667 -4 45 -8.83301 67 -14.5s41.333 -14.167 58 -25.5s30.167 -26.166 40.5 -44.499s15.5 -42.166 15.5 -71.499c0 -40 -6.66699 -74.5 -20 -103.5s-31.833 -52.833 -55.5 -71.5s-51.5 -32.5 -83.5 -41.5
s-66.667 -13.5 -104 -13.5c-14 0 -30.167 0.666992 -48.5 2s-36.666 3.16602 -54.999 5.49902s-35.666 5.16602 -51.999 8.49902s-29.5 7.33301 -39.5 12c-6.66699 3.33301 -10.167 6.66602 -10.5 9.99902s0.166992 7.33301 1.5 12l11 28
c2.66699 8.66699 9.33398 12 20.001 10c16 -2.66699 32.333 -4.83398 49 -6.50098s32.667 -3 48 -4s29.833 -1.83301 43.5 -2.5s25.5 -1 35.5 -1c24.667 0 47.667 2.66699 69 8s40 13.833 56 25.5s28.667 26.667 38 45s14 40.5 14 66.5c0 14.667 -2.33301 27.167 -7 37.5
s-11.667 19.166 -21 26.499s-21.5 13.333 -36.5 18s-32.833 8.66699 -53.5 12c-24 4 -47 9 -69 15s-41.5 14.333 -58.5 25s-30.333 24.5 -40 41.5s-14.5 39.167 -14.5 66.5c0 36.667 6.16699 68.667 18.5 96s29.333 50 51 68s47.334 31.333 77.001 40s61.834 13 96.501 13
c10 0 22.833 -0.333008 38.5 -1s32.167 -2 49.5 -4s34.666 -4.66699 51.999 -8s32 -7.66602 44 -12.999c6.66699 -2.66699 10.334 -5.83398 11.001 -9.50098s0 -7.83398 -2 -12.501z" />
    <glyph glyph-name="T" unicode="T" horiz-adv-x="481" 
d="M543 608c-2.66699 -11.333 -9.66602 -17 -20.999 -17h-167l-113 -574c-2 -11.333 -8.33301 -17 -19 -17h-43c-12 0 -17 5.66699 -15 17l112 574h-167c-12 0 -17 5.66699 -15 17l8 39c2 10.667 8.66699 16 20 16h414c11.333 0 15.666 -5.33301 12.999 -16z" />
    <glyph glyph-name="U" unicode="U" horiz-adv-x="607" 
d="M546 240c-7.33301 -36.667 -17.8291 -70.167 -31.4961 -100.5s-31.5 -56.333 -53.5 -78s-48.333 -38.5 -79 -50.5s-66.334 -18 -107.001 -18c-43.333 0 -79.333 5.83301 -108 17.5s-51 28.334 -67 50.001s-25.833 47.667 -29.5 78s-1.83398 64.166 5.49902 101.499
l79 405c1.33301 7.33301 3.66602 12.166 6.99902 14.499s8 3.5 14 3.5h43c5.33301 0 9.16602 -1.16699 11.499 -3.5s2.83301 -7.16602 1.5 -14.499l-79 -408c-10.667 -55.333 -6.5 -98 12.5 -128s55.833 -45 110.5 -45c52 0 94.333 14 127 42s54.667 71.667 66 131l79 408
c1.33301 7.33301 3.83301 12.166 7.5 14.499s8.16699 3.5 13.5 3.5h43c6 0 10.167 -1.16699 12.5 -3.5s2.83301 -7.16602 1.5 -14.499z" />
    <glyph glyph-name="V" unicode="V" horiz-adv-x="558" 
d="M289 14c-4.66699 -9.33301 -12.333 -14 -23 -14h-52c-6 0 -10 1 -12 3s-3.66699 5.33301 -5 10l-87 634c-1.33301 10 3 15 13 15h47c6 0 10 -1 12 -3s3.66699 -5.66699 5 -11l25 -186l9.5 -71.5l8.5 -66l7 -52.5c2 -14.667 3.33301 -25 4 -31
c2 -22 4.33301 -42.333 7 -61c2 -16 3.83301 -31.333 5.5 -46s3.16699 -24.667 4.5 -30h2l14.5 29.5l22.5 44.5c8.66699 18 18.667 37.667 30 59c2.66699 6 8 16.5 16 31.5l28 53l34.5 67l37.5 72.5l97 187c4.66699 9.33301 12 14 22 14h53c10 0 11.667 -5.33301 5 -16z" />
    <glyph glyph-name="W" unicode="W" horiz-adv-x="815" 
d="M571 15c-4.66699 -10 -12 -15 -22 -15h-52c-6.66699 0 -11 1 -13 3s-3.33301 5.66699 -4 11l-31 322l-5 57l-3 -1l-27 -59l-155 -319c-2.66699 -5.33301 -5.5 -9 -8.5 -11s-7.16699 -3 -12.5 -3h-55c-9.33301 0 -14.333 4.66699 -15 14l-62 634c-1.33301 10 3 15 13 15
h50c6 0 10 -1 12 -3s3.33301 -5.66699 4 -11l39 -427l9 -102h3l46 98l147 307l-11 122c-1.33301 10.667 2.66699 16 12 16h50c10 0 15.333 -4.66699 16 -14c6 -70.667 12 -135.667 18 -195c2 -25.333 4.33301 -50.5 7 -75.5s5 -48.167 7 -69.5l5 -55
c1.33301 -15.333 2.33301 -26 3 -32l9 -102h2l46 98l15 32.5l26.5 55.5l33.5 70l36 76l94 197c2.66699 5.33301 5.5 9 8.5 11s7.5 3 13.5 3h51c9.33301 0 11.333 -6 6 -18z" />
    <glyph glyph-name="X" unicode="X" horiz-adv-x="522" 
d="M336 341l136 -327c1.33301 -3.33301 1 -6.5 -1 -9.5s-5.33301 -4.5 -10 -4.5h-57c-6 0 -10.167 1 -12.5 3s-4.5 5.66699 -6.5 11l-59 149l-44 111l-80 -105l-121 -155c-4 -5.33301 -7.5 -9 -10.5 -11s-8.16699 -3 -15.5 -3h-68c-4.66699 0 -7.33398 1.5 -8.00098 4.5
s0.666016 6.5 3.99902 10.5l263 326l-125 306c-1.33301 4 -1.16602 7.66699 0.500977 11s4.83398 5 9.50098 5h58c6.66699 0 11 -1.16699 13 -3.5s3.66699 -5.5 5 -9.5l52 -135l40 -107l83 109l103 132c6 8.66699 14.333 13 25 13h64
c5.33301 0.666992 8.5 -0.833008 9.5 -4.5s-0.166992 -7.16699 -3.5 -10.5z" />
    <glyph glyph-name="Y" unicode="Y" horiz-adv-x="507" 
d="M310 296l-53.998 -279c-2.66699 -11.333 -9.33398 -17 -20.001 -17h-43c-12 0 -17 5.66699 -15 17l55 279l-130 353c-1.33301 3.33301 -0.833008 6.33301 1.5 9s5.5 4 9.5 4h55c6 0 9.83301 -1 11.5 -3s3.16699 -5 4.5 -9l60 -175l37 -109l83 113l127 171
c5.33301 8 12.666 12 21.999 12h57c11.333 0 13 -5 5 -15z" />
    <glyph glyph-name="Z" unicode="Z" horiz-adv-x="488" 
d="M530 609c-1.33301 -7.33301 -5.66895 -16 -13.002 -26l-412 -512h306c12 0 16.667 -5.33301 14 -16l-7 -38c-2.66699 -11.333 -9.33398 -17 -20.001 -17h-386c-11.333 -0 -15.666 5.33301 -12.999 16l7 35c0.666992 8.66699 5.33398 18.667 14.001 30l414 510h-286
c-12 0 -16.667 5.66699 -14 17l7 39c2.66699 10.667 9.33398 16 20.001 16h363c10.667 0 15 -4.66699 13 -14z" />
    <glyph glyph-name="bracketleft" unicode="[" horiz-adv-x="253" 
d="M134 680c2 10 9 15 21 15h130c10 0 14 -4.66699 12 -14l-8 -38c-0.666992 -8 -6.33398 -12 -17.001 -12l-76 -1l-129 -666h75c10.667 0 15 -4.66699 13 -14l-8 -38c-1.33301 -8 -6.66602 -12 -15.999 -12h-131c-12 0 -17 5 -15 15z" />
    <glyph glyph-name="backslash" unicode="\" horiz-adv-x="256" 
d="M203 -50c1.33301 -9.33301 -2.66699 -14 -12 -14h-33c-7.33301 0 -11.333 4 -12 12l-74 730c-1.33301 9.33301 2 14 10 14h35c7.33301 0 11 -4 11 -12l75 -730v0z" />
    <glyph glyph-name="bracketright" unicode="]" horiz-adv-x="252" 
d="M156 -85c-2 -10 -9.00098 -15 -21.001 -15h-130c-10 0 -14 4.66699 -12 14l8 37c0.666992 8.66699 6.33398 13 17.001 13h76l129 667h-75c-10.667 0 -15 4.66699 -13 14l8 37c0.666992 8.66699 6 13 16 13h131c12 0 17 -5 15 -15z" />
    <glyph glyph-name="asciicircum" unicode="^" horiz-adv-x="439" 
d="M444 464c3.33301 -7.33301 2.66895 -12.334 -1.99805 -15.001l-20 -13c-8 -5.33301 -13.667 -5.66602 -17 -0.999023l-103 165l-180 -162c-4.66699 -4 -8.16699 -5.83301 -10.5 -5.5s-5.16602 1.83301 -8.49902 4.5l-17 14c-2.66699 2.66699 -3.83398 4.66699 -3.50098 6
s2.16602 3.66602 5.49902 6.99902l170 186c4 4.66699 8 7.83398 12 9.50098s9.66699 2.5 17 2.5h42c8.66699 0 14.667 -1 18 -3s5.66602 -5 6.99902 -9l90 -186v0z" />
    <glyph glyph-name="underscore" unicode="_" horiz-adv-x="500" 
d="M443 -119c-0.666992 -8 -5.99902 -12 -15.999 -12h-486c-8.66699 0 -12.334 3.66699 -11.001 11l5 24c2 9.33301 7.33301 14 16 14h485c10 0 14 -4.66699 12 -14z" />
    <glyph glyph-name="grave" unicode="`" horiz-adv-x="497" 
d="M247 677c-2.66699 2.66699 -4.33203 5.66602 -4.99902 8.99902s1 6 5 8l41 19c8 4 14 3 18 -3l96 -143c1.33301 -2 2.16602 -4.66699 2.49902 -8s-1.5 -5.66602 -5.5 -6.99902l-25 -13c-6.66699 -2.66699 -11.667 -1.66699 -15 3z" />
    <glyph glyph-name="a" unicode="a" horiz-adv-x="517" 
d="M412 17c-2 -11.333 -8.33301 -17 -19 -17h-41c-12 0 -16.667 5.66699 -14 17l7 38c-25.333 -15.333 -52.833 -29.833 -82.5 -43.5s-63.5 -20.5 -101.5 -20.5c-46 0 -78.833 11.5 -98.5 34.5s-29.5 56.833 -29.5 101.5c0 16 1.16699 33.667 3.5 53s5.5 38.666 9.5 57.999
c8 41.333 17.667 78 29 110s26.333 59 45 81s41.334 38.667 68.001 50s59.667 17 99 17c18.667 0 40.167 -3.16699 64.5 -9.5s48.166 -15.5 71.499 -27.5l1 1l3 14c1.33301 6 3.5 9.66699 6.5 11s8.16699 2 15.5 2h37c7.33301 0 12 -1.16699 14 -3.5
s2.33301 -7.16602 1 -14.499zM412 396c-47.333 20.667 -93.334 30.9971 -138.001 30.9971c-22 0 -40.833 -3.16699 -56.5 -9.5s-29.167 -17 -40.5 -32s-21.166 -34.667 -29.499 -59s-15.833 -54.5 -22.5 -90.5c-4 -21.333 -7.16699 -40.666 -9.5 -57.999
s-3.5 -31.666 -3.5 -42.999c0 -31.333 5.83301 -51.666 17.5 -60.999s29.167 -14 52.5 -14c12 0 26 2 42 6s32.333 9 49 15s32.5 12.167 47.5 18.5s27.167 11.833 36.5 16.5z" />
    <glyph glyph-name="b" unicode="b" horiz-adv-x="509" 
d="M207 704c7.33301 0 11.8311 -1.33105 13.498 -3.99805s1.83398 -7.33398 0.500977 -14.001l-42 -217l1 -2c32 11.333 60.167 19.166 84.5 23.499s45.5 6.5 63.5 6.5c29.333 0 54 -3.33301 74 -10s36 -16.5 48 -29.5s20.667 -28.667 26 -47s8 -39.166 8 -62.499
c0 -14.667 -1 -31 -3 -49s-4.66699 -35.333 -8 -52c-7.33301 -41.333 -16.5 -78 -27.5 -110s-25.833 -58.833 -44.5 -80.5s-42.167 -38 -70.5 -49s-63.833 -16.5 -106.5 -16.5c-15.333 0 -31.666 0.5 -48.999 1.5s-34.5 2.5 -51.5 4.5s-32.833 4.5 -47.5 7.5
s-27.334 6.5 -38.001 10.5c-10 4 -15.5 9.83301 -16.5 17.5s-0.833008 15.167 0.5 22.5l123 631c1.33301 7.33301 3.33301 12.166 6 14.499s7.33398 3.5 14.001 3.5h42zM401.998 334.002c0 33.333 -6.49902 57.334 -19.499 72.001s-34.5 22 -64.5 22
c-21.333 0 -45 -1.83301 -71 -5.5s-52.333 -9.16699 -79 -16.5l-65 -333c19.333 -3.33301 40 -5.83301 62 -7.5s43.667 -2.5 65 -2.5c18 0 34.333 1.16699 49 3.5s28.167 8.16602 40.5 17.499s23.666 22.833 33.999 40.5s19.5 42.167 27.5 73.5c6 22 11 45.5 15 70.5
s6 46.833 6 65.5z" />
    <glyph glyph-name="c" unicode="c" horiz-adv-x="425" 
d="M447 430c-2 -5.33301 -5.33301 -8.49609 -10 -9.49609s-10.667 -1.16699 -18 -0.5l-66.5 6.5c-24.333 2.33301 -45.833 3.5 -64.5 3.5c-22.667 0 -42.167 -3 -58.5 -9s-30.5 -16 -42.5 -30s-22.167 -32.667 -30.5 -56s-15.833 -52.333 -22.5 -87
c-3.33301 -19.333 -6 -36.833 -8 -52.5s-3 -30.167 -3 -43.5c-0.666992 -34.667 6.5 -58.667 21.5 -72s38.833 -20 71.5 -20c8 0 17.833 0.333008 29.5 1s24 1.5 37 2.5l38.5 3c12.667 1 24 2.16699 34 3.5c6 0.666992 10.833 0.333984 14.5 -0.999023s5.5 -5.33301 5.5 -12
v-21c0 -9.33301 -5 -16.333 -15 -21c-20.667 -8.66699 -45.5 -14.667 -74.5 -18s-56.167 -5 -81.5 -5c-33.333 0 -60.5 4.16699 -81.5 12.5s-37.667 19.166 -50 32.499s-20.833 28.666 -25.5 45.999s-7 35 -7 53c0 16.667 1.33301 35.5 4 56.5s6 41.5 10 61.5
c6 32 13.5 62.667 22.5 92s22.167 55.166 39.5 77.499s40 40.166 68 53.499s64.667 20 110 20c10 0 22 -0.333008 36 -1s28.167 -1.83398 42.5 -3.50098s28.333 -4 42 -7s25.5 -6.83301 35.5 -11.5c4.66699 -2 7.16699 -5 7.5 -9s-0.166992 -8 -1.5 -12z" />
    <glyph glyph-name="d" unicode="d" horiz-adv-x="510" 
d="M418 17c-2.66699 -11.333 -9.33008 -16.999 -19.9971 -16.999h-42c-5.33301 0 -9.33301 1 -12 3s-3.33398 6.66699 -2.00098 14l8 39c-0.666992 -0.666992 -1.33398 -1 -2.00098 -1l-33.5 -18c-13.667 -7.33301 -28.834 -14.333 -45.501 -21s-34 -12.334 -52 -17.001
s-35.333 -7 -52 -7c-46 0 -78.5 11.667 -97.5 35s-28.5 58 -28.5 104c0 24.667 2.16699 50.667 6.5 78s9.16602 53 14.499 77c8 34 17.833 64.167 29.5 90.5s26.5 48.333 44.5 66s40 31.167 66 40.5s57.333 14 94 14c18 0 38.667 -2 62 -6s47.666 -11.333 72.999 -22l1 1
l42 216c1.33301 6.66699 3.33301 11.5 6 14.5s7.66699 4.5 15 4.5h42c6.66699 0 10.834 -1.33301 12.501 -4s1.83398 -7.66699 0.500977 -15zM417.004 406.001c-25.333 8 -49.499 13.667 -72.499 17s-45.167 5 -66.5 5c-18.667 0 -35.167 -2.5 -49.5 -7.5
s-27 -13.167 -38 -24.5s-20.5 -26 -28.5 -44s-15.333 -40.333 -22 -67c-2.66699 -10.667 -5.33398 -22.334 -8.00098 -35.001s-5 -25.5 -7 -38.5s-3.66699 -26 -5 -39s-2 -25.167 -2 -36.5c0 -31.333 5.5 -51.666 16.5 -60.999s27.833 -14 50.5 -14
c12 0 26.167 2.16699 42.5 6.5s32.833 9.5 49.5 15.5s32.5 12.167 47.5 18.5s27.167 11.833 36.5 16.5z" />
    <glyph glyph-name="e" unicode="e" horiz-adv-x="486" 
d="M44 132c0 22 2.33203 44.332 6.99902 66.999s9.66699 44.667 15 66c4.66699 22 12 46.5 22 73.5s24.833 52.167 44.5 75.5s45 42.833 76 58.5s70.5 23.5 118.5 23.5c20.667 0 40.334 -2.5 59.001 -7.5s35 -12.5 49 -22.5s25 -22.333 33 -37s12 -31.667 12 -51
c0 -28 -6 -52.333 -18 -73s-27.667 -38.334 -47 -53.001s-41.5 -26.667 -66.5 -36s-50.5 -16.666 -76.5 -21.999s-51.667 -9.16602 -77 -11.499s-47.666 -3.5 -66.999 -3.5c-4 -18 -6 -34.333 -6 -49c0 -18 3.5 -31.833 10.5 -41.5s16 -16.5 27 -20.5s23.333 -6.33301 37 -7
s27.167 -1 40.5 -1c8 0 17.833 0.333008 29.5 1s23.834 1.5 36.501 2.5l38.5 3c13 1 24.5 2.16699 34.5 3.5c6 0.666992 10.833 0.333984 14.5 -0.999023s5.5 -5.33301 5.5 -12v-21c0 -9.33301 -5 -16.333 -15 -21c-12 -4.66699 -25 -8.5 -39 -11.5s-28.5 -5.33301 -43.5 -7
s-29.833 -2.83398 -44.5 -3.50098s-28.667 -1 -42 -1c-26 0 -49.333 2.16699 -70 6.5s-38.334 11.833 -53.001 22.5s-25.834 25 -33.501 43s-11.5 40.667 -11.5 68zM402.999 365.999c0 22.667 -8.16504 38.666 -24.498 47.999s-35.833 14 -58.5 14
c-32 0 -58 -5.16699 -78 -15.5s-36.333 -23.166 -49 -38.499s-22 -31.5 -28 -48.5s-11 -31.833 -15 -44.5l-10 -39c13.333 0 29.166 0.833008 47.499 2.5s37.166 4.16699 56.499 7.5s38.5 7.83301 57.5 13.5s36 13.167 51 22.5s27.167 20.333 36.5 33s14 27.667 14 45z" />
    <glyph glyph-name="f" unicode="f" horiz-adv-x="335" 
d="M130 -12c-4.66699 -24.667 -11.167 -46.998 -19.5 -66.998s-19.5 -37 -33.5 -51s-31.333 -24.833 -52 -32.5s-45.667 -11.5 -75 -11.5c-10 0 -24.833 1.33301 -44.5 4s-38.834 8.33398 -57.501 17.001c-4.66699 2 -7.16699 5 -7.5 9s0.166992 8 1.5 12l8 23
c2.66699 7.33301 5.16699 11.5 7.5 12.5s9.16602 0.5 20.499 -1.5c16 -3.33301 30.333 -5.5 43 -6.5s22.667 -1.5 30 -1.5c16 0 29.667 1.66699 41 5s21 8.66602 29 15.999s14.667 16.833 20 28.5s9.66602 26.167 12.999 43.5l88 437h-49
c-11.333 0 -15.666 5.66699 -12.999 17l5 28c2 12 9 18 21 18h50l11 57c4.66699 24.667 11.167 47 19.5 67s19.5 37 33.5 51s31.333 24.833 52 32.5s45.667 11.5 75 11.5c4.66699 0 11.167 -0.333008 19.5 -1s17.166 -1.66699 26.499 -3s19 -3.5 29 -6.5s19 -6.5 27 -10.5
c4.66699 -2.66699 7.16699 -5.83398 7.5 -9.50098s-0.166992 -7.5 -1.5 -11.5l-8 -23c-2.66699 -6.66699 -5.66699 -10.5 -9 -11.5s-9.66602 -0.833008 -18.999 0.5c-16 3.33301 -30.333 5.5 -43 6.5s-22.667 1.5 -30 1.5c-32 0 -55.333 -6.83301 -70 -20.5
s-25.667 -37.834 -33 -72.501l-13 -58h135c6.66699 0 10.834 -1.5 12.501 -4.5s1.83398 -7.16699 0.500977 -12.5l-5 -29c-2 -11.333 -9 -17 -21 -17h-135z" />
    <glyph glyph-name="g" unicode="g" horiz-adv-x="511" 
d="M421 -2c-5.33301 -26.667 -12.1699 -51.1709 -20.5029 -73.5039s-20.666 -41.666 -36.999 -57.999s-38 -29 -65 -38s-61.833 -13.5 -104.5 -13.5c-12.667 0 -26.167 0.333008 -40.5 1s-28.666 1.83398 -42.999 3.50098s-28 4 -41 7s-24.5 6.83301 -34.5 11.5
c-5.33301 2.66699 -8.16602 5.83398 -8.49902 9.50098s0.166992 7.5 1.5 11.5l9 22c2.66699 6 6 9.66699 10 11s9.66699 1.33301 17 0c20.667 -3.33301 44 -5.66602 70 -6.99902s49.333 -2 70 -2c22.667 0 42 1.83301 58 5.5s29.333 9.5 40 17.5s19 18.167 25 30.5
s10.667 27.166 14 44.499l7 38l-1 2c-32 -11.333 -60 -19.166 -84 -23.499s-45 -6.5 -63 -6.5c-30 0 -54.833 3.5 -74.5 10.5s-35.334 17.333 -47.001 31s-20 30.167 -25 49.5s-7.5 41.333 -7.5 66c0 21.333 1.66699 44.5 5 69.5s7.66602 48.167 12.999 69.5
c8 32.667 18 62 30 88s27.333 48 46 66s41.334 31.833 68.001 41.5s58.667 14.5 96 14.5c15.333 0 31.5 -0.666992 48.5 -2s33.833 -3 50.5 -5s32.334 -4.5 47.001 -7.5s27.667 -6.16699 39 -9.5c10.667 -3.33301 16.5 -9 17.5 -17s0.833008 -15.667 -0.5 -23z
M423.996 414.996c-18 2.66699 -38.001 5.16699 -60.001 7.5s-43.667 3.5 -65 3.5c-16.667 0 -32.5 -1.5 -47.5 -4.5s-29 -9.33301 -42 -19s-24.667 -23.334 -35 -41.001s-19.5 -41.167 -27.5 -70.5c-5.33301 -20 -10 -42.667 -14 -68s-6 -48.666 -6 -69.999
c0 -34 6.5 -58.167 19.5 -72.5s34.5 -21.5 64.5 -21.5c18.667 0 41.334 2 68.001 6s53.667 9.66699 81 17z" />
    <glyph glyph-name="h" unicode="h" horiz-adv-x="512" 
d="M417 17c-2 -11.333 -9.00195 -16.998 -21.002 -16.998h-42c-11.333 0 -15.666 5.66699 -12.999 17l58 296c4 22.667 6.16699 41.5 6.5 56.5s-1.66699 26.833 -6 35.5s-11.333 14.667 -21 18s-22.167 5 -37.5 5c-12 0 -26.667 -2.33301 -44 -7s-34.5 -10 -51.5 -16
s-33.167 -12.167 -48.5 -18.5s-27 -11.5 -35 -15.5l-69 -354c-2 -11.333 -9 -17 -21 -17h-41c-11.333 0 -15.666 5.66699 -12.999 17l130 671c2.66699 11.333 9.33398 17 20.001 17h41c12 0 17 -5.66699 15 -17l-50 -254h2c9.33301 5.33301 21.166 11.666 35.499 18.999
s30 14.166 47 20.499s34.667 11.833 53 16.5s36.166 7 53.499 7c32 0 56.667 -4.66699 74 -14s29.5 -22.166 36.5 -38.499s9.83301 -35.833 8.5 -58.5s-4.66602 -47.334 -9.99902 -74.001z" />
    <glyph glyph-name="i" unicode="i" horiz-adv-x="223" 
d="M237 633c0 -17.333 -4.16797 -31.834 -12.501 -43.501s-22.166 -17.5 -41.499 -17.5c-10 0 -18.5 1.83301 -25.5 5.5s-10.5 11.167 -10.5 22.5c0 18 4.16699 32.5 12.5 43.5s21.833 16.5 40.5 16.5c10 0 18.667 -1.66699 26 -5s11 -10.666 11 -21.999zM111.999 16.999
c-2 -11.333 -8.33203 -17 -18.999 -17h-41c-12 0 -16.667 5.66699 -14 17l88 453c1.33301 7.33301 3.66602 12 6.99902 14s8 3 14 3h40c11.333 0 16 -5.66699 14 -17z" />
    <glyph glyph-name="j" unicode="j" horiz-adv-x="240" 
d="M248 633c0 -17.333 -4.16797 -31.834 -12.501 -43.501s-22.166 -17.5 -41.499 -17.5c-10 0 -18.5 1.83301 -25.5 5.5s-10.5 11.167 -10.5 22.5c0 18 4.16699 32.5 12.5 43.5s21.833 16.5 40.5 16.5c10 0 18.667 -1.66699 26 -5s11 -10.666 11 -21.999zM105.999 -76.001
c-3.33301 -16 -7.66602 -30.834 -12.999 -44.501s-13 -25.167 -23 -34.5s-22.667 -16.666 -38 -21.999s-34.333 -8 -57 -8c-16 0 -33.5 1.5 -52.5 4.5s-34.833 7.5 -47.5 13.5c-7.33301 3.33301 -9 9.66602 -5 18.999l8 22c2.66699 6 5.16699 9.83301 7.5 11.5
s7.83301 1.83398 16.5 0.500977c9.33301 -1.33301 20.833 -2.33301 34.5 -3s24.834 -1 33.501 -1c20.667 0 35.5 4.66699 44.5 14s15.167 23 18.5 41l104 533c1.33301 7.33301 3.66602 12 6.99902 14s7.66602 3 12.999 3h41c11.333 0 16 -5.66699 14 -17z" />
    <glyph glyph-name="k" unicode="k" horiz-adv-x="446" 
d="M274 281l125 -263c1.33301 -4 0.666016 -8 -2.00098 -12s-6.66699 -6 -12 -6h-47c-6 0 -10.333 1.16699 -13 3.5s-5 5.83301 -7 10.5l-100 214l-95 -94l-23 -117c-2.66699 -11.333 -9.66699 -17 -21 -17h-41c-11.333 0 -15.666 5.66699 -12.999 17l130 671
c2.66699 11.333 9.33398 17 20.001 17h41c12 0 16.667 -5.66699 14 -17l-86 -441l231 231c1.33301 1.33301 3.33301 3 6 5c2 1.33301 4 2.5 6 3.5s4.66699 1.5 8 1.5h66c5.33301 0 8.66602 -2 9.99902 -6s0 -8.33301 -4 -13z" />
    <glyph glyph-name="l" unicode="l" horiz-adv-x="237" 
d="M181 21c-0.666992 -8 -5.00195 -13.667 -13.002 -17c-9.33301 -3.33301 -19 -5.66602 -29 -6.99902s-19.333 -2 -28 -2c-16.667 0 -29.834 2.16699 -39.501 6.5s-16.834 10.166 -21.501 17.499s-7.16699 16 -7.5 26s0.5 20.667 2.5 32l119 610
c2.66699 11.333 9.33398 17 20.001 17h40c6 0 10.333 -1 13 -3s3.33398 -6.66699 2.00098 -14l-114 -585c-3.33301 -17.333 -1.66602 -27.833 5.00098 -31.5s19.334 -5.5 38.001 -5.5c6 0 10 -0.666992 12 -2s3 -4 3 -8z" />
    <glyph glyph-name="m" unicode="m" horiz-adv-x="810" 
d="M716 17c-2.66699 -11.333 -9.66797 -16.9971 -21.001 -16.9971h-42c-11.333 0 -16 5.66699 -14 17l59 301c8 41.333 8.16699 70 0.5 86s-26.5 24 -56.5 24c-12 0 -25.667 -2.16699 -41 -6.5s-31 -9.5 -47 -15.5s-31.167 -12.333 -45.5 -19l-36.5 -17
c0 -2 -0.333008 -5.33301 -1 -10s-1.5 -9.83398 -2.5 -15.501s-1.83301 -11.167 -2.5 -16.5s-1.33398 -9.33301 -2.00098 -12l-58 -299c-2.66699 -11.333 -9.66699 -17 -21 -17h-44c-10 0 -13.667 5.66699 -11 17l60 308c6 32.667 5.83301 58 -0.5 76s-24.833 27 -55.5 27
c-11.333 0 -24 -1.83301 -38 -5.5s-28.667 -8.33398 -44 -14.001s-30.666 -11.834 -45.999 -18.501l-42 -19l-69 -354c-2 -11.333 -8.66699 -17 -20 -17h-42c-10.667 0 -15 5.66699 -13 17l88 453c2.66699 11.333 9.33398 17 20.001 17h41c12 0 16.667 -5.66699 14 -17
l-7 -35h2c11.333 6.66699 23.833 13.667 37.5 21s28.167 14 43.5 20s31.166 11 47.499 15s32.5 6 48.5 6c36.667 0 63.834 -6.16699 81.501 -18.5s28.834 -30.166 33.501 -53.499c30 18 61.5 34.5 94.5 49.5s66.5 22.5 100.5 22.5c30.667 0 54.667 -4.33301 72 -13
s29.666 -20.834 36.999 -36.501s10.5 -34.5 9.5 -56.5s-4.16699 -46.333 -9.5 -73z" />
    <glyph glyph-name="n" unicode="n" horiz-adv-x="505" 
d="M415 17c-2 -11.333 -9.00293 -16.998 -21.0029 -16.998h-42c-11.333 0 -15.666 5.66699 -12.999 17l58 296c4 22.667 6.16699 41.5 6.5 56.5s-1.66699 26.833 -6 35.5s-11.333 14.667 -21 18s-22.167 5 -37.5 5c-12 0 -26.667 -2.33301 -44 -7s-34.5 -10 -51.5 -16
s-33.167 -12.167 -48.5 -18.5s-27 -11.5 -35 -15.5l-69 -354c-2 -11.333 -9 -17 -21 -17h-41c-11.333 0 -15.666 5.66699 -12.999 17l88 453c2.66699 11.333 9.33398 17 20.001 17h41c6 0 10.167 -1 12.5 -3s2.83301 -6.66699 1.5 -14l-7 -36h2
c9.33301 5.33301 21.166 11.666 35.499 18.999s30 14.166 47 20.499s34.667 11.833 53 16.5s36.166 7 53.499 7c32.667 0 57.667 -4.66699 75 -14s29.333 -22.166 36 -38.499s9.33398 -35.833 8.00098 -58.5s-4.66602 -47.334 -9.99902 -74.001z" />
    <glyph glyph-name="o" unicode="o" horiz-adv-x="503" 
d="M471 338c0 -14.667 -1.00098 -29.166 -3.00098 -43.499s-4.33301 -28.5 -7 -42.5c-7.33301 -37.333 -16.166 -72 -26.499 -104s-24.666 -59.5 -42.999 -82.5s-41.833 -41 -70.5 -54s-64.667 -19.5 -108 -19.5c-56 0 -99 12.5 -129 37.5s-45 66.167 -45 123.5
c0 16.667 1 33.167 3 49.5s4.66699 32.833 8 49.5c6.66699 34 15.5 65.833 26.5 95.5s25.667 55.667 44 78s41.333 39.833 69 52.5s61.5 19 101.5 19c27.333 0 52.166 -2.83301 74.499 -8.5s41.333 -14.834 57 -27.501s27.667 -29.167 36 -49.5s12.5 -44.833 12.5 -73.5z
M392.999 333.001c0 36.667 -9.16699 61.668 -27.5 75.001s-44.5 20 -78.5 20c-29.333 0 -53.333 -5 -72 -15s-33.667 -23.333 -45 -40s-20.166 -36 -26.499 -58s-11.833 -45.333 -16.5 -70c-3.33301 -14.667 -6 -29.334 -8 -44.001s-3 -29.667 -3 -45
c0 -34.667 8.16699 -59 24.5 -73s41.5 -21 75.5 -21c30 0 54.667 4.66699 74 14s35 22.166 47 38.499s21.167 35.666 27.5 57.999s12.166 46.5 17.499 72.5c3.33301 14.667 6 29.334 8 44.001s3 29.334 3 44.001z" />
    <glyph glyph-name="p" unicode="p" horiz-adv-x="505" 
d="M471 203c-8 -34.667 -17.501 -65.168 -28.501 -91.501s-25.333 -48.5 -43 -66.5s-39.334 -31.5 -65.001 -40.5s-56.834 -13.5 -93.501 -13.5c-18.667 0 -40.167 2 -64.5 6s-49.166 11.333 -74.499 22l-1 -1l-34 -175c-1.33301 -6.66699 -3.33301 -11.5 -6 -14.5
s-7.66699 -4.5 -15 -4.5h-41c-7.33301 0 -11.666 1.33301 -12.999 4s-1.33301 7.66699 0 15l121 627c2.66699 11.333 9.33398 17 20.001 17h42c11.333 0 16 -5.66699 14 -17l-8 -38c0.666992 0.666992 1.33398 1 2.00098 1l34 18c14 7.33301 29.333 14.333 46 21
s34 12.334 52 17.001s35.333 7 52 7c46 0 78.333 -11.667 97 -35s28 -58 28 -104c0 -10 -0.5 -21.5 -1.5 -34.5s-2.5 -26.5 -4.5 -40.5s-4.33301 -27.833 -7 -41.5s-5.33398 -26.167 -8.00098 -37.5zM412.999 347.999c0.666992 32 -4.49707 53.168 -15.4971 63.501
s-28.167 15.5 -51.5 15.5c-12 0 -26.167 -2 -42.5 -6s-32.833 -9 -49.5 -15s-32.334 -12.333 -47.001 -19l-37 -17l-56 -288c25.333 -8 49.666 -13.667 72.999 -17s45.666 -5 66.999 -5c18.667 0 35.167 2.5 49.5 7.5s27 13.167 38 24.5s20.5 26 28.5 44
s15.333 40.333 22 67c2.66699 10.667 5.16699 22.5 7.5 35.5s4.5 26 6.5 39s3.66699 25.667 5 38s2 23.166 2 32.499z" />
    <glyph glyph-name="q" unicode="q" horiz-adv-x="511" 
d="M391 -157c-1.33301 -7.33301 -3.33008 -12.334 -5.99707 -15.001s-7.33398 -4 -14.001 -4h-42c-7.33301 0 -11.833 1.5 -13.5 4.5s-1.83398 7.83301 -0.500977 14.5l34 177l-1 1c-32 -11.333 -60.167 -19 -84.5 -23s-45.5 -6 -63.5 -6c-57.333 0 -97.333 12.5 -120 37.5
s-34 61.167 -34 108.5c0 22.667 1.83301 47.334 5.5 74.001s8.16699 50.667 13.5 72c8 34 18 64.167 30 90.5s27.167 48.5 45.5 66.5s40.666 31.833 66.999 41.5s57.5 14.5 93.5 14.5c15.333 0 31.833 -0.5 49.5 -1.5s35 -2.5 52 -4.5s33.167 -4.5 48.5 -7.5
s28.333 -6.5 39 -10.5c10 -3.33301 15.5 -9 16.5 -17s0.833008 -15.667 -0.5 -23zM425.003 414.999c-19.333 3.33301 -39.833 6.00391 -61.5 8.00391s-43.167 3 -64.5 3c-16.667 0 -32.5 -1.5 -47.5 -4.5s-29 -9.33301 -42 -19s-24.667 -23.334 -35 -41.001
s-19.5 -40.834 -27.5 -69.501c-2.66699 -10.667 -5.16699 -22.167 -7.5 -34.5s-4.5 -24.833 -6.5 -37.5s-3.5 -25.334 -4.5 -38.001s-1.5 -24.334 -1.5 -35.001c0 -58.667 28 -88 84 -88c19.333 0 42.333 2 69 6s53.667 9.66699 81 17z" />
    <glyph glyph-name="r" unicode="r" horiz-adv-x="321" 
d="M365 434c0 -12 -5.33203 -18.666 -15.999 -19.999c-14 -2.66699 -29 -6.16699 -45 -10.5l-46.5 -13c-15 -4.33301 -28.833 -8.66602 -41.5 -12.999s-22.334 -8.16602 -29.001 -11.499l-67 -349c-2.66699 -11.333 -9.66699 -17 -21 -17h-43
c-10.667 0 -14.667 5.66699 -12 17l88 453c2 11.333 8.33301 17 19 17h42c12 0 17 -5.66699 15 -17l-8 -41l1 -2c7.33301 5.33301 17.166 11.166 29.499 17.499s25.5 12.666 39.5 18.999s28.5 12 43.5 17s29.167 8.83301 42.5 11.5
c6.66699 1.33301 10.834 1.16602 12.501 -0.500977s2.5 -5.5 2.5 -11.5l-6 -46v0z" />
    <glyph glyph-name="s" unicode="s" horiz-adv-x="436" 
d="M417 430c-2 -5.33301 -5.33105 -8.66895 -9.99805 -10.002s-10.667 -1.66602 -18 -0.999023l-63 6.5c-22 2.33301 -43.333 3.5 -64 3.5c-16 0 -30.833 -1.16699 -44.5 -3.5s-25.5 -6.5 -35.5 -12.5s-17.833 -14 -23.5 -24s-8.5 -23 -8.5 -39
c0 -11.333 2.66699 -20.666 8 -27.999s12.166 -13.5 20.499 -18.5s18 -9 29 -12s22.167 -5.5 33.5 -7.5c10.667 -2 24.167 -5.16699 40.5 -9.5s32.166 -11 47.499 -20s28.333 -21.167 39 -36.5s16 -35 16 -59c0 -33.333 -5.66699 -60.666 -17 -81.999
s-26.666 -38.333 -45.999 -51s-41.833 -21.5 -67.5 -26.5s-52.5 -7.5 -80.5 -7.5c-12.667 0 -26.5 0.5 -41.5 1.5s-29.5 2.5 -43.5 4.5s-27.167 4.33301 -39.5 7s-22.5 6 -30.5 10c-8 4.66699 -10.333 11.667 -7 21l8 21c2.66699 6.66699 6 10.667 10 12
s9 1.66602 15 0.999023c10 -1.33301 21.167 -2.66602 33.5 -3.99902s24.833 -2.5 37.5 -3.5s25 -1.83301 37 -2.5s22 -1 30 -1c17.333 0 33.5 1.33301 48.5 4s28.167 7.16699 39.5 13.5s20.166 15.166 26.499 26.499s9.5 26 9.5 44c0 24 -8.33301 40.833 -25 50.5
s-36.667 16.5 -60 20.5c-14 2 -29.667 5.16699 -47 9.5s-33.5 10.833 -48.5 19.5s-27.667 20.334 -38 35.001s-15.5 33.334 -15.5 56.001c0 29.333 5.33301 54.166 16 74.499s25.167 36.666 43.5 48.999s39.333 21.333 63 27s48.5 8.5 74.5 8.5
c9.33301 0 20.833 -0.333008 34.5 -1s27.667 -2 42 -4s28 -4.5 41 -7.5s24.167 -6.5 33.5 -10.5c4.66699 -2 7.16699 -4.83301 7.5 -8.5s-0.166992 -7.5 -1.5 -11.5z" />
    <glyph glyph-name="t" unicode="t" horiz-adv-x="316" 
d="M291 31c-0.666992 -8.66699 -4.66797 -15.001 -12.001 -19.001c-6.66699 -3.33301 -15.167 -6.16602 -25.5 -8.49902s-21 -4.33301 -32 -6s-21.833 -3 -32.5 -4s-19.667 -1.5 -27 -1.5c-21.333 0 -38.5 2.5 -51.5 7.5s-22.667 12.167 -29 21.5s-10 20.5 -11 33.5
s0.166992 27.5 3.5 43.5l64 326h-55c-11.333 0 -16 5.66699 -14 17l5 28c2.66699 12 9.66699 18 21 18h56l21 108c1.33301 6 3.83301 10.333 7.5 13s8.16699 4.66699 13.5 6l42 11c11.333 3.33301 16 -1.66699 14 -15l-24 -123h111c7.33301 0 11.833 -1.5 13.5 -4.5
s1.83398 -7.16699 0.500977 -12.5l-6 -29c-1.33301 -6 -3.16602 -10.333 -5.49902 -13s-7.16602 -4 -14.499 -4h-111l-59 -303c-4.66699 -23.333 -3.5 -39 3.5 -47s25.5 -12 55.5 -12c5.33301 0 14.666 0.5 27.999 1.5s23.666 1.83301 30.999 2.5
c8 0.666992 13.333 0.166992 16 -1.5s4 -5.16699 4 -10.5z" />
    <glyph glyph-name="u" unicode="u" horiz-adv-x="512" 
d="M420 17c-2 -11.333 -8.66699 -17.002 -20 -17.002h-41c-12 0 -16.667 5.66699 -14 17l7 37c0 0.666992 -0.666992 0.333984 -2 -0.999023c-9.33301 -5.33301 -21.166 -11.666 -35.499 -18.999s-30 -14.166 -47 -20.499s-34.667 -11.833 -53 -16.5s-36.166 -7 -53.499 -7
c-32.667 0 -57.834 4.66699 -75.501 14s-30 22.166 -37 38.499s-9.83301 35.833 -8.5 58.5s4.66602 47.334 9.99902 74.001l57 295c2.66699 11.333 9.66699 17 21 17h42c11.333 0 16 -5.66699 14 -17l-58 -296c-4.66699 -23.333 -7 -42.333 -7 -57
s2.33301 -26.334 7 -35.001s11.834 -14.667 21.501 -18s22.5 -5 38.5 -5c12 0 26.5 2.33301 43.5 7s34 10 51 16s33.167 12.333 48.5 19s27 12 35 16l69 353c2.66699 11.333 9.66699 17 21 17h41c11.333 0 15.666 -5.66699 12.999 -17z" />
    <glyph glyph-name="v" unicode="v" horiz-adv-x="463" 
d="M234 13c-4.66699 -8.66699 -11 -13 -19 -13h-44c-5.33301 0 -8.66602 1 -9.99902 3s-2.66602 5 -3.99902 9l-85 459c-1.33301 4 -1 7.66699 1 11s5.33301 5 10 5h50c5.33301 0 8.66602 -1.16699 9.99902 -3.5s2.66602 -5.83301 3.99902 -10.5l46 -275l15 -104h2l55 105
l153 275c4 8.66699 10 13 18 13h57c8 0 9.33301 -5 4 -15z" />
    <glyph glyph-name="w" unicode="w" horiz-adv-x="688" 
d="M477 13c-4.66699 -8.66699 -10.9961 -12.999 -18.9961 -12.999h-43c-5.33301 0 -8.83301 1 -10.5 3s-3.16699 5 -4.5 9l-29 203l-10 72l-28 -54l-116 -220c-4.66699 -8.66699 -11 -13 -19 -13h-43c-5.33301 0 -8.83301 1 -10.5 3s-3.16699 5 -4.5 9l-68 459
c-1.33301 4 -1 7.66699 1 11s5.33301 5 10 5h52c5.33301 0 8.66602 -1.16699 9.99902 -3.5s2.33301 -5.83301 3 -10.5l34 -259c2 -18.667 4 -35.667 6 -51c1.33301 -13.333 2.5 -26 3.5 -38s1.83301 -19.333 2.5 -22l2 2c1.33301 3.33301 4.83301 11 10.5 23l18.5 38l25 50
l93 181l-11 74c-1.33301 4 -1 7.66699 1 11s5.33301 5 10 5h51c5.33301 0 8.66602 -1.16699 9.99902 -3.5s2.66602 -5.83301 3.99902 -10.5l33 -253c2 -19.333 4 -37.333 6 -54c1.33301 -14 2.5 -27.333 3.5 -40s1.83301 -20.334 2.5 -23.001c0 0.666992 0.333008 1 1 1
s1 0.333008 1 1c1.33301 3.33301 5.16602 11.333 11.499 24l20.5 40l26 54l129 251c4 8.66699 10 13 18 13h56c8 0 9.33301 -5 4 -15z" />
    <glyph glyph-name="x" unicode="x" horiz-adv-x="433" 
d="M274 247l114 -231c2 -4 1.83301 -7.66699 -0.5 -11s-5.83301 -5 -10.5 -5h-59c-5.33301 0 -8.5 1.16699 -9.5 3.5s-2.5 5.5 -4.5 9.5l-83 178l-150 -178l-8 -9.5c-2 -2.33301 -5.66699 -3.5 -11 -3.5h-70c-4.66699 0 -7.5 1.66699 -8.5 5s0.166992 7 3.5 11l204 232
l-108 223c-1.33301 4 -1 7.66699 1 11s5.33301 5 10 5h58c5.33301 0 8.5 -1.16699 9.5 -3.5s2.5 -5.5 4.5 -9.5l77 -170l144 170c3.33301 4 5.83301 7.16699 7.5 9.5s5.16699 3.5 10.5 3.5h70c4.66699 0 7.5 -1.66699 8.5 -5s-0.166992 -7 -3.5 -11z" />
    <glyph glyph-name="y" unicode="y" horiz-adv-x="466" 
d="M147 -162c-3.33301 -4.66699 -6.33008 -8.16699 -8.99707 -10.5s-7.33398 -3.5 -14.001 -3.5h-48c-4.66699 0 -7.5 1.5 -8.5 4.5s-0.166992 6.83301 2.5 11.5l91 161l-84 470c-0.666992 4 -0.166992 7.66699 1.5 11s4.83398 5 9.50098 5h49
c5.33301 0 8.66602 -1.16699 9.99902 -3.5s2.66602 -5.83301 3.99902 -10.5l50 -297l12 -85c2.66699 4 6.5 10.833 11.5 20.5s10.167 19.167 15.5 28.5l19 37l160 297c4 8.66699 10 13 18 13h57c9.33301 0 10.666 -5 3.99902 -15z" />
    <glyph glyph-name="z" unicode="z" horiz-adv-x="433" 
d="M439 440c-2.66699 -10.667 -8 -20 -16 -28l-319 -344h248c12 0 17 -5.33301 15 -16l-7 -35c-2 -11.333 -8.66699 -17 -20 -17h-332c-10 0 -14 4.66699 -12 14l5 26c2 11.333 6.66699 21 14 29l330 353h-239c-11.333 0 -16 5.66699 -14 17l7 33c2 10 8.33301 15 19 15h312
c5.33301 0 9.5 -0.666992 12.5 -2s3.83301 -5.33301 2.5 -12z" />
    <glyph glyph-name="braceleft" unicode="{" horiz-adv-x="266" 
d="M176 -92c-2 -8.66699 -7.66797 -13.6592 -17.001 -14.9922c-10 -2 -20 -3.33301 -30 -4s-17.667 -1 -23 -1c-16 0 -28.833 2.66699 -38.5 8s-16.834 12.333 -21.501 21s-7.16699 18.5 -7.5 29.5s0.5 22.5 2.5 34.5l39 198c2 11.333 3.66699 22.166 5 32.499
s1.33301 19.666 0 27.999s-4.83301 15.666 -10.5 21.999s-13.834 11.166 -24.501 14.499c-8 2 -11 6.33301 -9 13l4 21c1.33301 6 5.66602 10 12.999 12c12.667 3.33301 22.834 8.16602 30.501 14.499s14 13.833 19 22.5s9 18.167 12 28.5s5.5 21.166 7.5 32.499l36 189
c2.66699 12 6.33398 23.5 11.001 34.5s11 21 19 30s17.833 16.167 29.5 21.5s25.5 8 41.5 8c6 0 13.833 -0.5 23.5 -1.5s19.167 -2.16699 28.5 -3.5c4 -1.33301 7 -3 9 -5s2.33301 -5.66699 1 -11l-4 -23c-1.33301 -6 -3.5 -9.83301 -6.5 -11.5
s-6.83301 -2.83398 -11.5 -3.50098l-29 -2c-14.667 -1.33301 -24.5 -4.83301 -29.5 -10.5s-8.83301 -15.167 -11.5 -28.5l-36 -184c-2 -10.667 -4.83301 -22 -8.5 -34s-8.66699 -23.5 -15 -34.5s-14 -21.167 -23 -30.5s-19.833 -16.333 -32.5 -21v-1
c0 -0.666992 0.333008 -1 1 -1c11.333 -6.66699 19.833 -14.167 25.5 -22.5s9.33398 -17.333 11.001 -27s1.83398 -20.167 0.500977 -31.5s-3.33301 -23.333 -6 -36l-37 -193c-2.66699 -13.333 -2.5 -22.833 0.5 -28.5s11.5 -9.16699 25.5 -10.5l28 -2
c4.66699 -0.666992 8.16699 -1.83398 10.5 -3.50098s2.83301 -5.16699 1.5 -10.5l-4 -24v0z" />
    <glyph glyph-name="bar" unicode="|" horiz-adv-x="237" 
d="M148 -99c0 -11.333 -5.33301 -17 -16 -17h-27c-6 0 -10.5 1 -13.5 3s-4.5 6.66699 -4.5 14v778c0 7.33301 1.5 12 4.5 14s7.5 3 13.5 3h27c10.667 0 16 -5.66699 16 -17v-778v0z" />
    <glyph glyph-name="braceright" unicode="}" horiz-adv-x="266" 
d="M252 289c-1.33301 -6.66699 -6.32812 -11.0039 -14.9951 -13.0039c-24.667 -7.33301 -40.834 -19.5 -48.501 -36.5s-13.834 -37.167 -18.501 -60.5l-39 -198c-2 -12 -5.5 -23.5 -10.5 -34.5s-11.5 -20.833 -19.5 -29.5s-17.833 -15.667 -29.5 -21s-25.5 -8 -41.5 -8
c-5.33301 0 -12.833 0.333008 -22.5 1s-19.167 2 -28.5 4c-9.33301 1.33301 -13 6.33301 -11 15l5 24c1.33301 5.33301 3.33301 8.83301 6 10.5s6.66699 2.83398 12 3.50098l28 2c14.667 1.33301 24.667 4.83301 30 10.5s9.33301 15.167 12 28.5l37 193
c2.66699 12.667 5.5 24.667 8.5 36s7.33301 21.833 13 31.5s13 18.667 22 27s20.5 15.833 34.5 22.5l1 2c-10.667 4.66699 -18.834 11.667 -24.501 21s-9.33398 19.5 -11.001 30.5s-2 22.5 -1 34.5s2.5 23.333 4.5 34l35 184c2.66699 13.333 2.5 22.833 -0.5 28.5
s-11.5 9.16699 -25.5 10.5l-27 2c-5.33301 0.666992 -9.16602 1.83398 -11.499 3.50098s-2.83301 5.5 -1.5 11.5l5 23c1.33301 5.33301 3.33301 9 6 11s6 3.66699 10 5c10.667 1.33301 20.834 2.5 30.501 3.5s17.5 1.5 23.5 1.5c16 0 28.833 -2.66699 38.5 -8
s16.667 -12.5 21 -21.5s6.66602 -19 6.99902 -30s-0.5 -22.5 -2.5 -34.5l-37 -189c-2 -11.333 -3.5 -22.166 -4.5 -32.499s-0.833008 -19.833 0.5 -28.5s4.66602 -16.167 9.99902 -22.5s13.666 -11.166 24.999 -14.499c7.33301 -2 10 -6 8 -12l-3 -21v0z" />
    <glyph glyph-name="asciitilde" unicode="~" horiz-adv-x="556" 
d="M361 233c-14 0 -28.332 3 -42.999 9s-29.334 12.5 -44.001 19.5s-29 13.5 -43 19.5s-27.333 9 -40 9s-24 -2.33301 -34 -7s-24 -16 -42 -34c-2.66699 -1.33301 -5.16699 -3 -7.5 -5s-6.16602 -1.33301 -11.499 2l-17 13c-5.33301 3.33301 -7.33301 6.66602 -6 9.99902
s2.66602 5.66602 3.99902 6.99902c9.33301 16 19.666 29 30.999 39s22.833 18 34.5 24s23 10 34 12s21.167 3 30.5 3c16 0 31.833 -2.83301 47.5 -8.5s30.667 -12 45 -19s28.333 -13.333 42 -19s26.5 -8.5 38.5 -8.5c15.333 0 28.166 3 38.499 9s20.833 15 31.5 27
c2.66699 2.66699 5.83398 5.33398 9.50098 8.00098s8.16699 2.33398 13.5 -0.999023l17 -12c5.33301 -3.33301 7.5 -6.5 6.5 -9.5s-2.16699 -5.5 -3.5 -7.5c-18 -28 -38.167 -48.333 -60.5 -61s-46.166 -19 -71.499 -19z" />
    <glyph glyph-name="exclamdown" unicode="&#xa1;" horiz-adv-x="224" 
d="M115 294c2.66699 10.667 7.66699 16 15 16h26c9.33301 0 13 -5.33301 11 -16l-81 -464c-2 -11.333 -8.33301 -17 -19 -17h-44c-9.33301 0 -13 5.66699 -11 17zM125 439c2.66699 13.333 7.66895 24.666 15.002 33.999s20.666 14 39.999 14c20 0 31.667 -4.66699 35 -14
s3.66602 -20.666 0.999023 -33.999s-7.66699 -24.166 -15 -32.499s-20.333 -12.5 -39 -12.5c-19.333 0 -31 4.16699 -35 12.5s-4.66699 19.166 -2 32.499z" />
    <glyph glyph-name="cent" unicode="&#xa2;" horiz-adv-x="556" 
d="M476 430c-2 -5.33301 -5.33105 -8.66992 -9.99805 -10.0029s-10.667 -1.66602 -18 -0.999023l-66.5 6.5c-24.333 2.33301 -45.833 3.5 -64.5 3.5c-22.667 0 -42.167 -3 -58.5 -9s-30.5 -16 -42.5 -30s-22.167 -32.5 -30.5 -55.5s-15.833 -51.833 -22.5 -86.5
c-3.33301 -19.333 -6 -36.833 -8 -52.5s-3 -30.167 -3 -43.5c-0.666992 -34.667 6.5 -58.667 21.5 -72s38.833 -20 71.5 -20c8 0 17.833 0.333008 29.5 1s24 1.5 37 2.5l38.5 3c12.667 1 24 2.16699 34 3.5c6 0.666992 10.833 0.333984 14.5 -0.999023s5.5 -5.33301 5.5 -12
v-21c0 -9.33301 -5 -16.333 -15 -21c-18 -7.33301 -39.167 -12.666 -63.5 -15.999s-48.166 -5.33301 -71.499 -6l-24 -130c-2.66699 -11.333 -8 -17 -16 -17h-20c-4.66699 0 -7.83398 1 -9.50098 3s-1.83398 6.66699 -0.500977 14l24 130c-26 2 -48 6.83301 -66 14.5
s-32.333 17.667 -43 30s-18.334 26.833 -23.001 43.5s-7 35 -7 55c0 16.667 1.16699 34.334 3.5 53.001s5.5 38 9.5 58c6 31.333 13.333 61.5 22 90.5s21 55 37 78s37.167 41.667 63.5 56s60.166 22.5 101.499 24.5l27 137c1.33301 7.33301 3.5 12 6.5 14s6.83301 3 11.5 3
h20c8 0 10.667 -5.66699 8 -17l-27 -137c10.667 -0.666992 21.834 -1.5 33.501 -2.5s23.167 -2.33301 34.5 -4s22 -3.83398 32 -6.50098s19 -5.66699 27 -9c4.66699 -2 7.16699 -5 7.5 -9s-0.166992 -8 -1.5 -12z" />
    <glyph glyph-name="sterling" unicode="&#xa3;" horiz-adv-x="556" 
d="M537 594c-1.33301 -3.33301 -3.50195 -6.33398 -6.50195 -9.00098s-7.5 -3.33398 -13.5 -2.00098c-20 2.66699 -41.333 5.83398 -64 9.50098s-48.667 5.5 -78 5.5c-36 0 -65 -9.33301 -87 -28s-36 -45 -42 -79l-23 -133h181c11.333 0 16 -5 14 -15l-7 -33
c-2 -11.333 -8.66699 -17 -20 -17h-181l-12 -65c-2.66699 -14 -6 -28.833 -10 -44.5s-8.66699 -30.667 -14 -45s-11.5 -27.333 -18.5 -39s-14.5 -20.834 -22.5 -27.501h39c21.333 0 46.333 -0.166992 75 -0.5s58.5 -0.5 89.5 -0.5h83.5c11.333 0 15.666 -5.66699 12.999 -17
l-7 -40c-1.33301 -6 -3.5 -9.83301 -6.5 -11.5s-7.83301 -2.5 -14.5 -2.5h-386c-10.667 0 -15 4.66699 -13 14l6 30c0.666992 4.66699 2.5 9.16699 5.5 13.5s8.16699 8.16602 15.5 11.499c22.667 9.33301 39.5 23.5 50.5 42.5s19.167 40.167 24.5 63.5
c2.66699 9.33301 4.83398 18.333 6.50098 27s3.5 17.334 5.5 26.001l13 65h-46c-12 0 -16.667 5.66699 -14 17l6 33c2 10 8.66699 15 20 15h46l25 137c9.33301 53.333 31.833 95.666 67.5 126.999s82.834 47 141.501 47c10 0 21.5 -0.333008 34.5 -1s26.833 -2 41.5 -4
s29.334 -4.66699 44.001 -8s28 -7.66602 40 -12.999c6 -3.33301 9.33301 -6.66602 10 -9.99902s0 -7.66602 -2 -12.999z" />
    <glyph glyph-name="currency" unicode="&#xa4;" horiz-adv-x="503" 
d="M55 281c0 12 2.16895 28.502 6.50195 49.502s12.833 42.167 25.5 63.5l-57 57c-8 8 -8.66699 15.667 -2 23l32 31c5.33301 5.33301 9.33301 7.66602 12 6.99902s6 -3 10 -7l55 -56c13.333 9.33301 29.166 16.666 47.499 21.999s39.5 8.33301 63.5 9
c24 0 45.5 -2.83301 64.5 -8.5s36.167 -13.834 51.5 -24.501l61 62c8 8 15.667 8.33301 23 1l31 -31c5.33301 -5.33301 7.66602 -9.5 6.99902 -12.5s-3 -6.83301 -7 -11.5l-64 -63c11.333 -18 19.5 -36.5 24.5 -55.5s7.5 -36.167 7.5 -51.5c0 -16 -2.5 -35 -7.5 -57
s-14.167 -43.333 -27.5 -64l65 -65c5.33301 -4.66699 8.5 -8.66699 9.5 -12s-1.16699 -7.66602 -6.5 -12.999l-31 -32c-7.33301 -6.66699 -15.333 -5.33398 -24 3.99902l-65 65c-14 -9.33301 -30.333 -16.666 -49 -21.999s-39.667 -7.66602 -63 -6.99902
c-21.333 0 -40.333 2 -57 6s-31.667 9.66699 -45 17l-65 -66c-4.66699 -5.33301 -8.66699 -8.33301 -12 -9s-7.66602 1.66602 -12.999 6.99902l-32 31c-7.33301 7.33301 -6 15.333 4 24l63 62c-14.667 21.333 -24.334 43.5 -29.001 66.5s-7 43.167 -7 60.5zM125.002 282.002
c0 -42.667 10.5 -76.167 31.5 -100.5s51.167 -36.5 90.5 -36.5c41.333 0 73.333 12.833 96 38.5s34 58.5 34 98.5c0 42.667 -11.333 76.167 -34 100.5s-54.667 36.5 -96 36.5c-39.333 0 -69.5 -12.167 -90.5 -36.5s-31.5 -57.833 -31.5 -100.5z" />
    <glyph glyph-name="yen" unicode="&#xa5;" horiz-adv-x="556" 
d="M422 222c8 0 11 -4 9 -12l-6 -32c-1.33301 -6 -5 -9 -11 -9h-165l-30 -152c-2 -11.333 -8.66699 -17 -20 -17h-43c-11.333 0 -16 5.66699 -14 17l30 152h-163c-7.33301 0 -10 3.33301 -8 10l7 34c0 2 1 4 3 6s5 3 9 3h402zM28 266
c-3.33301 0 -5.83203 0.499023 -7.49902 1.49902s-1.83398 3.5 -0.500977 7.5l6 34c1.33301 6 5.66602 9 12.999 9h150l-122 331c-1.33301 3.33301 -1 6.33301 1 9s5 4 9 4h60c6 0 9.83301 -1 11.5 -3s3.5 -5 5.5 -9l93 -282h6l207 282
c3.33301 4.66699 6.33301 7.83398 9 9.50098s7 2.5 13 2.5h53c11.333 0 13 -5 5 -15l-250 -329h152c6.66699 0 9.33398 -3.66699 8.00098 -11l-6 -32c-1.33301 -6 -5 -9 -11 -9h-405z" />
    <glyph glyph-name="brokenbar" unicode="&#xa6;" horiz-adv-x="237" 
d="M148 -99c0 -11.333 -5.33301 -17 -16 -17h-27c-6 0 -10.5 1 -13.5 3s-4.5 6.66699 -4.5 14v367c0 7.33301 1.5 12 4.5 14s7.5 3 13.5 3h27c10.667 0 16 -5.66699 16 -17v-367zM148 333c0 -11.333 -5.33301 -17 -16 -17h-27c-6 0 -10.5 1 -13.5 3s-4.5 6.66699 -4.5 14
v342c0 7.33301 1.5 12 4.5 14s7.5 3 13.5 3h27c10.667 0 16 -5.66699 16 -17v-342z" />
    <glyph glyph-name="section" unicode="&#xa7;" horiz-adv-x="426" 
d="M450 591c-2.66699 -5.33301 -5.67383 -8.50391 -9.00684 -9.50391s-8.66602 -0.5 -15.999 1.5s-16 4.16699 -26 6.5s-20.167 4.5 -30.5 6.5s-20.166 3.66699 -29.499 5s-17.333 2 -24 2c-40 0 -72.333 -7.16699 -97 -21.5s-38.334 -38.5 -41.001 -72.5
c-1.33301 -15.333 3.16699 -28.666 13.5 -39.999s22.5 -21.666 36.5 -30.999c16 -10.667 34.167 -20.667 54.5 -30s39.5 -19.833 57.5 -31.5s33.167 -25.5 45.5 -41.5s18.5 -36 18.5 -60c0 -30.667 -8.5 -58.5 -25.5 -83.5s-36.167 -47.833 -57.5 -68.5
c8.66699 -10 16.334 -22.333 23.001 -37s10 -30.334 10 -47.001c0 -32.667 -6 -60.834 -18 -84.501s-28 -43 -48 -58s-43.333 -26.167 -70 -33.5s-54.667 -11 -84 -11c-11.333 0 -23.666 0.833008 -36.999 2.5s-26.5 4.16699 -39.5 7.5s-25.167 7.33301 -36.5 12
s-21 9.66699 -29 15c-6 4 -6.66699 10.667 -2 20l11 21c5.33301 8.66699 13.666 11.334 24.999 8.00098c22.667 -6.66699 43.167 -11.667 61.5 -15s35.833 -5 52.5 -5c18.667 0 36.334 2 53.001 6s31.334 10.333 44.001 19s22.834 19.5 30.501 32.5s11.5 28.167 11.5 45.5
c0 15.333 -3.66699 29.5 -11 42.5s-16 22.833 -26 29.5c-18 11.333 -37.833 21.666 -59.5 30.999s-42.167 20 -61.5 32c-8 4.66699 -16 10.334 -24 17.001s-15.167 14.334 -21.5 23.001s-11.666 18.334 -15.999 29.001s-6.5 22.334 -6.5 35.001c0 14 2.66699 28.167 8 42.5
s12 28.166 20 41.499s17.167 26 27.5 38s20.5 22.333 30.5 31c-22.667 20 -34 46.333 -34 79c0 28.667 5.5 54 16.5 76s25.667 40.5 44 55.5s39.833 26.167 64.5 33.5s50.667 11 78 11c12 0 25 -0.833008 39 -2.5s28 -4 42 -7s27.167 -6.66699 39.5 -11
s22.5 -9.5 30.5 -15.5c6.66699 -3.33301 7.33398 -9.66602 2.00098 -18.999zM327.993 252.996c1.33301 19.333 -3.16699 35.168 -13.5 47.501s-23.166 22.833 -38.499 31.5c-15.333 8 -30.833 15.333 -46.5 22s-31.167 14.667 -46.5 24
c-14.667 -12 -27.334 -26.5 -38.001 -43.5s-16.667 -34.5 -18 -52.5s3.33398 -33 14.001 -45s23.667 -22.667 39 -32c14.667 -8.66699 30.167 -16.334 46.5 -23.001s32.166 -13.667 47.499 -21c13.333 14 25.333 28.333 36 43s16.667 31 18 49z" />
    <glyph glyph-name="dieresis" unicode="&#xa8;" horiz-adv-x="498" 
d="M475 625c0 -17.333 -4.16699 -31.499 -12.5 -42.499s-21.5 -16.5 -39.5 -16.5c-9.33301 0 -17.333 1.66699 -24 5s-10 10.666 -10 21.999c0 17.333 4 31.333 12 42s21 16 39 16c9.33301 0 17.5 -1.66699 24.5 -5s10.5 -10.333 10.5 -21zM291 625.001
c0 -17.333 -4 -31.499 -12 -42.499s-21 -16.5 -39 -16.5c-9.33301 0 -17.5 1.66699 -24.5 5s-10.5 10.666 -10.5 21.999c0 17.333 4 31.333 12 42s21 16 39 16c9.33301 0 17.5 -1.66699 24.5 -5s10.5 -10.333 10.5 -21z" />
    <glyph glyph-name="copyright" unicode="&#xa9;" horiz-adv-x="794" 
d="M749 335c0 -48.667 -9.33301 -94.334 -28 -137.001s-44 -79.667 -76 -111s-69.5 -56.166 -112.5 -74.499s-88.833 -27.5 -137.5 -27.5s-94.5 9.16699 -137.5 27.5s-80.5 43.166 -112.5 74.499s-57.167 68.333 -75.5 111s-27.5 88.334 -27.5 137.001
s9.16699 94.334 27.5 137.001s43.5 79.667 75.5 111s69.5 56.166 112.5 74.499s88.833 27.5 137.5 27.5c50 0 96.667 -9.16699 140 -27.5s80.833 -43.166 112.5 -74.499s56.5 -68.333 74.5 -111s27 -88.334 27 -137.001zM698 335c0 42 -8 81.333 -24 118
s-37.667 68.667 -65 96s-59.333 49 -96 65s-76 24 -118 24s-81.333 -8 -118 -24s-68.667 -37.667 -96 -65s-48.833 -59.333 -64.5 -96s-23.5 -76 -23.5 -118s7.83301 -81.333 23.5 -118s37.167 -68.667 64.5 -96s59.333 -49 96 -65s76 -24 118 -24s81.333 8 118 24
s68.667 37.667 96 65s49 59.333 65 96s24 76 24 118zM400 534c6 0 13.501 -0.169922 22.501 -0.50293s18.667 -1.16602 29 -2.49902s20.666 -3 30.999 -5s19.5 -4.66699 27.5 -8c6.66699 -3.33301 9.33398 -7.66602 8.00098 -12.999l-4 -18
c-0.666992 -1.33301 -1.83398 -3 -3.50098 -5s-4.5 -2.33301 -8.5 -1c-13.333 2 -29.166 3.83301 -47.499 5.5s-36.5 2.5 -54.5 2.5c-24 0 -43 -4.5 -57 -13.5s-24.667 -21.167 -32 -36.5s-12 -33 -14 -53s-3 -41.333 -3 -64c0 -20.667 1.33301 -40.667 4 -60
s7.66699 -36.333 15 -51s18 -26.334 32 -35.001s32.333 -13 55 -13c18.667 0 36.5 0.833008 53.5 2.5s33.167 3.5 48.5 5.5c4 1.33301 6.83301 1 8.5 -1s2.83398 -4 3.50098 -6l3 -16c0.666992 -3.33301 0.666992 -6 0 -8s-3 -3.66699 -7 -5
c-7.33301 -3.33301 -16 -6 -26 -8s-20.333 -3.66699 -31 -5s-20.667 -2.33301 -30 -3s-17 -1 -23 -1c-32 0 -58.167 5.66699 -78.5 17s-36.333 26.5 -48 45.5s-19.5 40.667 -23.5 65s-6 49.833 -6 76.5s1.83301 52.834 5.5 78.501s11.167 48.334 22.5 68.001
s27.166 35.5 47.499 47.5s47.166 18 80.499 18z" />
    <glyph glyph-name="ordfeminine" unicode="&#xaa;" horiz-adv-x="351" 
d="M324 258c-1.33301 -6 -3.33496 -10 -6.00195 -12s-6.66699 -3 -12 -3h-29c-6 0 -10.5 1.16699 -13.5 3.5s-3.83301 7.16602 -2.5 14.499l4 20c-14.667 -10.667 -33 -20.667 -55 -30s-43 -14 -63 -14c-34 0 -58.167 8 -72.5 24s-21.833 39 -22.5 69
c0 10.667 0.666992 22 2 34s3.33301 24.667 6 38c4.66699 26.667 10.834 50.5 18.501 71.5s17.834 38.833 30.501 53.5s28.5 25.834 47.5 33.501s42.167 11.5 69.5 11.5c12.667 0 27.5 -2.66699 44.5 -8s32.167 -12.666 45.5 -21.999l2 10c1.33301 6 3.33301 9.66699 6 11
s6.33398 2 11.001 2h27c7.33301 0 12.166 -1.33301 14.499 -4s2.83301 -7.33398 1.5 -14.001zM305.998 498c-16 7.33301 -31.168 12.333 -45.501 15s-28.5 4 -42.5 4c-27.333 0 -47.333 -9.5 -60 -28.5s-23.667 -49.167 -33 -90.5
c-3.33301 -13.333 -5.66602 -25.333 -6.99902 -36s-2 -19.667 -2 -27c0.666992 -18 4.66699 -29.667 12 -35s18 -8 32 -8c7.33301 0 16 1 26 3s20.167 4.83301 30.5 8.5s20.5 7.5 30.5 11.5s18.333 8 25 12z" />
    <glyph glyph-name="guillemotleft" unicode="&#xab;" horiz-adv-x="421" 
d="M37 171c-4 7.33301 -4.99512 13.168 -2.99512 17.501s4.66699 8.16602 8 11.499l125 124c3.33301 3.33301 7.16602 6.33301 11.499 9s9.16602 4 14.499 4h62c3.33301 0 5.16602 -1.16699 5.49902 -3.5s-0.833984 -4.83301 -3.50098 -7.5l-145 -143l83 -137
c1.33301 -2.66699 1.5 -5.66699 0.5 -9s-3.83301 -5 -8.5 -5l-54 1c-6.66699 0 -11.334 1.5 -14.001 4.5s-5 6.16699 -7 9.5zM194.005 171.002c-4 6.66699 -4.99707 12.333 -2.99707 17s4.66699 8.66699 8 12l124 124c3.33301 3.33301 7.16602 6.33301 11.499 9
s9.5 4 15.5 4h61c3.33301 0 5.16602 -1.16699 5.49902 -3.5s-0.833984 -4.83301 -3.50098 -7.5l-144 -143l82 -137c1.33301 -2.66699 1.5 -5.66699 0.5 -9s-4.16699 -5 -9.5 -5l-52 1c-6.66699 0 -11.5 1.5 -14.5 4.5s-5.5 6.16699 -7.5 9.5z" />
    <glyph glyph-name="logicalnot" unicode="&#xac;" horiz-adv-x="556" 
d="M392 132c-9.33301 0 -13 4.66699 -11 14l29 152h-319c-9.33301 0 -13 4.66699 -11 14l6 31c2 10 8 15 18 15h360c10.667 0 14.667 -4.66699 12 -14l-38 -197c-2 -10 -8 -15 -18 -15h-28v0z" />
    <glyph glyph-name="sfthyphen" unicode="&#xad;" horiz-adv-x="370" 
d="M355 307c-2 -8 -7.66504 -12 -16.998 -12h-271c-10 0 -14 4 -12 12l8 41c1.33301 5.33301 3.16602 8.83301 5.49902 10.5s6.16602 2.5 11.499 2.5h271c4.66699 0 8.16699 -0.833008 10.5 -2.5s2.83301 -5.16699 1.5 -10.5l-8 -41v0z" />
    <glyph glyph-name="registered" unicode="&#xae;" horiz-adv-x="519" 
d="M480 506c0 -30.667 -5.83203 -59.334 -17.499 -86.001s-27.5 -50 -47.5 -70s-43.333 -35.667 -70 -47s-55.334 -17 -86.001 -17s-59.334 5.66699 -86.001 17s-50 27 -70 47s-35.833 43.333 -47.5 70s-17.5 55.334 -17.5 86.001s5.83301 59.334 17.5 86.001
s27.5 49.834 47.5 69.501s43.333 35.167 70 46.5s55.334 17 86.001 17c31.333 0 60.5 -5.66699 87.5 -17s50.333 -26.833 70 -46.5s35.167 -42.834 46.5 -69.501s17 -55.334 17 -86.001zM442.001 506c0 25.333 -4.83301 49.166 -14.5 71.499s-22.667 41.666 -39 57.999
s-35.666 29.333 -57.999 39s-46.166 14.5 -71.499 14.5s-49.166 -4.83301 -71.499 -14.5s-41.833 -22.667 -58.5 -39s-29.834 -35.666 -39.501 -57.999s-14.5 -46.166 -14.5 -71.499s4.83301 -49.166 14.5 -71.499s22.834 -41.833 39.501 -58.5s36.167 -29.834 58.5 -39.501
s46.166 -14.5 71.499 -14.5s49.166 4.83301 71.499 14.5s41.666 22.834 57.999 39.501s29.333 36.167 39 58.5s14.5 46.166 14.5 71.499zM358.001 378c2.66699 -6 1.00098 -9.00195 -4.99902 -9.00195h-27c-4.66699 0 -8.33398 2 -11.001 6l-51 102h-45v-98
c0 -6.66699 -3 -10 -9 -10h-20c-5.33301 0 -8 3 -8 9v251c0 5.33301 3.33301 8 10 8h81c20.667 0 39.167 -6 55.5 -18s24.5 -32 24.5 -60c0 -15.333 -3.66699 -30.166 -11 -44.499s-20.333 -25.166 -39 -32.499zM315.002 558.998c0 17.333 -5 29.001 -15 35.001
s-21.667 9 -35 9h-46v-92h46c6 0 11.833 0.5 17.5 1.5s11 3.16699 16 6.5s9 8.16602 12 14.499s4.5 14.833 4.5 25.5z" />
    <glyph glyph-name="macron" unicode="&#xaf;" horiz-adv-x="509" 
d="M462 595c-2 -8 -7.33105 -12.001 -15.998 -12.001h-252c-4 0 -7.33301 0.833008 -10 2.5s-3.33398 4.83398 -2.00098 9.50098l8 38c1.33301 5.33301 3.16602 8.83301 5.49902 10.5s5.83301 2.5 10.5 2.5h252c4.66699 0 8.16699 -0.833008 10.5 -2.5
s2.83301 -5.16699 1.5 -10.5l-8 -38v0z" />
    <glyph glyph-name="degree" unicode="&#xb0;" horiz-adv-x="350" 
d="M183 670c18 0 35 -3.66602 51 -10.999s29.833 -17 41.5 -29s20.834 -26 27.501 -42s10 -32.667 10 -50c0 -18 -3.33301 -35 -10 -51s-15.834 -29.833 -27.501 -41.5s-25.5 -20.834 -41.5 -27.501s-33 -10 -51 -10c-42 0 -74.667 12.5 -98 37.5s-35 55.833 -35 92.5
c0 18 3.5 35 10.5 51s16.5 30 28.5 42s26.167 21.5 42.5 28.5s33.5 10.5 51.5 10.5zM257 536.001c0 10.667 -2 20.834 -6 30.501s-9.5 18 -16.5 25s-15.167 12.667 -24.5 17s-19.333 6.5 -30 6.5s-20.5 -2.16699 -29.5 -6.5s-17 -10 -24 -17s-12.5 -15.333 -16.5 -25
s-6 -19.834 -6 -30.501c0 -21.333 7.33301 -39.333 22 -54s32.667 -22 54 -22s39.5 7.33301 54.5 22s22.5 32.667 22.5 54z" />
    <glyph glyph-name="plusminus" unicode="&#xb1;" horiz-adv-x="556" 
d="M498 310c-2 -8 -8 -12 -18 -12h-146l-29 -153c-2.66699 -9.33301 -7.66699 -14 -15 -14h-41c-5.33301 0 -8.66602 1.16699 -9.99902 3.5s-1.33301 5.83301 0 10.5l29 153h-150c-8.66699 0 -12 4 -10 12l7 35c1.33301 5.33301 3 8.83301 5 10.5s5.33301 2.5 10 2.5h150
l28 145c1.33301 4.66699 3 8.16699 5 10.5s5.66699 3.5 11 3.5h41c8 0 11 -4.66699 9 -14l-28 -145h146c5.33301 0 9.16602 -0.833008 11.499 -2.5s2.83301 -5.16699 1.5 -10.5zM434 91c5.33301 0 9.16699 -0.833008 11.5 -2.5s2.83301 -5.16699 1.5 -10.5l-7 -35
c-2 -8 -8 -12 -18 -12h-362c-8.66699 0 -12 4 -10 12l7 35c1.33301 5.33301 3 8.83301 5 10.5s5.33301 2.5 10 2.5h362z" />
    <glyph glyph-name="twosuperior" unicode="&#xb2;" horiz-adv-x="334" 
d="M63 333c-12 0 -16.6729 5.33594 -14.0059 16.0029l6 28c0.666992 3.33301 2.33398 7.16602 5.00098 11.499s5.66699 7.83301 9 10.5l42 35l50.5 41l52.5 42l48 39c20 15.333 35.167 31 45.5 47s15.5 34 15.5 54c-1.33301 11.333 -6.66602 20.833 -15.999 28.5
s-28.666 11.5 -57.999 11.5c-18.667 0 -37.834 -0.333008 -57.501 -1s-36.167 -2.33398 -49.5 -5.00098c-9.33301 -2 -14.666 0.666992 -15.999 8l-4 20c-1.33301 4 -0.833008 8 1.5 12s7.16602 7.33301 14.499 10c8.66699 3.33301 18.5 6 29.5 8s22.333 3.66699 34 5
s22.5 2.16602 32.5 2.49902s18.333 0.5 25 0.5c48.667 0 82.667 -7.83301 102 -23.5s29 -36.5 29 -62.5c0.666992 -29.333 -5.5 -55.5 -18.5 -78.5s-35.167 -48.167 -66.5 -75.5c-27.333 -24 -53.166 -45.333 -77.499 -64l-80.5 -63h190
c5.33301 0 8.83301 -0.833008 10.5 -2.5s1.83398 -5.5 0.500977 -11.5l-5 -27c-1.33301 -5.33301 -2.66602 -9.33301 -3.99902 -12s-4.66602 -4 -9.99902 -4h-266z" />
    <glyph glyph-name="threesuperior" unicode="&#xb3;" horiz-adv-x="334" 
d="M250 593l36 -7c28 -5.33301 47.667 -15.833 59 -31.5s17 -34.167 17 -55.5c0.666992 -32.667 -4 -60 -14 -82s-23.833 -39.667 -41.5 -53s-38.334 -22.833 -62.001 -28.5s-48.5 -8.5 -74.5 -8.5c-6 0 -14.5 0.333008 -25.5 1s-22.5 1.66699 -34.5 3s-23.667 3 -35 5
s-20.333 4.66699 -27 8c-6 3.33301 -9.33301 6.83301 -10 10.5s0 8.16699 2 13.5l6 16c3.33301 7.33301 6 11.5 8 12.5s6.66699 0.833008 14 -0.5c14.667 -2.66699 31.167 -5 49.5 -7s37.166 -3 56.499 -3c12.667 0 26.167 1.33301 40.5 4s27.5 7.66699 39.5 15
s22 17.5 30 30.5s12 29.5 12 49.5c-0.666992 14.667 -5.66699 25 -15 31s-21.333 10.333 -36 13l-75 12c-11.333 2 -16.333 9.33301 -15 22l3 20c0.666992 4 2.33398 7.5 5.00098 10.5s5.66699 5.83301 9 8.5l118 92h-170c-5.33301 0 -9 0.5 -11 1.5
s-2.33301 4.83301 -1 11.5l5 34c0.666992 5.33301 2.33398 8.5 5.00098 9.5s6 1.5 10 1.5h243c12.667 0 18 -5.33301 16 -16l-3 -25c-2 -8 -5 -14.167 -9 -18.5s-9 -8.83301 -15 -13.5z" />
    <glyph glyph-name="acute" unicode="&#xb4;" horiz-adv-x="497" 
d="M330 546c-4 -4.66699 -9.33301 -5.66602 -16 -2.99902l-23 9c-3.33301 1.33301 -5 3.66602 -5 6.99902s0.666992 6 2 8l97 143c4 6 9.66699 7 17 3l41 -19c4 -2 5.66699 -4.66699 5 -8s-2 -6.33301 -4 -9z" />
    <glyph glyph-name="mu" unicode="&#xb5;" horiz-adv-x="512" 
d="M420 17c-2 -11.333 -8.66992 -17.0029 -20.0029 -17.0029h-41c-12 0 -16.667 5.66699 -14 17l7 37c0 0.666992 -0.666992 0.333984 -2 -0.999023c-9.33301 -5.33301 -21.166 -11.666 -35.499 -18.999s-30 -14.166 -47 -20.499s-34.667 -11.833 -53 -16.5
s-36.166 -7 -53.499 -7c-15.333 0 -28.333 1.5 -39 4.5s-19.667 8.16699 -27 15.5l-2 -3l-32 -164c-1.33301 -6.66699 -3.33301 -11.5 -6 -14.5s-7.66699 -4.5 -15 -4.5h-41c-7.33301 0 -11.666 1.33301 -12.999 4s-1.33301 7.66699 0 15l121 627
c2.66699 11.333 9.66699 17 21 17h42c11.333 0 15.666 -5.66699 12.999 -17l-61 -319c-7.33301 -36.667 -5.66602 -61.167 5.00098 -73.5s30.334 -18.5 59.001 -18.5c12 0 26.5 2.33301 43.5 7s34 10 51 16s33.167 12.333 48.5 19s27 12 35 16l69 353
c2.66699 11.333 9.66699 17 21 17h41c11.333 0 15.666 -5.66699 12.999 -17z" />
    <glyph glyph-name="mu" unicode="&#x3bc;" horiz-adv-x="512" 
d="M420 17c-2 -11.333 -8.66992 -17.0029 -20.0029 -17.0029h-41c-12 0 -16.667 5.66699 -14 17l7 37c0 0.666992 -0.666992 0.333984 -2 -0.999023c-9.33301 -5.33301 -21.166 -11.666 -35.499 -18.999s-30 -14.166 -47 -20.499s-34.667 -11.833 -53 -16.5
s-36.166 -7 -53.499 -7c-15.333 0 -28.333 1.5 -39 4.5s-19.667 8.16699 -27 15.5l-2 -3l-32 -164c-1.33301 -6.66699 -3.33301 -11.5 -6 -14.5s-7.66699 -4.5 -15 -4.5h-41c-7.33301 0 -11.666 1.33301 -12.999 4s-1.33301 7.66699 0 15l121 627
c2.66699 11.333 9.66699 17 21 17h42c11.333 0 15.666 -5.66699 12.999 -17l-61 -319c-7.33301 -36.667 -5.66602 -61.167 5.00098 -73.5s30.334 -18.5 59.001 -18.5c12 0 26.5 2.33301 43.5 7s34 10 51 16s33.167 12.333 48.5 19s27 12 35 16l69 353
c2.66699 11.333 9.66699 17 21 17h41c11.333 0 15.666 -5.66699 12.999 -17z" />
    <glyph glyph-name="paragraph" unicode="&#xb6;" horiz-adv-x="467" 
d="M519 664c9.33301 0 13.9961 -3.66699 13.9961 -11c0 -0.666992 -0.333008 -3 -1 -7s-3 -15.667 -7 -35c-2 -12 -8.66699 -18 -20 -18h-25l-131 -671c-1.33301 -6.66699 -3.16602 -11.167 -5.49902 -13.5s-7.16602 -3.5 -14.499 -3.5h-34
c-7.33301 0 -11.666 1.5 -12.999 4.5s-2 7.16699 -2 12.5l131 672h-101l-131 -672c-1.33301 -6.66699 -3.16602 -11.167 -5.49902 -13.5s-7.16602 -3.5 -14.499 -3.5h-34c-7.33301 0 -11.666 1.5 -12.999 4.5s-2 7.16699 -2 12.5l74 381c-20.667 0 -38.334 4 -53.001 12
s-26.834 18.333 -36.501 31s-16.667 27 -21 43s-6.5 32.333 -6.5 49c0 34.667 5.5 66 16.5 94s26.5 51.667 46.5 71s44.167 34.333 72.5 45s59.5 16 93.5 16h223z" />
    <glyph glyph-name="periodcentered" unicode="&#xb7;" horiz-adv-x="195" 
d="M162 275c0 -18.667 -4.49902 -34.167 -13.499 -46.5s-23.5 -18.5 -43.5 -18.5c-10.667 0 -19.834 2 -27.501 6s-11.5 12 -11.5 24c0 18.667 4.5 34 13.5 46s23.5 18 43.5 18c10 0 19 -1.83301 27 -5.5s12 -11.5 12 -23.5z" />
    <glyph glyph-name="cedilla" unicode="&#xb8;" horiz-adv-x="425" 
d="M157 -188c-8.66699 0 -19.833 0.833984 -33.5 2.50098s-25.167 4.16699 -34.5 7.5c-5.33301 2 -7 5.66699 -5 11l7 19c1.33301 2 2.66602 3.5 3.99902 4.5s4 1.16699 8 0.5c9.33301 -1.33301 19.333 -2.5 30 -3.5s19.667 -1.5 27 -1.5c6.66699 0 13.667 0.5 21 1.5
s13.833 2.83301 19.5 5.5s10.334 6.5 14.001 11.5s5.5 11.833 5.5 20.5c0 11.333 -4.5 18.833 -13.5 22.5s-23.5 6.16699 -43.5 7.5c-13.333 1.33301 -16.333 8.66602 -9 21.999l34 67c0 0.666992 0.833008 1.83398 2.5 3.50098s3.83398 2.5 6.50098 2.5h28
c2.66699 0 4 -0.833008 4 -2.5s-0.333008 -3.16699 -1 -4.5l-28 -53c28 -1.33301 47.667 -7.5 59 -18.5s17 -24.833 17 -41.5c0 -15.333 -3.16699 -28.333 -9.5 -39s-14.833 -19.334 -25.5 -26.001s-23.334 -11.5 -38.001 -14.5s-30 -4.5 -46 -4.5z" />
    <glyph glyph-name="onesuperior" unicode="&#xb9;" horiz-adv-x="294" 
d="M296 346c-1.33301 -6 -2.99902 -9.66797 -4.99902 -11.001s-5.33301 -2 -10 -2h-194c-5.33301 0 -8.83301 0.833008 -10.5 2.5s-1.83398 5.5 -0.500977 11.5l5 27c1.33301 6 2.83301 10.167 4.5 12.5s5.16699 3.5 10.5 3.5h60l54 291h-64
c-6.66699 0 -11 0.833008 -13 2.5s-2.33301 5.83398 -1 12.501l3 14l3.5 10.5c1 3 4.5 5.5 10.5 7.5l65 21c4 1.33301 8.5 2.33301 13.5 3s9.5 1 13.5 1h28c8.66699 0 13.667 -1.5 15 -4.5s1.33301 -7.16699 0 -12.5l-62 -346h68c4.66699 0 8.16699 -0.666992 10.5 -2
s2.83301 -5 1.5 -11z" />
    <glyph glyph-name="ordmasculine" unicode="&#xba;" horiz-adv-x="347" 
d="M366 465c0 -20.667 -2.00098 -39.333 -6.00098 -56c-4.66699 -24.667 -10.5 -47.5 -17.5 -68.5s-16.833 -39.167 -29.5 -54.5s-29 -27.333 -49 -36s-45 -13 -75 -13c-40 0 -70.833 8.66699 -92.5 26s-32.834 45.333 -33.501 84c0 10 0.666992 20.667 2 32s3 22 5 32
c4.66699 22 10.834 42.833 18.501 62.5s17.834 36.667 30.501 51s28.5 25.833 47.5 34.5s42.167 13 69.5 13c40 0 71.5 -8 94.5 -24s34.833 -43.667 35.5 -83zM301.999 461.001c-0.666992 21.333 -6.66309 36 -17.9961 44s-27.666 12 -48.999 12
c-19.333 0 -34.833 -3 -46.5 -9s-21 -14.167 -28 -24.5s-12.5 -22.333 -16.5 -36s-7.66699 -28.167 -11 -43.5c-4 -19.333 -6 -38 -6 -56c0 -20 5.16699 -34.167 15.5 -42.5s26.166 -12.5 47.499 -12.5c19.333 0 35.166 2.83301 47.499 8.5s22.166 13.667 29.499 24
s13.166 22.333 17.499 36s8.16602 28.5 11.499 44.5c4 18.667 6 37 6 55z" />
    <glyph glyph-name="guillemotright" unicode="&#xbb;" horiz-adv-x="421" 
d="M379 198c4 -6.66699 4.99414 -12.168 2.99414 -16.501s-4.66699 -8.16602 -8 -11.499l-124 -125c-4 -3.33301 -8.16699 -6.33301 -12.5 -9s-9.16602 -4 -14.499 -4h-61c-3.33301 0 -5.16602 1.16699 -5.49902 3.5s0.833984 4.83301 3.50098 7.5l144 143l-82 137
c-1.33301 2.66699 -1.66602 5.66699 -0.999023 9s3.33398 5 8.00098 5h54c6.66699 0 11.334 -1.66699 14.001 -5l8 -10zM222.994 197.999c3.33301 -6 4.16211 -11.333 2.49512 -16s-4.16699 -8.66699 -7.5 -12l-125 -125c-3.33301 -3.33301 -7.16602 -6.33301 -11.499 -9
s-9.16602 -4 -14.499 -4h-62c-3.33301 0 -5.16602 1.16699 -5.49902 3.5s0.833984 4.83301 3.50098 7.5l145 143l-83 137c-1.33301 2.66699 -1.5 5.66699 -0.5 9s4.16699 5 9.5 5h53c6.66699 0 11.334 -1.66699 14.001 -5l8 -10z" />
    <glyph glyph-name="onequarter" unicode="&#xbc;" horiz-adv-x="820" 
d="M328 256c-1.33301 -6 -2.99902 -9.66797 -4.99902 -11.001s-5.33301 -2 -10 -2h-194c-5.33301 0 -8.83301 0.833008 -10.5 2.5s-1.83398 5.5 -0.500977 11.5l5 27c1.33301 6 2.83301 10.167 4.5 12.5s5.16699 3.5 10.5 3.5h60l54 291h-64
c-6.66699 0 -11 0.833008 -13 2.5s-2.33301 5.83398 -1 12.501l3 14l3.5 10.5c1 3 4.5 5.5 10.5 7.5l65 21c4 1.33301 8.5 2.33301 13.5 3s9.5 1 13.5 1h28c8.66699 0 13.667 -1.5 15 -4.5s1.33301 -7.16699 0 -12.5l-62 -346h68c4.66699 0 8.16699 -0.666992 10.5 -2
s2.83301 -5 1.5 -11zM264.001 -11.001c-5.33301 -8 -11.001 -12 -17.001 -12h-32c-10 0 -12.333 5 -7 15l411 695c4.66699 8.66699 10.667 13 18 13l32 -1c8.66699 0 10.334 -4.66699 5.00098 -14zM751 122.999c-2.66699 -8.66699 -8.33105 -13 -16.998 -13h-44l-17 -96
c-1.33301 -7.33301 -3.5 -11.5 -6.5 -12.5s-7.16699 -1.5 -12.5 -1.5h-31c-5.33301 0 -9.33301 0.666992 -12 2s-3.33398 5 -2.00098 11l18 97h-206c-10.667 0 -15 5 -13 15l5 23c2 8.66699 6 16 12 22l252 239c4 3.33301 7.66699 5.83301 11 7.5s8.33301 2.5 15 2.5h26
c11.333 0 16 -4.66699 14 -14l-44 -237h51c9.33301 0 12.666 -4.66699 9.99902 -14zM665.003 322.999l-165 -155h135z" />
    <glyph glyph-name="onehalf" unicode="&#xbd;" horiz-adv-x="820" 
d="M319 256c-1.33301 -6 -2.99902 -9.66797 -4.99902 -11.001s-5.33301 -2 -10 -2h-194c-5.33301 0 -8.83301 0.833008 -10.5 2.5s-1.83398 5.5 -0.500977 11.5l5 27c1.33301 6 2.83301 10.167 4.5 12.5s5.16699 3.5 10.5 3.5h60l54 291h-64
c-6.66699 0 -11 0.833008 -13 2.5s-2.33301 5.83398 -1 12.501l3 14l3.5 10.5c1 3 4.5 5.5 10.5 7.5l65 21c4 1.33301 8.5 2.33301 13.5 3s9.5 1 13.5 1h28c8.66699 0 13.667 -1.5 15 -4.5s1.33301 -7.16699 0 -12.5l-62 -346h68c4.66699 0 8.16699 -0.666992 10.5 -2
s2.83301 -5 1.5 -11zM245.001 -11.001c-5.33301 -8 -11.001 -12 -17.001 -12h-32c-10 0 -12.333 5 -7 15l411 695c4.66699 8.66699 10.667 13 18 13l32 -1c8.66699 0 10.334 -4.66699 5.00098 -14zM472 -0.000976562c-12 0 -16.6729 5.33594 -14.0059 16.0029l6 28
c0.666992 3.33301 2.33398 7.16602 5.00098 11.499s5.66699 7.83301 9 10.5l42 35l50.5 41l52.5 42l48 39c20 15.333 35.167 31 45.5 47s15.5 34 15.5 54c-1.33301 11.333 -6.66602 20.833 -15.999 28.5s-28.666 11.5 -57.999 11.5c-18.667 0 -37.834 -0.333008 -57.501 -1
s-36.167 -2.33398 -49.5 -5.00098c-9.33301 -2 -14.666 0.666992 -15.999 8l-4 20c-1.33301 4 -0.833008 8 1.5 12s7.16602 7.33301 14.499 10c8.66699 3.33301 18.5 6 29.5 8s22.333 3.66699 34 5s22.5 2.16602 32.5 2.49902s18.333 0.5 25 0.5
c48.667 0 82.667 -7.83301 102 -23.5s29 -36.5 29 -62.5c0.666992 -29.333 -5.5 -55.5 -18.5 -78.5s-35.167 -48.167 -66.5 -75.5c-27.333 -24 -53.166 -45.333 -77.499 -64l-80.5 -63h190c5.33301 0 8.83301 -0.833008 10.5 -2.5s1.83398 -5.5 0.500977 -11.5l-5 -27
c-1.33301 -5.33301 -2.66602 -9.33301 -3.99902 -12s-4.66602 -4 -9.99902 -4h-266z" />
    <glyph glyph-name="threequarters" unicode="&#xbe;" horiz-adv-x="820" 
d="M778 123c-2.66699 -8.66699 -8.33105 -13 -16.998 -13h-44l-17 -96c-1.33301 -7.33301 -3.5 -11.5 -6.5 -12.5s-7.16699 -1.5 -12.5 -1.5h-31c-5.33301 0 -9.33301 0.666992 -12 2s-3.33398 5 -2.00098 11l18 97h-206c-10.667 0 -15 5 -13 15l5 23c2 8.66699 6 16 12 22
l252 239c4 3.33301 7.66699 5.83301 11 7.5s8.33301 2.5 15 2.5h26c11.333 0 16 -4.66699 14 -14l-44 -237h51c9.33301 0 12.666 -4.66699 9.99902 -14zM692.003 323l-165 -155h135zM277.003 503l36 -7c28 -5.33301 47.667 -15.833 59 -31.5s17 -34.167 17 -55.5
c0.666992 -32.667 -4 -60 -14 -82s-23.833 -39.667 -41.5 -53s-38.334 -22.833 -62.001 -28.5s-48.5 -8.5 -74.5 -8.5c-6 0 -14.5 0.333008 -25.5 1s-22.5 1.66699 -34.5 3s-23.667 3 -35 5s-20.333 4.66699 -27 8c-6 3.33301 -9.33301 6.83301 -10 10.5s0 8.16699 2 13.5
l6 16c3.33301 7.33301 6 11.5 8 12.5s6.66699 0.833008 14 -0.5c14.667 -2.66699 31.167 -5 49.5 -7s37.166 -3 56.499 -3c12.667 0 26.167 1.33301 40.5 4s27.5 7.66699 39.5 15s22 17.5 30 30.5s12 29.5 12 49.5c-0.666992 14.667 -5.66699 25 -15 31
s-21.333 10.333 -36 13l-75 12c-11.333 2 -16.333 9.33301 -15 22l3 20c0.666992 4 2.33398 7.5 5.00098 10.5s5.66699 5.83301 9 8.5l118 92h-170c-5.33301 0 -9 0.5 -11 1.5s-2.33301 4.83301 -1 11.5l5 34c0.666992 5.33301 2.33398 8.5 5.00098 9.5s6 1.5 10 1.5h243
c12.667 0 18 -5.33301 16 -16l-3 -25c-2 -8 -5 -14.167 -9 -18.5s-9 -8.83301 -15 -13.5zM276.003 -11c-5.33301 -8 -11.001 -12 -17.001 -12h-32c-10 0 -12.333 5 -7 15l411 695c4.66699 8.66699 10.667 13 18 13l32 -1c8.66699 0 10.334 -4.66699 5.00098 -14z" />
    <glyph glyph-name="questiondown" unicode="&#xbf;" horiz-adv-x="352" 
d="M129 -195c-54 0 -94.3281 9.99707 -120.995 29.9971s-40 49 -40 87c0 20.667 3.16699 39.334 9.5 56.001s14.666 31.834 24.999 45.501s22.166 25.667 35.499 36s26.666 19.833 39.999 28.5l45 31c14 10 26.5 20.833 37.5 32.5s20.5 24.667 28.5 39s13.667 30.5 17 48.5
l10 57c2 10.667 7 16 15 16h35c9.33301 0 14 -5 14 -15c-1.33301 -35.333 -6.33301 -65.5 -15 -90.5s-20.334 -47.333 -35.001 -67s-32.167 -37.667 -52.5 -54s-42.5 -32.833 -66.5 -49.5l-27.5 -20c-8.33301 -6 -15.333 -12.667 -21 -20s-10.167 -15.5 -13.5 -24.5
s-5 -19.833 -5 -32.5c0 -22 8.16699 -37.667 24.5 -47s42.166 -14 77.499 -14c16.667 0 34.834 0.833008 54.501 2.5l54.5 4.5c6.66699 0 11 -1 13 -3s3.33301 -5 4 -9v-27c0 -9.33301 -5.83301 -16.666 -17.5 -21.999s-25.334 -9.33301 -41.001 -12s-31.5 -4.5 -47.5 -5.5
s-28.333 -1.5 -37 -1.5zM259.005 392.997c-15.333 0 -25.667 3.16895 -31 9.50195s-8 14.166 -8 23.499c0 16 3.66699 30.167 11 42.5s22.333 18.5 45 18.5c15.333 0 25.833 -3.33301 31.5 -10s8.5 -14.667 8.5 -24c0 -20.667 -4 -35.834 -12 -45.501s-23 -14.5 -45 -14.5z
" />
    <glyph glyph-name="Agrave" unicode="&#xc0;" horiz-adv-x="548" 
d="M491 14c1.33301 -9.33301 -2.33398 -13.999 -11.001 -13.999h-54c-9.33301 0 -14.333 4.33301 -15 13l-20 164h-244l-81 -161c-3.33301 -6.66699 -6.83301 -11 -10.5 -13s-8.16699 -3 -13.5 -3h-55c-9.33301 0 -11 5.33301 -5 16l329 631c4.66699 10 12 15 22 15h55
c6.66699 0 10.834 -1.33301 12.501 -4s3.16699 -6.33398 4.5 -11.001zM357 465.001c-2.66699 24 -4.66699 45.666 -6 64.999s-2.33301 34.333 -3 45h-3l-19.5 -43.5c-8.33301 -18.333 -18.5 -39.166 -30.5 -62.499l-10.5 -21.5l-20.5 -40.5l-25 -49.5l-25 -49.5l-20.5 -39.5
l-10.5 -20.5h201zM222 832c4 7.33301 9.33301 9.00098 16 5.00098l146 -95c8 -4.66699 10 -9 6 -13l-16 -23c-4 -4.66699 -8.66699 -5.66699 -14 -3l-155 75c-2 1.33301 -4.16699 3.16602 -6.5 5.49902s-2.5 5.5 -0.5 9.5z" />
    <glyph glyph-name="Aacute" unicode="&#xc1;" horiz-adv-x="548" 
d="M491 14c1.33301 -9.33301 -2.33398 -13.999 -11.001 -13.999h-54c-9.33301 0 -14.333 4.33301 -15 13l-20 164h-244l-81 -161c-3.33301 -6.66699 -6.83301 -11 -10.5 -13s-8.16699 -3 -13.5 -3h-55c-9.33301 0 -11 5.33301 -5 16l329 631c4.66699 10 12 15 22 15h55
c6.66699 0 10.834 -1.33301 12.501 -4s3.16699 -6.33398 4.5 -11.001zM357 465.001c-2.66699 24 -4.66699 45.666 -6 64.999s-2.33301 34.333 -3 45h-3l-19.5 -43.5c-8.33301 -18.333 -18.5 -39.166 -30.5 -62.499l-10.5 -21.5l-20.5 -40.5l-25 -49.5l-25 -49.5l-20.5 -39.5
l-10.5 -20.5h201zM531 793c2 -4 1.83301 -7.16797 -0.5 -9.50098s-4.5 -4.16602 -6.5 -5.49902l-155 -75c-5.33301 -2.66699 -10 -1.66699 -14 3l-16 23c-4 4 -2 8.33301 6 13l146 95c6.66699 4 12 2.33301 16 -5z" />
    <glyph glyph-name="Acircumflex" unicode="&#xc2;" horiz-adv-x="548" 
d="M491 14c1.33301 -9.33301 -2.33398 -13.999 -11.001 -13.999h-54c-9.33301 0 -14.333 4.33301 -15 13l-20 164h-244l-81 -161c-3.33301 -6.66699 -6.83301 -11 -10.5 -13s-8.16699 -3 -13.5 -3h-55c-9.33301 0 -11 5.33301 -5 16l329 631c4.66699 10 12 15 22 15h55
c6.66699 0 10.834 -1.33301 12.501 -4s3.16699 -6.33398 4.5 -11.001zM357 465.001c-2.66699 24 -4.66699 45.666 -6 64.999s-2.33301 34.333 -3 45h-3l-19.5 -43.5c-8.33301 -18.333 -18.5 -39.166 -30.5 -62.499l-10.5 -21.5l-20.5 -40.5l-25 -49.5l-25 -49.5l-20.5 -39.5
l-10.5 -20.5h201zM501 708c-6 -4.66699 -11.332 -5.00098 -15.999 -1.00098l-96 84l-141 -88c-5.33301 -3.33301 -8.83301 -5.16602 -10.5 -5.49902s-4.16699 1.16699 -7.5 4.5l-15 20c-2.66699 4 -1.66699 8.33301 3 13l122 97c10 7.33301 19.667 11 29 11h47
c7.33301 0 12.833 -0.833008 16.5 -2.5s7.16699 -4.16699 10.5 -7.5l81 -94c3.33301 -2.66699 4.66602 -5.5 3.99902 -8.5s-2.66699 -5.5 -6 -7.5z" />
    <glyph glyph-name="Atilde" unicode="&#xc3;" horiz-adv-x="548" 
d="M491 14c1.33301 -9.33301 -2.33398 -13.999 -11.001 -13.999h-54c-9.33301 0 -14.333 4.33301 -15 13l-20 164h-244l-81 -161c-3.33301 -6.66699 -6.83301 -11 -10.5 -13s-8.16699 -3 -13.5 -3h-55c-9.33301 0 -11 5.33301 -5 16l329 631c4.66699 10 12 15 22 15h55
c6.66699 0 10.834 -1.33301 12.501 -4s3.16699 -6.33398 4.5 -11.001zM357 465.001c-2.66699 24 -4.66699 45.666 -6 64.999s-2.33301 34.333 -3 45h-3l-19.5 -43.5c-8.33301 -18.333 -18.5 -39.166 -30.5 -62.499l-10.5 -21.5l-20.5 -40.5l-25 -49.5l-25 -49.5l-20.5 -39.5
l-10.5 -20.5h201zM442 692c-11.333 0 -23.1699 2.8291 -35.5029 8.49609s-24.666 11.667 -36.999 18l-36 18c-11.667 5.66699 -22.5 8.5 -32.5 8.5c-5.33301 0 -13 -2 -23 -6s-22 -14.667 -36 -32c-2 -3.33301 -4.33301 -5.66602 -7 -6.99902s-6.33398 -0.333008 -11.001 3
l-19 14c-3.33301 2.66699 -4.66602 5.33398 -3.99902 8.00098s1.66699 5.33398 3 8.00098c8.66699 15.333 18 28 28 38s19.833 17.833 29.5 23.5s19.167 9.5 28.5 11.5s18 3 26 3c12.667 0 25.167 -2.66699 37.5 -8s24.5 -11.333 36.5 -18s23.333 -12.667 34 -18
s21 -8 31 -8c11.333 0 21.333 3.33301 30 10s17.667 16.334 27 29.001c2 2.66699 4.33301 5 7 7s6.33398 2 11.001 0l19 -9c4 -2 5.66699 -4.66699 5 -8s-1.66699 -6 -3 -8c-29.333 -57.333 -65.666 -86 -108.999 -86z" />
    <glyph glyph-name="Adieresis" unicode="&#xc4;" horiz-adv-x="548" 
d="M491 14c1.33301 -9.33301 -2.33398 -13.999 -11.001 -13.999h-54c-9.33301 0 -14.333 4.33301 -15 13l-20 164h-244l-81 -161c-3.33301 -6.66699 -6.83301 -11 -10.5 -13s-8.16699 -3 -13.5 -3h-55c-9.33301 0 -11 5.33301 -5 16l329 631c4.66699 10 12 15 22 15h55
c6.66699 0 10.834 -1.33301 12.501 -4s3.16699 -6.33398 4.5 -11.001zM357 465.001c-2.66699 24 -4.66699 45.666 -6 64.999s-2.33301 34.333 -3 45h-3l-19.5 -43.5c-8.33301 -18.333 -18.5 -39.166 -30.5 -62.499l-10.5 -21.5l-20.5 -40.5l-25 -49.5l-25 -49.5l-20.5 -39.5
l-10.5 -20.5h201zM330 782c0 -17.333 -4 -31.499 -12 -42.499s-21 -16.5 -39 -16.5c-9.33301 0 -17.5 1.66699 -24.5 5s-10.5 10.666 -10.5 21.999c0 17.333 4 31.333 12 42s21 16 39 16c9.33301 0 17.5 -1.66699 24.5 -5s10.5 -10.333 10.5 -21zM514 782.001
c0 -17.333 -4.16699 -31.499 -12.5 -42.499s-21.5 -16.5 -39.5 -16.5c-9.33301 0 -17.333 1.66699 -24 5s-10 10.666 -10 21.999c0 17.333 4 31.333 12 42s21 16 39 16c9.33301 0 17.5 -1.66699 24.5 -5s10.5 -10.333 10.5 -21z" />
    <glyph glyph-name="Aring" unicode="&#xc5;" horiz-adv-x="548" 
d="M491 14c1.33301 -9.33301 -2.33398 -13.999 -11.001 -13.999h-54c-9.33301 0 -14.333 4.33301 -15 13l-20 164h-244l-81 -161c-3.33301 -6.66699 -6.83301 -11 -10.5 -13s-8.16699 -3 -13.5 -3h-55c-9.33301 0 -11 5.33301 -5 16l329 631c4.66699 10 12 15 22 15h55
c6.66699 0 10.834 -1.33301 12.501 -4s3.16699 -6.33398 4.5 -11.001zM357 465.001c-2.66699 24 -4.66699 45.666 -6 64.999s-2.33301 34.333 -3 45h-3l-19.5 -43.5c-8.33301 -18.333 -18.5 -39.166 -30.5 -62.499l-10.5 -21.5l-20.5 -40.5l-25 -49.5l-25 -49.5l-20.5 -39.5
l-10.5 -20.5h201zM365 675c-11.333 0 -22.1689 2 -32.502 6s-19.5 9.5 -27.5 16.5s-14.333 15.333 -19 25s-7 20.5 -7 32.5c0 18 3.33301 34 10 48s15.334 26 26.001 36s23 17.667 37 23s28 8 42 8c24.667 0 45.334 -7.66699 62.001 -23s25 -34 25 -56
c0 -33.333 -10.833 -61 -32.5 -83s-49.5 -33 -83.5 -33zM370.997 722c15.333 0 29.166 5.5 41.499 16.5s18.5 25.167 18.5 42.5c0 11.333 -3.5 21.333 -10.5 30s-16.833 13 -29.5 13c-18 0 -32.333 -6.5 -43 -19.5s-16 -27.167 -16 -42.5
c0 -11.333 3.33301 -20.833 10 -28.5s16.334 -11.5 29.001 -11.5z" />
    <glyph glyph-name="AE" unicode="&#xc6;" horiz-adv-x="809" 
d="M402 184h-223l-117 -168c-5.33301 -6.66699 -10.166 -11 -14.499 -13s-9.16602 -3 -14.499 -3h-56c-4.66699 -0 -8 0.833008 -10 2.5s-0.666992 5.5 4 11.5l449 634c6.66699 10 15.334 15 26.001 15h387c10.667 0 15.667 -5.33301 15 -16l-6 -39
c-0.666992 -11.333 -7.33398 -17 -20.001 -17h-284l-30 -211h255c12 0 17 -5.33301 15 -16l-5 -39c-2 -10.667 -8.66699 -16 -20 -16h-255l-33 -238h292c10.667 0 15 -5.66699 13 -17l-5 -38c-1.33301 -6.66699 -3.33301 -11 -6 -13s-7 -3 -13 -3h-351
c-8.66699 0 -13.834 1 -15.501 3s-1.83398 5.33301 -0.500977 10zM232 258h180l50 329h-3z" />
    <glyph glyph-name="Ccedilla" unicode="&#xc7;" horiz-adv-x="538" 
d="M236 -188c-8.66699 0 -19.832 0.830078 -33.499 2.49707s-25.167 4.16699 -34.5 7.5c-5.33301 2 -7 5.66699 -5 11l7 19c1.33301 2 2.66602 3.5 3.99902 4.5s4 1.16699 8 0.5c9.33301 -1.33301 19.333 -2.5 30 -3.5s19.667 -1.5 27 -1.5c6.66699 0 13.667 0.5 21 1.5
s13.833 2.83301 19.5 5.5s10.334 6.5 14.001 11.5s5.5 11.833 5.5 20.5c0 11.333 -4.5 18.833 -13.5 22.5s-23.5 6.16699 -43.5 7.5c-13.333 1.33301 -16.333 8.66602 -9 21.999l25 50c-33.333 2 -61.5 8.16699 -84.5 18.5s-41.667 24.5 -56 42.5s-24.833 39.5 -31.5 64.5
s-10 53.167 -10 84.5c0 20 1.16699 40.167 3.5 60.5s5.16602 40.5 8.49902 60.5c8 42.667 18.5 84.834 31.5 126.501s31.333 78.667 55 111s53.834 58.5 90.501 78.5s82.667 30 138 30c10 0 22.667 -0.333008 38 -1s31.5 -2 48.5 -4s33.833 -4.66699 50.5 -8
s31 -7.66602 43 -12.999c6.66699 -3.33301 10.334 -6.66602 11.001 -9.99902s0 -7.33301 -2 -12l-12 -28c-1.33301 -3.33301 -3.5 -6.33301 -6.5 -9s-7.83301 -3.33398 -14.5 -2.00098c-21.333 3.33301 -46.5 6.5 -75.5 9.5s-58.167 4.5 -87.5 4.5
c-39.333 0 -72 -7.5 -98 -22.5s-47.333 -35.167 -64 -60.5s-29.834 -54.5 -39.501 -87.5s-17.834 -67.167 -24.501 -102.5c-4 -18.667 -7.16699 -37.167 -9.5 -55.5s-3.5 -36.166 -3.5 -53.499c0 -23.333 2.33301 -44.166 7 -62.499s12.167 -34 22.5 -47
s24.166 -23 41.499 -30s38.666 -10.5 63.999 -10.5c30.667 0 60.334 1.5 89.001 4.5s55 6.16699 79 9.5c7.33301 1.33301 12.166 0.5 14.499 -2.5s3.5 -6.16699 3.5 -9.5v-26c0 -5.33301 -0.666992 -9.66602 -2 -12.999s-5.66602 -6.33301 -12.999 -9
c-11.333 -4 -24.166 -7.66699 -38.499 -11s-29 -6 -44 -8s-29.667 -3.5 -44 -4.5s-27.166 -1.83301 -38.499 -2.5l-19 -37c28 -1.33301 47.667 -7.5 59 -18.5s17 -24.833 17 -41.5c0 -15.333 -3.16699 -28.333 -9.5 -39s-14.833 -19.334 -25.5 -26.001
s-23.334 -11.5 -38.001 -14.5s-30 -4.5 -46 -4.5z" />
    <glyph glyph-name="Egrave" unicode="&#xc8;" horiz-adv-x="505" 
d="M532 608c-2 -11.333 -9 -17 -21 -17h-284l-41 -211h255c11.333 0 16 -5.33301 14 -16l-8 -39c-2 -10.667 -8.66699 -16 -20 -16h-255l-46 -238h292c10.667 0 15 -5.66699 13 -17l-8 -38c-1.33301 -6.66699 -3.5 -11 -6.5 -13s-7.5 -3 -13.5 -3h-351
c-12 -0 -17 5.33301 -15 16l123 630c2 11.333 9 17 21 17h345c11.333 0 16 -5.33301 14 -16zM222 832c4 7.33301 9.33301 9.00098 16 5.00098l146 -95c8 -4.66699 10 -9 6 -13l-16 -23c-4 -4.66699 -8.66699 -5.66699 -14 -3l-155 75
c-2 1.33301 -4.16699 3.16602 -6.5 5.49902s-2.5 5.5 -0.5 9.5z" />
    <glyph glyph-name="Eacute" unicode="&#xc9;" horiz-adv-x="505" 
d="M532 608c-2 -11.333 -9 -17 -21 -17h-284l-41 -211h255c11.333 0 16 -5.33301 14 -16l-8 -39c-2 -10.667 -8.66699 -16 -20 -16h-255l-46 -238h292c10.667 0 15 -5.66699 13 -17l-8 -38c-1.33301 -6.66699 -3.5 -11 -6.5 -13s-7.5 -3 -13.5 -3h-351
c-12 -0 -17 5.33301 -15 16l123 630c2 11.333 9 17 21 17h345c11.333 0 16 -5.33301 14 -16zM511 793c2 -4 1.83301 -7.16797 -0.5 -9.50098s-4.5 -4.16602 -6.5 -5.49902l-155 -75c-5.33301 -2.66699 -10 -1.66699 -14 3l-16 23c-4 4 -2 8.33301 6 13l146 95
c6.66699 4 12 2.33301 16 -5z" />
    <glyph glyph-name="Ecircumflex" unicode="&#xca;" horiz-adv-x="505" 
d="M532 608c-2 -11.333 -9 -17 -21 -17h-284l-41 -211h255c11.333 0 16 -5.33301 14 -16l-8 -39c-2 -10.667 -8.66699 -16 -20 -16h-255l-46 -238h292c10.667 0 15 -5.66699 13 -17l-8 -38c-1.33301 -6.66699 -3.5 -11 -6.5 -13s-7.5 -3 -13.5 -3h-351
c-12 -0 -17 5.33301 -15 16l123 630c2 11.333 9 17 21 17h345c11.333 0 16 -5.33301 14 -16zM484 708c-6 -4.66699 -11.332 -5.00098 -15.999 -1.00098l-96 84l-141 -88c-5.33301 -3.33301 -8.83301 -5.16602 -10.5 -5.49902s-4.16699 1.16699 -7.5 4.5l-15 20
c-2.66699 4 -1.66699 8.33301 3 13l122 97c10 7.33301 19.667 11 29 11h47c7.33301 0 12.833 -0.833008 16.5 -2.5s7.16699 -4.16699 10.5 -7.5l81 -94c3.33301 -2.66699 4.66602 -5.5 3.99902 -8.5s-2.66699 -5.5 -6 -7.5z" />
    <glyph glyph-name="Edieresis" unicode="&#xcb;" horiz-adv-x="505" 
d="M532 608c-2 -11.333 -9 -17 -21 -17h-284l-41 -211h255c11.333 0 16 -5.33301 14 -16l-8 -39c-2 -10.667 -8.66699 -16 -20 -16h-255l-46 -238h292c10.667 0 15 -5.66699 13 -17l-8 -38c-1.33301 -6.66699 -3.5 -11 -6.5 -13s-7.5 -3 -13.5 -3h-351
c-12 -0 -17 5.33301 -15 16l123 630c2 11.333 9 17 21 17h345c11.333 0 16 -5.33301 14 -16zM504 782c0 -17.333 -4.16699 -31.499 -12.5 -42.499s-21.5 -16.5 -39.5 -16.5c-9.33301 0 -17.333 1.66699 -24 5s-10 10.666 -10 21.999c0 17.333 4 31.333 12 42s21 16 39 16
c9.33301 0 17.5 -1.66699 24.5 -5s10.5 -10.333 10.5 -21zM320 782.001c0 -17.333 -4 -31.499 -12 -42.499s-21 -16.5 -39 -16.5c-9.33301 0 -17.5 1.66699 -24.5 5s-10.5 10.666 -10.5 21.999c0 17.333 4 31.333 12 42s21 16 39 16c9.33301 0 17.5 -1.66699 24.5 -5
s10.5 -10.333 10.5 -21z" />
    <glyph glyph-name="Igrave" unicode="&#xcc;" horiz-adv-x="254" 
d="M128 17c-2.66699 -11.333 -9.33105 -17 -19.998 -17h-43c-12 0 -16.667 5.66699 -14 17l122 628c1.33301 7.33301 3.66602 12.166 6.99902 14.499s8 3.5 14 3.5h43c5.33301 0 9.16602 -1.16699 11.499 -3.5s2.83301 -7.16602 1.5 -14.499zM77.0029 832
c4 7.33301 9.33301 9.00098 16 5.00098l146 -95c8 -4.66699 10 -9 6 -13l-16 -23c-4 -4.66699 -8.66699 -5.66699 -14 -3l-155 75c-2 1.33301 -4.16699 3.16602 -6.5 5.49902s-2.5 5.5 -0.5 9.5z" />
    <glyph glyph-name="Iacute" unicode="&#xcd;" horiz-adv-x="254" 
d="M128 17c-2.66699 -11.333 -9.33105 -17 -19.998 -17h-43c-12 0 -16.667 5.66699 -14 17l122 628c1.33301 7.33301 3.66602 12.166 6.99902 14.499s8 3.5 14 3.5h43c5.33301 0 9.16602 -1.16699 11.499 -3.5s2.83301 -7.16602 1.5 -14.499zM388.003 793
c2 -4 1.83301 -7.16797 -0.5 -9.50098s-4.5 -4.16602 -6.5 -5.49902l-155 -75c-5.33301 -2.66699 -10 -1.66699 -14 3l-16 23c-4 4 -2 8.33301 6 13l146 95c6.66699 4 12 2.33301 16 -5z" />
    <glyph glyph-name="Icircumflex" unicode="&#xce;" horiz-adv-x="254" 
d="M128 17c-2.66699 -11.333 -9.33105 -17 -19.998 -17h-43c-12 0 -16.667 5.66699 -14 17l122 628c1.33301 7.33301 3.66602 12.166 6.99902 14.499s8 3.5 14 3.5h43c5.33301 0 9.16602 -1.16699 11.499 -3.5s2.83301 -7.16602 1.5 -14.499zM357.003 708
c-6 -4.66699 -11.332 -5.00098 -15.999 -1.00098l-96 84l-141 -88c-5.33301 -3.33301 -8.83301 -5.16602 -10.5 -5.49902s-4.16699 1.16699 -7.5 4.5l-15 20c-2.66699 4 -1.66699 8.33301 3 13l122 97c10 7.33301 19.667 11 29 11h47c7.33301 0 12.833 -0.833008 16.5 -2.5
s7.16699 -4.16699 10.5 -7.5l81 -94c3.33301 -2.66699 4.66602 -5.5 3.99902 -8.5s-2.66699 -5.5 -6 -7.5z" />
    <glyph glyph-name="Idieresis" unicode="&#xcf;" horiz-adv-x="254" 
d="M128 17c-2.66699 -11.333 -9.33105 -17 -19.998 -17h-43c-12 0 -16.667 5.66699 -14 17l122 628c1.33301 7.33301 3.66602 12.166 6.99902 14.499s8 3.5 14 3.5h43c5.33301 0 9.16602 -1.16699 11.499 -3.5s2.83301 -7.16602 1.5 -14.499zM366.003 782
c0 -17.333 -4.16699 -31.499 -12.5 -42.499s-21.5 -16.5 -39.5 -16.5c-9.33301 0 -17.333 1.66699 -24 5s-10 10.666 -10 21.999c0 17.333 4 31.333 12 42s21 16 39 16c9.33301 0 17.5 -1.66699 24.5 -5s10.5 -10.333 10.5 -21zM182.003 782.001
c0 -17.333 -4 -31.499 -12 -42.499s-21 -16.5 -39 -16.5c-9.33301 0 -17.5 1.66699 -24.5 5s-10.5 10.666 -10.5 21.999c0 17.333 4 31.333 12 42s21 16 39 16c9.33301 0 17.5 -1.66699 24.5 -5s10.5 -10.333 10.5 -21z" />
    <glyph glyph-name="Eth" unicode="&#xd0;" horiz-adv-x="617" 
d="M588 438c0 -17.333 -0.666016 -34.8359 -1.99902 -52.5029s-3.33301 -35.167 -6 -52.5c-6.66699 -47.333 -16.667 -91.166 -30 -131.499s-32 -75.5 -56 -105.5s-54.167 -53.5 -90.5 -70.5s-81.166 -25.5 -134.499 -25.5h-212c-5.33301 0 -10 0.833008 -14 2.5
s-5.33301 5.83398 -4 12.501l1 5l57 295h-36c-4 0 -7.33301 0.833008 -10 2.5s-3.33398 4.83398 -2.00098 9.50098l8 38c1.33301 5.33301 3.16602 8.83301 5.49902 10.5s5.83301 2.5 10.5 2.5h36l52 268c2.66699 10.667 10 16 22 16h184c76.667 0 132.667 -18.5 168 -55.5
s53 -93.167 53 -168.5zM329.001 326.997c-2 -8 -7.33301 -11.998 -16 -11.998h-138l-47 -243h135c40 0 73.5 6.5 100.5 19.5s49.333 30.833 67 53.5s31.5 49.5 41.5 80.5s18 64.167 24 99.5c3.33301 17.333 6 34.666 8 51.999s3 34.666 3 51.999
c0 50 -11.167 89.5 -33.5 118.5s-60.833 43.5 -115.5 43.5h-129l-42 -213h138c4.66699 0 8.16699 -0.833008 10.5 -2.5s2.83301 -5.16699 1.5 -10.5z" />
    <glyph glyph-name="Ntilde" unicode="&#xd1;" horiz-adv-x="629" 
d="M520 16c-2.66699 -10.667 -9.33008 -16 -19.9971 -16h-34c-7.33301 -0 -12.333 1.33301 -15 4s-5.33398 6.66699 -8.00098 12l-192 415l-38 92l-2 2l-2 -2l-98 -506c-2.66699 -11.333 -9.33398 -17 -20.001 -17h-41c-12 0 -16.667 5.66699 -14 17l122 631
c2 10 8.33301 15 19 15h38c6.66699 0 11.5 -1.5 14.5 -4.5s5.5 -6.83301 7.5 -11.5l193 -421l36 -84l1 -1l2 1l97 503c1.33301 7.33301 3.66602 12.166 6.99902 14.499s8 3.5 14 3.5h41c6 0 10.167 -1.16699 12.5 -3.5s2.83301 -7.16602 1.5 -14.499zM457.004 691
c-11.333 0 -23.1699 2.8291 -35.5029 8.49609s-24.666 11.667 -36.999 18l-36 18c-11.667 5.66699 -22.5 8.5 -32.5 8.5c-5.33301 0 -13 -2 -23 -6s-22 -14.667 -36 -32c-2 -3.33301 -4.33301 -5.66602 -7 -6.99902s-6.33398 -0.333008 -11.001 3l-19 14
c-3.33301 2.66699 -4.66602 5.33398 -3.99902 8.00098s1.66699 5.33398 3 8.00098c8.66699 15.333 18 28 28 38s19.833 17.833 29.5 23.5s19.167 9.5 28.5 11.5s18 3 26 3c12.667 0 25.167 -2.66699 37.5 -8s24.5 -11.333 36.5 -18s23.333 -12.667 34 -18s21 -8 31 -8
c11.333 0 21.333 3.33301 30 10s17.667 16.334 27 29.001c2 2.66699 4.33301 5 7 7s6.33398 2 11.001 0l19 -9c4 -2 5.66699 -4.66699 5 -8s-1.66699 -6 -3 -8c-29.333 -57.333 -65.666 -86 -108.999 -86z" />
    <glyph glyph-name="Ograve" unicode="&#xd2;" horiz-adv-x="640" 
d="M615 459c0 -20 -1.33301 -39.833 -4 -59.5s-5.66699 -39.167 -9 -58.5c-8 -46.667 -18.5 -91.167 -31.5 -133.5s-31.333 -79.5 -55 -111.5s-54 -57.5 -91 -76.5s-83.5 -28.5 -139.5 -28.5c-72.667 0 -126.167 18.167 -160.5 54.5s-51.5 90.166 -51.5 161.499
c0 22.667 1.5 45 4.5 67s6.5 44.333 10.5 67c8 43.333 19 84.833 33 124.5s32.833 74.834 56.5 105.501s53 55 88 73s78.167 27 129.5 27c72 0 126.667 -17 164 -51s56 -87.667 56 -161zM536 452c0 49.333 -10.833 86.8359 -32.5 112.503s-58.5 38.5 -110.5 38.5
c-38.667 0 -71 -8.16699 -97 -24.5s-47.667 -37.5 -65 -63.5s-31 -55.167 -41 -87.5s-18 -64.5 -24 -96.5c-4 -19.333 -7.16699 -39 -9.5 -59s-3.5 -39.667 -3.5 -59c0 -46.667 10 -83.667 30 -111s55 -41 105 -41c41.333 0 75.666 7.83301 102.999 23.5
s49.5 36.167 66.5 61.5s30.333 54.166 40 86.499s17.834 65.166 24.501 98.499c4 19.333 7.33301 39.166 10 59.499s4 40.833 4 61.5zM330 832.003c4 7.33301 9.33301 9.00098 16 5.00098l146 -95c8 -4.66699 10 -9 6 -13l-16 -23c-4 -4.66699 -8.66699 -5.66699 -14 -3
l-155 75c-2 1.33301 -4.16699 3.16602 -6.5 5.49902s-2.5 5.5 -0.5 9.5z" />
    <glyph glyph-name="Oacute" unicode="&#xd3;" horiz-adv-x="640" 
d="M615 459c0 -20 -1.33301 -39.833 -4 -59.5s-5.66699 -39.167 -9 -58.5c-8 -46.667 -18.5 -91.167 -31.5 -133.5s-31.333 -79.5 -55 -111.5s-54 -57.5 -91 -76.5s-83.5 -28.5 -139.5 -28.5c-72.667 0 -126.167 18.167 -160.5 54.5s-51.5 90.166 -51.5 161.499
c0 22.667 1.5 45 4.5 67s6.5 44.333 10.5 67c8 43.333 19 84.833 33 124.5s32.833 74.834 56.5 105.501s53 55 88 73s78.167 27 129.5 27c72 0 126.667 -17 164 -51s56 -87.667 56 -161zM536 452c0 49.333 -10.833 86.8359 -32.5 112.503s-58.5 38.5 -110.5 38.5
c-38.667 0 -71 -8.16699 -97 -24.5s-47.667 -37.5 -65 -63.5s-31 -55.167 -41 -87.5s-18 -64.5 -24 -96.5c-4 -19.333 -7.16699 -39 -9.5 -59s-3.5 -39.667 -3.5 -59c0 -46.667 10 -83.667 30 -111s55 -41 105 -41c41.333 0 75.666 7.83301 102.999 23.5
s49.5 36.167 66.5 61.5s30.333 54.166 40 86.499s17.834 65.166 24.501 98.499c4 19.333 7.33301 39.166 10 59.499s4 40.833 4 61.5zM551 793.003c2 -4 1.83301 -7.16797 -0.5 -9.50098s-4.5 -4.16602 -6.5 -5.49902l-155 -75c-5.33301 -2.66699 -10 -1.66699 -14 3l-16 23
c-4 4 -2 8.33301 6 13l146 95c6.66699 4 12 2.33301 16 -5z" />
    <glyph glyph-name="Ocircumflex" unicode="&#xd4;" horiz-adv-x="640" 
d="M615 459c0 -20 -1.33301 -39.833 -4 -59.5s-5.66699 -39.167 -9 -58.5c-8 -46.667 -18.5 -91.167 -31.5 -133.5s-31.333 -79.5 -55 -111.5s-54 -57.5 -91 -76.5s-83.5 -28.5 -139.5 -28.5c-72.667 0 -126.167 18.167 -160.5 54.5s-51.5 90.166 -51.5 161.499
c0 22.667 1.5 45 4.5 67s6.5 44.333 10.5 67c8 43.333 19 84.833 33 124.5s32.833 74.834 56.5 105.501s53 55 88 73s78.167 27 129.5 27c72 0 126.667 -17 164 -51s56 -87.667 56 -161zM536 452c0 49.333 -10.833 86.8359 -32.5 112.503s-58.5 38.5 -110.5 38.5
c-38.667 0 -71 -8.16699 -97 -24.5s-47.667 -37.5 -65 -63.5s-31 -55.167 -41 -87.5s-18 -64.5 -24 -96.5c-4 -19.333 -7.16699 -39 -9.5 -59s-3.5 -39.667 -3.5 -59c0 -46.667 10 -83.667 30 -111s55 -41 105 -41c41.333 0 75.666 7.83301 102.999 23.5
s49.5 36.167 66.5 61.5s30.333 54.166 40 86.499s17.834 65.166 24.501 98.499c4 19.333 7.33301 39.166 10 59.499s4 40.833 4 61.5zM556 708.003c-6 -4.66699 -11.332 -5.00098 -15.999 -1.00098l-96 84l-141 -88c-5.33301 -3.33301 -8.83301 -5.16602 -10.5 -5.49902
s-4.16699 1.16699 -7.5 4.5l-15 20c-2.66699 4 -1.66699 8.33301 3 13l122 97c10 7.33301 19.667 11 29 11h47c7.33301 0 12.833 -0.833008 16.5 -2.5s7.16699 -4.16699 10.5 -7.5l81 -94c3.33301 -2.66699 4.66602 -5.5 3.99902 -8.5s-2.66699 -5.5 -6 -7.5z" />
    <glyph glyph-name="Otilde" unicode="&#xd5;" horiz-adv-x="640" 
d="M615 459c0 -20 -1.33301 -39.833 -4 -59.5s-5.66699 -39.167 -9 -58.5c-8 -46.667 -18.5 -91.167 -31.5 -133.5s-31.333 -79.5 -55 -111.5s-54 -57.5 -91 -76.5s-83.5 -28.5 -139.5 -28.5c-72.667 0 -126.167 18.167 -160.5 54.5s-51.5 90.166 -51.5 161.499
c0 22.667 1.5 45 4.5 67s6.5 44.333 10.5 67c8 43.333 19 84.833 33 124.5s32.833 74.834 56.5 105.501s53 55 88 73s78.167 27 129.5 27c72 0 126.667 -17 164 -51s56 -87.667 56 -161zM536 452c0 49.333 -10.833 86.8359 -32.5 112.503s-58.5 38.5 -110.5 38.5
c-38.667 0 -71 -8.16699 -97 -24.5s-47.667 -37.5 -65 -63.5s-31 -55.167 -41 -87.5s-18 -64.5 -24 -96.5c-4 -19.333 -7.16699 -39 -9.5 -59s-3.5 -39.667 -3.5 -59c0 -46.667 10 -83.667 30 -111s55 -41 105 -41c41.333 0 75.666 7.83301 102.999 23.5
s49.5 36.167 66.5 61.5s30.333 54.166 40 86.499s17.834 65.166 24.501 98.499c4 19.333 7.33301 39.166 10 59.499s4 40.833 4 61.5zM485 701.003c-11.333 0 -23.1699 2.8291 -35.5029 8.49609s-24.666 11.667 -36.999 18l-36 18c-11.667 5.66699 -22.5 8.5 -32.5 8.5
c-5.33301 0 -13 -2 -23 -6s-22 -14.667 -36 -32c-2 -3.33301 -4.33301 -5.66602 -7 -6.99902s-6.33398 -0.333008 -11.001 3l-19 14c-3.33301 2.66699 -4.66602 5.33398 -3.99902 8.00098s1.66699 5.33398 3 8.00098c8.66699 15.333 18 28 28 38s19.833 17.833 29.5 23.5
s19.167 9.5 28.5 11.5s18 3 26 3c12.667 0 25.167 -2.66699 37.5 -8s24.5 -11.333 36.5 -18s23.333 -12.667 34 -18s21 -8 31 -8c11.333 0 21.333 3.33301 30 10s17.667 16.334 27 29.001c2 2.66699 4.33301 5 7 7s6.33398 2 11.001 0l19 -9c4 -2 5.66699 -4.66699 5 -8
s-1.66699 -6 -3 -8c-29.333 -57.333 -65.666 -86 -108.999 -86z" />
    <glyph glyph-name="Odieresis" unicode="&#xd6;" horiz-adv-x="640" 
d="M615 459c0 -20 -1.33301 -39.833 -4 -59.5s-5.66699 -39.167 -9 -58.5c-8 -46.667 -18.5 -91.167 -31.5 -133.5s-31.333 -79.5 -55 -111.5s-54 -57.5 -91 -76.5s-83.5 -28.5 -139.5 -28.5c-72.667 0 -126.167 18.167 -160.5 54.5s-51.5 90.166 -51.5 161.499
c0 22.667 1.5 45 4.5 67s6.5 44.333 10.5 67c8 43.333 19 84.833 33 124.5s32.833 74.834 56.5 105.501s53 55 88 73s78.167 27 129.5 27c72 0 126.667 -17 164 -51s56 -87.667 56 -161zM536 452c0 49.333 -10.833 86.8359 -32.5 112.503s-58.5 38.5 -110.5 38.5
c-38.667 0 -71 -8.16699 -97 -24.5s-47.667 -37.5 -65 -63.5s-31 -55.167 -41 -87.5s-18 -64.5 -24 -96.5c-4 -19.333 -7.16699 -39 -9.5 -59s-3.5 -39.667 -3.5 -59c0 -46.667 10 -83.667 30 -111s55 -41 105 -41c41.333 0 75.666 7.83301 102.999 23.5
s49.5 36.167 66.5 61.5s30.333 54.166 40 86.499s17.834 65.166 24.501 98.499c4 19.333 7.33301 39.166 10 59.499s4 40.833 4 61.5zM563 782.003c0 -17.333 -4.16699 -31.499 -12.5 -42.499s-21.5 -16.5 -39.5 -16.5c-9.33301 0 -17.333 1.66699 -24 5
s-10 10.666 -10 21.999c0 17.333 4 31.333 12 42s21 16 39 16c9.33301 0 17.5 -1.66699 24.5 -5s10.5 -10.333 10.5 -21zM379 782.004c0 -17.333 -4 -31.499 -12 -42.499s-21 -16.5 -39 -16.5c-9.33301 0 -17.5 1.66699 -24.5 5s-10.5 10.666 -10.5 21.999
c0 17.333 4 31.333 12 42s21 16 39 16c9.33301 0 17.5 -1.66699 24.5 -5s10.5 -10.333 10.5 -21z" />
    <glyph glyph-name="multiply" unicode="&#xd7;" horiz-adv-x="556" 
d="M394 155c-7.33301 -5.33301 -13.6689 -4.66602 -19.002 2.00098l-100 125l-155 -130c-3.33301 -2.66699 -6.66602 -4.33398 -9.99902 -5.00098s-6 0.666016 -8 3.99902l-24 29c-3.33301 4 -4.33301 7.33301 -3 10s4 5.66699 8 9l154 129l-102 128
c-5.33301 5.33301 -4.66602 11 2.00098 17l30 25c5.33301 4 9 5.83301 11 5.5s4.33301 -2.16602 7 -5.49902l103 -127l148 123c4 3.33301 7.33301 5.33301 10 6s5.66699 -1 9 -5l23 -29c5.33301 -5.33301 4 -11.333 -4 -18l-149 -124l101 -124c3.33301 -4 5 -7.33301 5 -10
s-2.66699 -6 -8 -10l-29 -25v0z" />
    <glyph glyph-name="Oslash" unicode="&#xd8;" horiz-adv-x="640" 
d="M615 459c0 -20 -1.33496 -39.833 -4.00195 -59.5s-5.66699 -39.167 -9 -58.5c-8 -46.667 -18.5 -91.167 -31.5 -133.5s-31.333 -79.5 -55 -111.5s-54 -57.5 -91 -76.5s-83.5 -28.5 -139.5 -28.5c-67.333 0 -118.333 16 -153 48l-42 -48
c-2.66699 -3.33301 -5.66699 -6.16602 -9 -8.49902s-6.66602 -1.83301 -9.99902 1.5l-19 16c-6 5.33301 -5.33301 11 2 17l49 56c-20 34 -30 78.667 -30 134c0 22.667 1.5 45 4.5 67s6.5 44.333 10.5 67c8 43.333 19 84.833 33 124.5s32.833 74.834 56.5 105.501
s53 55 88 73s78.167 27 129.5 27c82 0 141 -22 177 -66l52 59c2.66699 3.33301 5.33398 6.16602 8.00098 8.49902s6 1.83301 10 -1.5s7.83301 -6.33301 11.5 -9s6.5 -5 8.5 -7c6 -4.66699 5.66699 -10.334 -1 -17.001l-65 -73c12.667 -28 19 -63.333 19 -106zM152.998 213
c0 -28.667 3.33301 -52.999 10 -72.999l355 403c-10.667 19.333 -26.167 34.166 -46.5 44.499s-46.5 15.5 -78.5 15.5c-38.667 0 -71 -8.16699 -97 -24.5s-47.667 -37.5 -65 -63.5s-31 -55.167 -41 -87.5s-18 -64.5 -24 -96.5c-4 -19.333 -7.16699 -39 -9.5 -59
s-3.5 -39.667 -3.5 -59zM535.998 452.001c0 14 -1 27.6699 -3 41.0029l-348 -394c22 -25.333 56.333 -38 103 -38c41.333 0 75.666 7.83301 102.999 23.5s49.5 36.167 66.5 61.5s30.333 54.166 40 86.499s17.834 65.166 24.501 98.499c4 19.333 7.33301 39.166 10 59.499
s4 40.833 4 61.5z" />
    <glyph glyph-name="Ugrave" unicode="&#xd9;" horiz-adv-x="607" 
d="M546 240c-7.33301 -36.667 -17.8291 -70.167 -31.4961 -100.5s-31.5 -56.333 -53.5 -78s-48.333 -38.5 -79 -50.5s-66.334 -18 -107.001 -18c-43.333 0 -79.333 5.83301 -108 17.5s-51 28.334 -67 50.001s-25.833 47.667 -29.5 78s-1.83398 64.166 5.49902 101.499
l79 405c1.33301 7.33301 3.66602 12.166 6.99902 14.499s8 3.5 14 3.5h43c5.33301 0 9.16602 -1.16699 11.499 -3.5s2.83301 -7.16602 1.5 -14.499l-79 -408c-10.667 -55.333 -6.5 -98 12.5 -128s55.833 -45 110.5 -45c52 0 94.333 14 127 42s54.667 71.667 66 131l79 408
c1.33301 7.33301 3.83301 12.166 7.5 14.499s8.16699 3.5 13.5 3.5h43c6 0 10.167 -1.16699 12.5 -3.5s2.83301 -7.16602 1.5 -14.499zM274.004 832c4 7.33301 9.33301 9.00098 16 5.00098l146 -95c8 -4.66699 10 -9 6 -13l-16 -23c-4 -4.66699 -8.66699 -5.66699 -14 -3
l-155 75c-2 1.33301 -4.16699 3.16602 -6.5 5.49902s-2.5 5.5 -0.5 9.5z" />
    <glyph glyph-name="Uacute" unicode="&#xda;" horiz-adv-x="607" 
d="M546 240c-7.33301 -36.667 -17.8291 -70.167 -31.4961 -100.5s-31.5 -56.333 -53.5 -78s-48.333 -38.5 -79 -50.5s-66.334 -18 -107.001 -18c-43.333 0 -79.333 5.83301 -108 17.5s-51 28.334 -67 50.001s-25.833 47.667 -29.5 78s-1.83398 64.166 5.49902 101.499
l79 405c1.33301 7.33301 3.66602 12.166 6.99902 14.499s8 3.5 14 3.5h43c5.33301 0 9.16602 -1.16699 11.499 -3.5s2.83301 -7.16602 1.5 -14.499l-79 -408c-10.667 -55.333 -6.5 -98 12.5 -128s55.833 -45 110.5 -45c52 0 94.333 14 127 42s54.667 71.667 66 131l79 408
c1.33301 7.33301 3.83301 12.166 7.5 14.499s8.16699 3.5 13.5 3.5h43c6 0 10.167 -1.16699 12.5 -3.5s2.83301 -7.16602 1.5 -14.499zM543.004 793c2 -4 1.83301 -7.16797 -0.5 -9.50098s-4.5 -4.16602 -6.5 -5.49902l-155 -75c-5.33301 -2.66699 -10 -1.66699 -14 3
l-16 23c-4 4 -2 8.33301 6 13l146 95c6.66699 4 12 2.33301 16 -5z" />
    <glyph glyph-name="Ucircumflex" unicode="&#xdb;" horiz-adv-x="607" 
d="M546 240c-7.33301 -36.667 -17.8291 -70.167 -31.4961 -100.5s-31.5 -56.333 -53.5 -78s-48.333 -38.5 -79 -50.5s-66.334 -18 -107.001 -18c-43.333 0 -79.333 5.83301 -108 17.5s-51 28.334 -67 50.001s-25.833 47.667 -29.5 78s-1.83398 64.166 5.49902 101.499
l79 405c1.33301 7.33301 3.66602 12.166 6.99902 14.499s8 3.5 14 3.5h43c5.33301 0 9.16602 -1.16699 11.499 -3.5s2.83301 -7.16602 1.5 -14.499l-79 -408c-10.667 -55.333 -6.5 -98 12.5 -128s55.833 -45 110.5 -45c52 0 94.333 14 127 42s54.667 71.667 66 131l79 408
c1.33301 7.33301 3.83301 12.166 7.5 14.499s8.16699 3.5 13.5 3.5h43c6 0 10.167 -1.16699 12.5 -3.5s2.83301 -7.16602 1.5 -14.499zM540.004 708c-6 -4.66699 -11.332 -5.00098 -15.999 -1.00098l-96 84l-141 -88c-5.33301 -3.33301 -8.83301 -5.16602 -10.5 -5.49902
s-4.16699 1.16699 -7.5 4.5l-15 20c-2.66699 4 -1.66699 8.33301 3 13l122 97c10 7.33301 19.667 11 29 11h47c7.33301 0 12.833 -0.833008 16.5 -2.5s7.16699 -4.16699 10.5 -7.5l81 -94c3.33301 -2.66699 4.66602 -5.5 3.99902 -8.5s-2.66699 -5.5 -6 -7.5z" />
    <glyph glyph-name="Udieresis" unicode="&#xdc;" horiz-adv-x="607" 
d="M546 240c-7.33301 -36.667 -17.8291 -70.167 -31.4961 -100.5s-31.5 -56.333 -53.5 -78s-48.333 -38.5 -79 -50.5s-66.334 -18 -107.001 -18c-43.333 0 -79.333 5.83301 -108 17.5s-51 28.334 -67 50.001s-25.833 47.667 -29.5 78s-1.83398 64.166 5.49902 101.499
l79 405c1.33301 7.33301 3.66602 12.166 6.99902 14.499s8 3.5 14 3.5h43c5.33301 0 9.16602 -1.16699 11.499 -3.5s2.83301 -7.16602 1.5 -14.499l-79 -408c-10.667 -55.333 -6.5 -98 12.5 -128s55.833 -45 110.5 -45c52 0 94.333 14 127 42s54.667 71.667 66 131l79 408
c1.33301 7.33301 3.83301 12.166 7.5 14.499s8.16699 3.5 13.5 3.5h43c6 0 10.167 -1.16699 12.5 -3.5s2.83301 -7.16602 1.5 -14.499zM542.004 782c0 -17.333 -4.16699 -31.499 -12.5 -42.499s-21.5 -16.5 -39.5 -16.5c-9.33301 0 -17.333 1.66699 -24 5
s-10 10.666 -10 21.999c0 17.333 4 31.333 12 42s21 16 39 16c9.33301 0 17.5 -1.66699 24.5 -5s10.5 -10.333 10.5 -21zM358.004 782.001c0 -17.333 -4 -31.499 -12 -42.499s-21 -16.5 -39 -16.5c-9.33301 0 -17.5 1.66699 -24.5 5s-10.5 10.666 -10.5 21.999
c0 17.333 4 31.333 12 42s21 16 39 16c9.33301 0 17.5 -1.66699 24.5 -5s10.5 -10.333 10.5 -21z" />
    <glyph glyph-name="Yacute" unicode="&#xdd;" horiz-adv-x="507" 
d="M310 296l-53.998 -279c-2.66699 -11.333 -9.33398 -17 -20.001 -17h-43c-12 0 -17 5.66699 -15 17l55 279l-130 353c-1.33301 3.33301 -0.833008 6.33301 1.5 9s5.5 4 9.5 4h55c6 0 9.83301 -1 11.5 -3s3.16699 -5 4.5 -9l60 -175l37 -109l83 113l127 171
c5.33301 8 12.666 12 21.999 12h57c11.333 0 13 -5 5 -15zM504.002 793c2 -4 1.83301 -7.16797 -0.5 -9.50098s-4.5 -4.16602 -6.5 -5.49902l-155 -75c-5.33301 -2.66699 -10 -1.66699 -14 3l-16 23c-4 4 -2 8.33301 6 13l146 95c6.66699 4 12 2.33301 16 -5z" />
    <glyph glyph-name="Thorn" unicode="&#xde;" horiz-adv-x="508" 
d="M508 369c0 -34 -5.83301 -64.833 -17.5 -92.5s-27.667 -51.5 -48 -71.5s-45 -35.333 -74 -46s-61.167 -16 -96.5 -16h-141l-25 -126c-2.66699 -11.333 -9.33398 -17 -20.001 -17h-43c-12 0 -16.667 5.66699 -14 17l122 630c2.66699 11.333 9.33398 17 20.001 17h43
c12 0 16.667 -5.66699 14 -17l-22 -111h121c24.667 0 48 -3.5 70 -10.5s41.333 -17.333 58 -31s29.667 -31 39 -52s14 -45.5 14 -73.5zM429 367c0 36 -11.168 61.5 -33.501 76.5s-51.166 22.5 -86.499 22.5l-115 -1l-50 -253h134c46 0 82.667 13.833 110 41.5
s41 65.5 41 113.5z" />
    <glyph glyph-name="germandbls" unicode="&#xdf;" horiz-adv-x="504" 
d="M484 554c-0.666992 -12 -3.66504 -24.833 -8.99805 -38.5s-12.166 -27 -20.499 -40s-18.333 -25.167 -30 -36.5s-23.834 -21 -36.501 -29c29.333 -9.33301 49.333 -23.833 60 -43.5s16 -42.834 16 -69.501c0 -23.333 -1.33301 -45.666 -4 -66.999
s-6.66699 -41.666 -12 -60.999c-14 -56.667 -39.167 -100.334 -75.5 -131.001s-83.833 -46 -142.5 -46c-10 0 -21.333 0.666992 -34 2s-23 3.66602 -31 6.99902c-8.66699 2.66699 -11.667 8.33398 -9 17.001l11 31c2 4.66699 4.5 8.16699 7.5 10.5s9.16699 2.83301 18.5 1.5
c5.33301 -0.666992 10.833 -1 16.5 -1h16.5c40 0 71.167 10.167 93.5 30.5s38.833 49.833 49.5 88.5c1.33301 4.66699 2.83301 10.667 4.5 18s3.16699 15.166 4.5 23.499s2.5 17 3.5 26s1.5 17.5 1.5 25.5c0 28 -6 50.333 -18 67s-34.333 25 -67 25h-13
c-2.66699 0 -5 0.333008 -7 1c-9.33301 0.666992 -13.333 6 -12 16l6 27c0.666992 4 1.66699 7.5 3 10.5s4.33301 5.16699 9 6.5c2 0 4 0.333008 6 1l7 2c7.33301 1.33301 16.666 4.83301 27.999 10.5s22.666 13.5 33.999 23.5s21.333 22.167 30 36.5s14 30.833 16 49.5
c3.33301 30 -2.5 53 -17.5 69s-37.5 24 -67.5 24c-30.667 0 -58.167 -10.167 -82.5 -30.5s-40.166 -50.5 -47.499 -90.5l-99 -507c-2 -12 -9 -18 -21 -18h-42c-11.333 0 -15.666 5.66699 -12.999 17l98 503c6.66699 36 17.667 66.333 33 91s32.666 44.834 51.999 60.501
s39.833 26.834 61.5 33.501s42.167 10 61.5 10c25.333 0 48.5 -3 69.5 -9s38.667 -15.333 53 -28s25.166 -28.834 32.499 -48.501s10 -43.167 8 -70.5z" />
    <glyph glyph-name="agrave" unicode="&#xe0;" horiz-adv-x="517" 
d="M412 17c-2 -11.333 -8.33301 -17 -19 -17h-41c-12 0 -16.667 5.66699 -14 17l7 38c-25.333 -15.333 -52.833 -29.833 -82.5 -43.5s-63.5 -20.5 -101.5 -20.5c-46 0 -78.833 11.5 -98.5 34.5s-29.5 56.833 -29.5 101.5c0 16 1.16699 33.667 3.5 53s5.5 38.666 9.5 57.999
c8 41.333 17.667 78 29 110s26.333 59 45 81s41.334 38.667 68.001 50s59.667 17 99 17c18.667 0 40.167 -3.16699 64.5 -9.5s48.166 -15.5 71.499 -27.5l1 1l3 14c1.33301 6 3.5 9.66699 6.5 11s8.16699 2 15.5 2h37c7.33301 0 12 -1.16699 14 -3.5
s2.33301 -7.16602 1 -14.499zM412 396c-47.333 20.667 -93.334 30.9971 -138.001 30.9971c-22 0 -40.833 -3.16699 -56.5 -9.5s-29.167 -17 -40.5 -32s-21.166 -34.667 -29.499 -59s-15.833 -54.5 -22.5 -90.5c-4 -21.333 -7.16699 -40.666 -9.5 -57.999
s-3.5 -31.666 -3.5 -42.999c0 -31.333 5.83301 -51.666 17.5 -60.999s29.167 -14 52.5 -14c12 0 26 2 42 6s32.333 9 49 15s32.5 12.167 47.5 18.5s27.167 11.833 36.5 16.5zM246.999 676.997c-2.66699 2.66699 -4.33203 5.66602 -4.99902 8.99902s1 6 5 8l41 19
c8 4 14 3 18 -3l96 -143c1.33301 -2 2.16602 -4.66699 2.49902 -8s-1.5 -5.66602 -5.5 -6.99902l-25 -13c-6.66699 -2.66699 -11.667 -1.66699 -15 3z" />
    <glyph glyph-name="aacute" unicode="&#xe1;" horiz-adv-x="517" 
d="M412 17c-2 -11.333 -8.33301 -17 -19 -17h-41c-12 0 -16.667 5.66699 -14 17l7 38c-25.333 -15.333 -52.833 -29.833 -82.5 -43.5s-63.5 -20.5 -101.5 -20.5c-46 0 -78.833 11.5 -98.5 34.5s-29.5 56.833 -29.5 101.5c0 16 1.16699 33.667 3.5 53s5.5 38.666 9.5 57.999
c8 41.333 17.667 78 29 110s26.333 59 45 81s41.334 38.667 68.001 50s59.667 17 99 17c18.667 0 40.167 -3.16699 64.5 -9.5s48.166 -15.5 71.499 -27.5l1 1l3 14c1.33301 6 3.5 9.66699 6.5 11s8.16699 2 15.5 2h37c7.33301 0 12 -1.16699 14 -3.5
s2.33301 -7.16602 1 -14.499zM412 396c-47.333 20.667 -93.334 30.9971 -138.001 30.9971c-22 0 -40.833 -3.16699 -56.5 -9.5s-29.167 -17 -40.5 -32s-21.166 -34.667 -29.499 -59s-15.833 -54.5 -22.5 -90.5c-4 -21.333 -7.16699 -40.666 -9.5 -57.999
s-3.5 -31.666 -3.5 -42.999c0 -31.333 5.83301 -51.666 17.5 -60.999s29.167 -14 52.5 -14c12 0 26 2 42 6s32.333 9 49 15s32.5 12.167 47.5 18.5s27.167 11.833 36.5 16.5zM329.999 545.997c-4 -4.66699 -9.33301 -5.66602 -16 -2.99902l-23 9
c-3.33301 1.33301 -5 3.66602 -5 6.99902s0.666992 6 2 8l97 143c4 6 9.66699 7 17 3l41 -19c4 -2 5.66699 -4.66699 5 -8s-2 -6.33301 -4 -9z" />
    <glyph glyph-name="acircumflex" unicode="&#xe2;" horiz-adv-x="517" 
d="M412 17c-2 -11.333 -8.33301 -17 -19 -17h-41c-12 0 -16.667 5.66699 -14 17l7 38c-25.333 -15.333 -52.833 -29.833 -82.5 -43.5s-63.5 -20.5 -101.5 -20.5c-46 0 -78.833 11.5 -98.5 34.5s-29.5 56.833 -29.5 101.5c0 16 1.16699 33.667 3.5 53s5.5 38.666 9.5 57.999
c8 41.333 17.667 78 29 110s26.333 59 45 81s41.334 38.667 68.001 50s59.667 17 99 17c18.667 0 40.167 -3.16699 64.5 -9.5s48.166 -15.5 71.499 -27.5l1 1l3 14c1.33301 6 3.5 9.66699 6.5 11s8.16699 2 15.5 2h37c7.33301 0 12 -1.16699 14 -3.5
s2.33301 -7.16602 1 -14.499zM412 396c-47.333 20.667 -93.334 30.9971 -138.001 30.9971c-22 0 -40.833 -3.16699 -56.5 -9.5s-29.167 -17 -40.5 -32s-21.166 -34.667 -29.499 -59s-15.833 -54.5 -22.5 -90.5c-4 -21.333 -7.16699 -40.666 -9.5 -57.999
s-3.5 -31.666 -3.5 -42.999c0 -31.333 5.83301 -51.666 17.5 -60.999s29.167 -14 52.5 -14c12 0 26 2 42 6s32.333 9 49 15s32.5 12.167 47.5 18.5s27.167 11.833 36.5 16.5zM470.999 565.997c4.66699 -7.33301 3.99902 -12.333 -2.00098 -15l-23 -11
c-3.33301 -2 -6.33301 -3.5 -9 -4.5s-5 0.166992 -7 3.5l-87 111l-126 -109c-4 -3.33301 -7.16699 -4.83301 -9.5 -4.5s-5.16602 1.83301 -8.49902 4.5l-24 16c-3.33301 1.33301 -4.5 3 -3.5 5s2.83301 4.66699 5.5 8l118 122c4 4.66699 8 7.66699 12 9s9.66699 2 17 2h48
c9.33301 0 15.5 -0.833008 18.5 -2.5s5.83301 -4.16699 8.5 -7.5z" />
    <glyph glyph-name="atilde" unicode="&#xe3;" horiz-adv-x="517" 
d="M412 17c-2 -11.333 -8.33301 -17 -19 -17h-41c-12 0 -16.667 5.66699 -14 17l7 38c-25.333 -15.333 -52.833 -29.833 -82.5 -43.5s-63.5 -20.5 -101.5 -20.5c-46 0 -78.833 11.5 -98.5 34.5s-29.5 56.833 -29.5 101.5c0 16 1.16699 33.667 3.5 53s5.5 38.666 9.5 57.999
c8 41.333 17.667 78 29 110s26.333 59 45 81s41.334 38.667 68.001 50s59.667 17 99 17c18.667 0 40.167 -3.16699 64.5 -9.5s48.166 -15.5 71.499 -27.5l1 1l3 14c1.33301 6 3.5 9.66699 6.5 11s8.16699 2 15.5 2h37c7.33301 0 12 -1.16699 14 -3.5
s2.33301 -7.16602 1 -14.499zM412 396c-47.333 20.667 -93.334 30.9971 -138.001 30.9971c-22 0 -40.833 -3.16699 -56.5 -9.5s-29.167 -17 -40.5 -32s-21.166 -34.667 -29.499 -59s-15.833 -54.5 -22.5 -90.5c-4 -21.333 -7.16699 -40.666 -9.5 -57.999
s-3.5 -31.666 -3.5 -42.999c0 -31.333 5.83301 -51.666 17.5 -60.999s29.167 -14 52.5 -14c12 0 26 2 42 6s32.333 9 49 15s32.5 12.167 47.5 18.5s27.167 11.833 36.5 16.5zM404.999 550.997c-11.333 0 -23.1699 2.8291 -35.5029 8.49609s-24.666 11.667 -36.999 18l-36 18
c-11.667 5.66699 -22.5 8.5 -32.5 8.5c-5.33301 0 -13 -2 -23 -6s-22 -14.667 -36 -32c-2 -3.33301 -4.33301 -5.66602 -7 -6.99902s-6.33398 -0.333008 -11.001 3l-19 14c-3.33301 2.66699 -4.66602 5.33398 -3.99902 8.00098s1.66699 5.33398 3 8.00098
c8.66699 15.333 18 28 28 38s19.833 17.833 29.5 23.5s19.167 9.5 28.5 11.5s18 3 26 3c12.667 0 25.167 -2.66699 37.5 -8s24.5 -11.333 36.5 -18s23.333 -12.667 34 -18s21 -8 31 -8c11.333 0 21.333 3.33301 30 10s17.667 16.334 27 29.001c2 2.66699 4.33301 5 7 7
s6.33398 2 11.001 0l19 -9c4 -2 5.66699 -4.66699 5 -8s-1.66699 -6 -3 -8c-29.333 -57.333 -65.666 -86 -108.999 -86z" />
    <glyph glyph-name="adieresis" unicode="&#xe4;" horiz-adv-x="517" 
d="M412 17c-2 -11.333 -8.33301 -17 -19 -17h-41c-12 0 -16.667 5.66699 -14 17l7 38c-25.333 -15.333 -52.833 -29.833 -82.5 -43.5s-63.5 -20.5 -101.5 -20.5c-46 0 -78.833 11.5 -98.5 34.5s-29.5 56.833 -29.5 101.5c0 16 1.16699 33.667 3.5 53s5.5 38.666 9.5 57.999
c8 41.333 17.667 78 29 110s26.333 59 45 81s41.334 38.667 68.001 50s59.667 17 99 17c18.667 0 40.167 -3.16699 64.5 -9.5s48.166 -15.5 71.499 -27.5l1 1l3 14c1.33301 6 3.5 9.66699 6.5 11s8.16699 2 15.5 2h37c7.33301 0 12 -1.16699 14 -3.5
s2.33301 -7.16602 1 -14.499zM412 396c-47.333 20.667 -93.334 30.9971 -138.001 30.9971c-22 0 -40.833 -3.16699 -56.5 -9.5s-29.167 -17 -40.5 -32s-21.166 -34.667 -29.499 -59s-15.833 -54.5 -22.5 -90.5c-4 -21.333 -7.16699 -40.666 -9.5 -57.999
s-3.5 -31.666 -3.5 -42.999c0 -31.333 5.83301 -51.666 17.5 -60.999s29.167 -14 52.5 -14c12 0 26 2 42 6s32.333 9 49 15s32.5 12.167 47.5 18.5s27.167 11.833 36.5 16.5zM474.999 624.997c0 -17.333 -4.16699 -31.499 -12.5 -42.499s-21.5 -16.5 -39.5 -16.5
c-9.33301 0 -17.333 1.66699 -24 5s-10 10.666 -10 21.999c0 17.333 4 31.333 12 42s21 16 39 16c9.33301 0 17.5 -1.66699 24.5 -5s10.5 -10.333 10.5 -21zM290.999 624.998c0 -17.333 -4 -31.499 -12 -42.499s-21 -16.5 -39 -16.5c-9.33301 0 -17.5 1.66699 -24.5 5
s-10.5 10.666 -10.5 21.999c0 17.333 4 31.333 12 42s21 16 39 16c9.33301 0 17.5 -1.66699 24.5 -5s10.5 -10.333 10.5 -21z" />
    <glyph glyph-name="aring" unicode="&#xe5;" horiz-adv-x="517" 
d="M412 17c-2 -11.333 -8.33301 -17 -19 -17h-41c-12 0 -16.667 5.66699 -14 17l7 38c-25.333 -15.333 -52.833 -29.833 -82.5 -43.5s-63.5 -20.5 -101.5 -20.5c-46 0 -78.833 11.5 -98.5 34.5s-29.5 56.833 -29.5 101.5c0 16 1.16699 33.667 3.5 53s5.5 38.666 9.5 57.999
c8 41.333 17.667 78 29 110s26.333 59 45 81s41.334 38.667 68.001 50s59.667 17 99 17c18.667 0 40.167 -3.16699 64.5 -9.5s48.166 -15.5 71.499 -27.5l1 1l3 14c1.33301 6 3.5 9.66699 6.5 11s8.16699 2 15.5 2h37c7.33301 0 12 -1.16699 14 -3.5
s2.33301 -7.16602 1 -14.499zM412 396c-47.333 20.667 -93.334 30.9971 -138.001 30.9971c-22 0 -40.833 -3.16699 -56.5 -9.5s-29.167 -17 -40.5 -32s-21.166 -34.667 -29.499 -59s-15.833 -54.5 -22.5 -90.5c-4 -21.333 -7.16699 -40.666 -9.5 -57.999
s-3.5 -31.666 -3.5 -42.999c0 -31.333 5.83301 -51.666 17.5 -60.999s29.167 -14 52.5 -14c12 0 26 2 42 6s32.333 9 49 15s32.5 12.167 47.5 18.5s27.167 11.833 36.5 16.5zM317.999 517.997c-11.333 0 -22.1689 2 -32.502 6s-19.5 9.5 -27.5 16.5s-14.333 15.333 -19 25
s-7 20.5 -7 32.5c0 18 3.33301 34 10 48s15.334 26 26.001 36s23 17.667 37 23s28 8 42 8c24.667 0 45.334 -7.66699 62.001 -23s25 -34 25 -56c0 -33.333 -10.833 -61 -32.5 -83s-49.5 -33 -83.5 -33zM323.996 564.997c15.333 0 29.166 5.5 41.499 16.5
s18.5 25.167 18.5 42.5c0 11.333 -3.5 21.333 -10.5 30s-16.833 13 -29.5 13c-18 0 -32.333 -6.5 -43 -19.5s-16 -27.167 -16 -42.5c0 -11.333 3.33301 -20.833 10 -28.5s16.334 -11.5 29.001 -11.5z" />
    <glyph glyph-name="ae" unicode="&#xe6;" horiz-adv-x="798" 
d="M456 435c15.333 19.333 38.1641 34.333 68.4971 45s64.5 16 102.5 16c20.667 0 40.334 -2.5 59.001 -7.5s35 -12.5 49 -22.5s25 -22.333 33 -37s12 -31.667 12 -51c0 -28 -5.66699 -52 -17 -72s-26.333 -36.833 -45 -50.5s-40 -24.5 -64 -32.5
s-48.833 -13.833 -74.5 -17.5s-51.167 -5.66699 -76.5 -6s-48.333 0.5 -69 2.5c-2 -9.33301 -4.5 -21.833 -7.5 -37.5s-4.5 -27.167 -4.5 -34.5c0 -18 3.5 -31.833 10.5 -41.5s16 -16.5 27 -20.5s23.333 -6.33301 37 -7s27.167 -1 40.5 -1c8 0 17.833 0.333008 29.5 1
s23.834 1.5 36.501 2.5l38.5 3c13 1 24.5 2.16699 34.5 3.5c6 0.666992 10.833 0.333984 14.5 -0.999023s5.5 -5.33301 5.5 -12v-21c0 -9.33301 -5 -16.333 -15 -21c-12 -4.66699 -25 -8.5 -39 -11.5s-28.5 -5.33301 -43.5 -7s-29.833 -2.83398 -44.5 -3.50098
s-28.667 -1 -42 -1c-38 0 -70.333 4.83301 -97 14.5s-46 27.5 -58 53.5c-4 -3.33301 -8.16699 -6 -12.5 -8s-8.83301 -4.33301 -13.5 -7c-28 -14 -58.333 -26.333 -91 -37s-69.334 -16 -110.001 -16c-39.333 0 -68.166 7.66699 -86.499 23s-27.5 38 -27.5 68
c0 64 18.5 112.833 55.5 146.5s98.833 51.167 185.5 52.5c16.667 0 34.334 -0.333008 53.001 -1s38.334 -2.33398 59.001 -5.00098l15 56c10.667 36 8 61.167 -8 75.5s-46 21.5 -90 21.5c-9.33301 0 -19.833 -0.166992 -31.5 -0.5s-24 -1 -37 -2l-38.5 -3
c-12.667 -1 -24.334 -2.16699 -35.001 -3.5c-12.667 -2 -19 1 -19 9v26c0 4.66699 1.33301 8.66699 4 12s8 6.66602 16 9.99902c10.667 3.33301 23.334 6.33301 38.001 9s29.667 4.83398 45 6.50098s30.666 2.83398 45.999 3.50098s29 1 41 1c43.333 0 76 -5.5 98 -16.5
s36.333 -26.167 43 -45.5zM229.998 221c-44.667 0 -78.167 -10.001 -100.5 -30.001s-33.5 -49 -33.5 -87c0.666992 -16 6 -27.167 16 -33.5s26.667 -9.5 50 -9.5c11.333 0 24.833 1.83301 40.5 5.5s31.667 8.33398 48 14.001s32.666 12 48.999 19l44.5 19.5
c0 16 0.666992 31.333 2 46s4 30.667 8 48c-25.333 3.33301 -48.166 5.5 -68.499 6.5s-38.833 1.5 -55.5 1.5zM702.998 365.999c0 22.667 -8.16699 38.665 -24.5 47.998s-35.833 14 -58.5 14c-34 0 -61.333 -5.66699 -82 -17s-37.167 -25.333 -49.5 -42
s-21.5 -34.5 -27.5 -53.5s-11 -35.833 -15 -50.5c20.667 -1.33301 45.667 -1.66602 75 -0.999023s57.5 4.33398 84.5 11.001s50 17 69 31s28.5 34 28.5 60z" />
    <glyph glyph-name="ccedilla" unicode="&#xe7;" horiz-adv-x="425" 
d="M157 -188c-8.66699 0 -19.8311 0.837891 -33.498 2.50488s-25.167 4.16699 -34.5 7.5c-5.33301 2 -7 5.66699 -5 11l7 19c1.33301 2 2.66602 3.5 3.99902 4.5s4 1.16699 8 0.5c9.33301 -1.33301 19.333 -2.5 30 -3.5s19.667 -1.5 27 -1.5c6.66699 0 13.667 0.5 21 1.5
s13.833 2.83301 19.5 5.5s10.334 6.5 14.001 11.5s5.5 11.833 5.5 20.5c0 11.333 -4.5 18.833 -13.5 22.5s-23.5 6.16699 -43.5 7.5c-13.333 1.33301 -16.333 8.66602 -9 21.999l25 50c-28 2 -50.833 7.33301 -68.5 16s-31.834 19.667 -42.501 33s-18 28 -22 44
s-6 32.667 -6 50c0 16.667 1.33301 35.5 4 56.5s6 41.5 10 61.5c6 32 13.5 62.667 22.5 92s22.167 55.166 39.5 77.499s40 40.166 68 53.499s64.667 20 110 20c10 0 22 -0.333008 36 -1s28.167 -1.83398 42.5 -3.50098s28.333 -4 42 -7s25.5 -6.83301 35.5 -11.5
c4.66699 -2 7.16699 -5 7.5 -9s-0.166992 -8 -1.5 -12l-9 -23c-2 -5.33301 -5.33301 -8.5 -10 -9.5s-10.667 -1.16699 -18 -0.5l-66.5 6.5c-24.333 2.33301 -45.833 3.5 -64.5 3.5c-22.667 0 -42.167 -3 -58.5 -9s-30.5 -16 -42.5 -30s-22.167 -32.667 -30.5 -56
s-15.833 -52.333 -22.5 -87c-3.33301 -19.333 -6 -36.833 -8 -52.5s-3 -30.167 -3 -43.5c-0.666992 -34.667 6.5 -58.667 21.5 -72s38.833 -20 71.5 -20c8 0 17.833 0.333008 29.5 1s24 1.5 37 2.5l38.5 3c12.667 1 24 2.16699 34 3.5
c6 0.666992 10.833 0.333984 14.5 -0.999023s5.5 -5.33301 5.5 -12v-21c0 -9.33301 -5 -16.333 -15 -21c-18.667 -7.33301 -41 -12.833 -67 -16.5s-50.667 -5.83398 -74 -6.50098l-19 -36c28 -1.33301 47.667 -7.5 59 -18.5s17 -24.833 17 -41.5
c0 -15.333 -3.16699 -28.333 -9.5 -39s-14.833 -19.334 -25.5 -26.001s-23.334 -11.5 -38.001 -14.5s-30 -4.5 -46 -4.5z" />
    <glyph glyph-name="egrave" unicode="&#xe8;" horiz-adv-x="486" 
d="M44 132c0 22 2.33203 44.332 6.99902 66.999s9.66699 44.667 15 66c4.66699 22 12 46.5 22 73.5s24.833 52.167 44.5 75.5s45 42.833 76 58.5s70.5 23.5 118.5 23.5c20.667 0 40.334 -2.5 59.001 -7.5s35 -12.5 49 -22.5s25 -22.333 33 -37s12 -31.667 12 -51
c0 -28 -6 -52.333 -18 -73s-27.667 -38.334 -47 -53.001s-41.5 -26.667 -66.5 -36s-50.5 -16.666 -76.5 -21.999s-51.667 -9.16602 -77 -11.499s-47.666 -3.5 -66.999 -3.5c-4 -18 -6 -34.333 -6 -49c0 -18 3.5 -31.833 10.5 -41.5s16 -16.5 27 -20.5s23.333 -6.33301 37 -7
s27.167 -1 40.5 -1c8 0 17.833 0.333008 29.5 1s23.834 1.5 36.501 2.5l38.5 3c13 1 24.5 2.16699 34.5 3.5c6 0.666992 10.833 0.333984 14.5 -0.999023s5.5 -5.33301 5.5 -12v-21c0 -9.33301 -5 -16.333 -15 -21c-12 -4.66699 -25 -8.5 -39 -11.5s-28.5 -5.33301 -43.5 -7
s-29.833 -2.83398 -44.5 -3.50098s-28.667 -1 -42 -1c-26 0 -49.333 2.16699 -70 6.5s-38.334 11.833 -53.001 22.5s-25.834 25 -33.501 43s-11.5 40.667 -11.5 68zM402.999 365.999c0 22.667 -8.16504 38.666 -24.498 47.999s-35.833 14 -58.5 14
c-32 0 -58 -5.16699 -78 -15.5s-36.333 -23.166 -49 -38.499s-22 -31.5 -28 -48.5s-11 -31.833 -15 -44.5l-10 -39c13.333 0 29.166 0.833008 47.499 2.5s37.166 4.16699 56.499 7.5s38.5 7.83301 57.5 13.5s36 13.167 51 22.5s27.167 20.333 36.5 33s14 27.667 14 45z
M225.001 676.998c-2.66699 2.66699 -4.33203 5.66602 -4.99902 8.99902s1 6 5 8l41 19c8 4 14 3 18 -3l96 -143c1.33301 -2 2.16602 -4.66699 2.49902 -8s-1.5 -5.66602 -5.5 -6.99902l-25 -13c-6.66699 -2.66699 -11.667 -1.66699 -15 3z" />
    <glyph glyph-name="eacute" unicode="&#xe9;" horiz-adv-x="486" 
d="M44 132c0 22 2.33203 44.332 6.99902 66.999s9.66699 44.667 15 66c4.66699 22 12 46.5 22 73.5s24.833 52.167 44.5 75.5s45 42.833 76 58.5s70.5 23.5 118.5 23.5c20.667 0 40.334 -2.5 59.001 -7.5s35 -12.5 49 -22.5s25 -22.333 33 -37s12 -31.667 12 -51
c0 -28 -6 -52.333 -18 -73s-27.667 -38.334 -47 -53.001s-41.5 -26.667 -66.5 -36s-50.5 -16.666 -76.5 -21.999s-51.667 -9.16602 -77 -11.499s-47.666 -3.5 -66.999 -3.5c-4 -18 -6 -34.333 -6 -49c0 -18 3.5 -31.833 10.5 -41.5s16 -16.5 27 -20.5s23.333 -6.33301 37 -7
s27.167 -1 40.5 -1c8 0 17.833 0.333008 29.5 1s23.834 1.5 36.501 2.5l38.5 3c13 1 24.5 2.16699 34.5 3.5c6 0.666992 10.833 0.333984 14.5 -0.999023s5.5 -5.33301 5.5 -12v-21c0 -9.33301 -5 -16.333 -15 -21c-12 -4.66699 -25 -8.5 -39 -11.5s-28.5 -5.33301 -43.5 -7
s-29.833 -2.83398 -44.5 -3.50098s-28.667 -1 -42 -1c-26 0 -49.333 2.16699 -70 6.5s-38.334 11.833 -53.001 22.5s-25.834 25 -33.501 43s-11.5 40.667 -11.5 68zM402.999 365.999c0 22.667 -8.16504 38.666 -24.498 47.999s-35.833 14 -58.5 14
c-32 0 -58 -5.16699 -78 -15.5s-36.333 -23.166 -49 -38.499s-22 -31.5 -28 -48.5s-11 -31.833 -15 -44.5l-10 -39c13.333 0 29.166 0.833008 47.499 2.5s37.166 4.16699 56.499 7.5s38.5 7.83301 57.5 13.5s36 13.167 51 22.5s27.167 20.333 36.5 33s14 27.667 14 45z
M319.001 545.998c-4 -4.66699 -9.33301 -5.66602 -16 -2.99902l-23 9c-3.33301 1.33301 -5 3.66602 -5 6.99902s0.666992 6 2 8l97 143c4 6 9.66699 7 17 3l41 -19c4 -2 5.66699 -4.66699 5 -8s-2 -6.33301 -4 -9z" />
    <glyph glyph-name="ecircumflex" unicode="&#xea;" horiz-adv-x="486" 
d="M44 132c0 22 2.33203 44.332 6.99902 66.999s9.66699 44.667 15 66c4.66699 22 12 46.5 22 73.5s24.833 52.167 44.5 75.5s45 42.833 76 58.5s70.5 23.5 118.5 23.5c20.667 0 40.334 -2.5 59.001 -7.5s35 -12.5 49 -22.5s25 -22.333 33 -37s12 -31.667 12 -51
c0 -28 -6 -52.333 -18 -73s-27.667 -38.334 -47 -53.001s-41.5 -26.667 -66.5 -36s-50.5 -16.666 -76.5 -21.999s-51.667 -9.16602 -77 -11.499s-47.666 -3.5 -66.999 -3.5c-4 -18 -6 -34.333 -6 -49c0 -18 3.5 -31.833 10.5 -41.5s16 -16.5 27 -20.5s23.333 -6.33301 37 -7
s27.167 -1 40.5 -1c8 0 17.833 0.333008 29.5 1s23.834 1.5 36.501 2.5l38.5 3c13 1 24.5 2.16699 34.5 3.5c6 0.666992 10.833 0.333984 14.5 -0.999023s5.5 -5.33301 5.5 -12v-21c0 -9.33301 -5 -16.333 -15 -21c-12 -4.66699 -25 -8.5 -39 -11.5s-28.5 -5.33301 -43.5 -7
s-29.833 -2.83398 -44.5 -3.50098s-28.667 -1 -42 -1c-26 0 -49.333 2.16699 -70 6.5s-38.334 11.833 -53.001 22.5s-25.834 25 -33.501 43s-11.5 40.667 -11.5 68zM402.999 365.999c0 22.667 -8.16504 38.666 -24.498 47.999s-35.833 14 -58.5 14
c-32 0 -58 -5.16699 -78 -15.5s-36.333 -23.166 -49 -38.499s-22 -31.5 -28 -48.5s-11 -31.833 -15 -44.5l-10 -39c13.333 0 29.166 0.833008 47.499 2.5s37.166 4.16699 56.499 7.5s38.5 7.83301 57.5 13.5s36 13.167 51 22.5s27.167 20.333 36.5 33s14 27.667 14 45z
M465.001 565.998c4.66699 -7.33301 3.99902 -12.333 -2.00098 -15l-23 -11c-3.33301 -2 -6.33301 -3.5 -9 -4.5s-5 0.166992 -7 3.5l-87 111l-126 -109c-4 -3.33301 -7.16699 -4.83301 -9.5 -4.5s-5.16602 1.83301 -8.49902 4.5l-24 16c-3.33301 1.33301 -4.5 3 -3.5 5
s2.83301 4.66699 5.5 8l118 122c4 4.66699 8 7.66699 12 9s9.66699 2 17 2h48c9.33301 0 15.5 -0.833008 18.5 -2.5s5.83301 -4.16699 8.5 -7.5z" />
    <glyph glyph-name="edieresis" unicode="&#xeb;" horiz-adv-x="486" 
d="M44 132c0 22 2.33203 44.332 6.99902 66.999s9.66699 44.667 15 66c4.66699 22 12 46.5 22 73.5s24.833 52.167 44.5 75.5s45 42.833 76 58.5s70.5 23.5 118.5 23.5c20.667 0 40.334 -2.5 59.001 -7.5s35 -12.5 49 -22.5s25 -22.333 33 -37s12 -31.667 12 -51
c0 -28 -6 -52.333 -18 -73s-27.667 -38.334 -47 -53.001s-41.5 -26.667 -66.5 -36s-50.5 -16.666 -76.5 -21.999s-51.667 -9.16602 -77 -11.499s-47.666 -3.5 -66.999 -3.5c-4 -18 -6 -34.333 -6 -49c0 -18 3.5 -31.833 10.5 -41.5s16 -16.5 27 -20.5s23.333 -6.33301 37 -7
s27.167 -1 40.5 -1c8 0 17.833 0.333008 29.5 1s23.834 1.5 36.501 2.5l38.5 3c13 1 24.5 2.16699 34.5 3.5c6 0.666992 10.833 0.333984 14.5 -0.999023s5.5 -5.33301 5.5 -12v-21c0 -9.33301 -5 -16.333 -15 -21c-12 -4.66699 -25 -8.5 -39 -11.5s-28.5 -5.33301 -43.5 -7
s-29.833 -2.83398 -44.5 -3.50098s-28.667 -1 -42 -1c-26 0 -49.333 2.16699 -70 6.5s-38.334 11.833 -53.001 22.5s-25.834 25 -33.501 43s-11.5 40.667 -11.5 68zM402.999 365.999c0 22.667 -8.16504 38.666 -24.498 47.999s-35.833 14 -58.5 14
c-32 0 -58 -5.16699 -78 -15.5s-36.333 -23.166 -49 -38.499s-22 -31.5 -28 -48.5s-11 -31.833 -15 -44.5l-10 -39c13.333 0 29.166 0.833008 47.499 2.5s37.166 4.16699 56.499 7.5s38.5 7.83301 57.5 13.5s36 13.167 51 22.5s27.167 20.333 36.5 33s14 27.667 14 45z
M273.001 624.998c0 -17.333 -4 -31.499 -12 -42.499s-21 -16.5 -39 -16.5c-9.33301 0 -17.5 1.66699 -24.5 5s-10.5 10.666 -10.5 21.999c0 17.333 4 31.333 12 42s21 16 39 16c9.33301 0 17.5 -1.66699 24.5 -5s10.5 -10.333 10.5 -21zM457.001 624.999
c0 -17.333 -4.16699 -31.499 -12.5 -42.499s-21.5 -16.5 -39.5 -16.5c-9.33301 0 -17.333 1.66699 -24 5s-10 10.666 -10 21.999c0 17.333 4 31.333 12 42s21 16 39 16c9.33301 0 17.5 -1.66699 24.5 -5s10.5 -10.333 10.5 -21z" />
    <glyph glyph-name="igrave" unicode="&#xec;" horiz-adv-x="233" 
d="M122 17c-2 -11.333 -8.33203 -17 -18.999 -17h-41c-12 0 -16.667 5.66699 -14 17l88 453c1.33301 7.33301 3.66602 12 6.99902 14s8 3 14 3h40c11.333 0 16 -5.66699 14 -17zM59.001 677c-2.66699 2.66699 -4.33203 5.66602 -4.99902 8.99902s1 6 5 8l41 19
c8 4 14 3 18 -3l96 -143c1.33301 -2 2.16602 -4.66699 2.49902 -8s-1.5 -5.66602 -5.5 -6.99902l-25 -13c-6.66699 -2.66699 -11.667 -1.66699 -15 3z" />
    <glyph glyph-name="iacute" unicode="&#xed;" horiz-adv-x="200" 
d="M112 17c-2 -11.333 -8.33203 -17 -18.999 -17h-41c-12 0 -16.667 5.66699 -14 17l88 453c1.33301 7.33301 3.66602 12 6.99902 14s8 3 14 3h40c11.333 0 16 -5.66699 14 -17zM175.001 546c-4 -4.66699 -9.33301 -5.66602 -16 -2.99902l-23 9
c-3.33301 1.33301 -5 3.66602 -5 6.99902s0.666992 6 2 8l97 143c4 6 9.66699 7 17 3l41 -19c4 -2 5.66699 -4.66699 5 -8s-2 -6.33301 -4 -9z" />
    <glyph glyph-name="icircumflex" unicode="&#xee;" horiz-adv-x="286" 
d="M134 17c-2 -11.333 -8.33203 -17 -18.999 -17h-41c-12 0 -16.667 5.66699 -14 17l88 453c1.33301 7.33301 3.66602 12 6.99902 14s8 3 14 3h40c11.333 0 16 -5.66699 14 -17zM345.001 566c4.66699 -7.33301 3.99902 -12.333 -2.00098 -15l-23 -11
c-3.33301 -2 -6.33301 -3.5 -9 -4.5s-5 0.166992 -7 3.5l-87 111l-126 -109c-4 -3.33301 -7.16699 -4.83301 -9.5 -4.5s-5.16602 1.83301 -8.49902 4.5l-24 16c-3.33301 1.33301 -4.5 3 -3.5 5s2.83301 4.66699 5.5 8l118 122c4 4.66699 8 7.66699 12 9s9.66699 2 17 2h48
c9.33301 0 15.5 -0.833008 18.5 -2.5s5.83301 -4.16699 8.5 -7.5z" />
    <glyph glyph-name="idieresis" unicode="&#xef;" horiz-adv-x="232" 
d="M121 17c-2 -11.333 -8.33203 -17 -18.999 -17h-41c-12 0 -16.667 5.66699 -14 17l88 453c1.33301 7.33301 3.66602 12 6.99902 14s8 3 14 3h40c11.333 0 16 -5.66699 14 -17zM324.001 625c0 -17.333 -4.16699 -31.499 -12.5 -42.499s-21.5 -16.5 -39.5 -16.5
c-9.33301 0 -17.333 1.66699 -24 5s-10 10.666 -10 21.999c0 17.333 4 31.333 12 42s21 16 39 16c9.33301 0 17.5 -1.66699 24.5 -5s10.5 -10.333 10.5 -21zM140.001 625.001c0 -17.333 -4 -31.499 -12 -42.499s-21 -16.5 -39 -16.5c-9.33301 0 -17.5 1.66699 -24.5 5
s-10.5 10.666 -10.5 21.999c0 17.333 4 31.333 12 42s21 16 39 16c9.33301 0 17.5 -1.66699 24.5 -5s10.5 -10.333 10.5 -21z" />
    <glyph glyph-name="eth" unicode="&#xf0;" horiz-adv-x="503" 
d="M535 696c4.66699 -4.66699 3.33301 -10.3311 -4 -16.998l-60 -50c10 -19.333 16.833 -41.333 20.5 -66s5.16699 -50.667 4.5 -78c-0.666992 -26.667 -2.83398 -53.167 -6.50098 -79.5l-10.5 -72.5c-7.33301 -44 -16.5 -86.5 -27.5 -127.5s-26.5 -77.333 -46.5 -109
s-46.167 -57 -78.5 -76s-73.166 -28.5 -122.499 -28.5c-35.333 0 -64 5.16699 -86 15.5s-39.333 23.666 -52 39.999s-21.167 34.833 -25.5 55.5s-6.5 41.334 -6.5 62.001c0 12 0.833008 23.833 2.5 35.5s3.5 22.5 5.5 32.5c4.66699 24 11.834 49.667 21.501 77
s23.667 52.666 42 75.999s41.666 42.833 69.999 58.5s63.5 23.5 105.5 23.5c14.667 0 29 -1.5 43 -4.5s27 -7 39 -12s22.667 -11.167 32 -18.5s16.333 -15 21 -23l2 1c2 11.333 3.83301 24.333 5.5 39s2.33398 29.667 2.00098 45s-1.5 30.166 -3.5 44.499
s-5.33301 26.833 -10 37.5l-61 -51c-6.66699 -5.33301 -12.334 -5.33301 -17.001 0l-19 20c-4 4 -5.5 7.16699 -4.5 9.5s3.16699 5.16602 6.5 8.49902l61 52c-9.33301 8 -22 13.333 -38 16s-33 4 -51 4c-12 0 -24.167 -0.666992 -36.5 -2l-36.5 -4
c-8 -0.666992 -12 2.33301 -12 9l-3 32c0.666992 4 1.83398 7.33301 3.50098 10s5.5 5 11.5 7c17.333 5.33301 34.166 9.16602 50.499 11.499s32.5 3.5 48.5 3.5c23.333 0 45.5 -2.66699 66.5 -8s40.167 -13.666 57.5 -24.999l58 48
c3.33301 2.66699 6.33301 4.33398 9 5.00098s5.66699 -1 9 -5zM373.999 227.003c4.66699 24 7.33105 46.5 7.99805 67.5s-2.16602 39.167 -8.49902 54.5s-17.166 27.5 -32.499 36.5s-36.666 13.5 -63.999 13.5c-48.667 0 -84.834 -15.333 -108.501 -46
s-40.834 -73 -51.501 -127c-4 -22 -6.5 -42.833 -7.5 -62.5s1.5 -37 7.5 -52s16.5 -26.833 31.5 -35.5s36.5 -13 64.5 -13c26 0 48.167 4.5 66.5 13.5s33.833 21 46.5 36s22.834 32.333 30.501 52s13.5 40.5 17.5 62.5z" />
    <glyph glyph-name="ntilde" unicode="&#xf1;" horiz-adv-x="505" 
d="M415 17c-2 -11.333 -9.00293 -16.998 -21.0029 -16.998h-42c-11.333 0 -15.666 5.66699 -12.999 17l58 296c4 22.667 6.16699 41.5 6.5 56.5s-1.66699 26.833 -6 35.5s-11.333 14.667 -21 18s-22.167 5 -37.5 5c-12 0 -26.667 -2.33301 -44 -7s-34.5 -10 -51.5 -16
s-33.167 -12.167 -48.5 -18.5s-27 -11.5 -35 -15.5l-69 -354c-2 -11.333 -9 -17 -21 -17h-41c-11.333 0 -15.666 5.66699 -12.999 17l88 453c2.66699 11.333 9.33398 17 20.001 17h41c6 0 10.167 -1 12.5 -3s2.83301 -6.66699 1.5 -14l-7 -36h2
c9.33301 5.33301 21.166 11.666 35.499 18.999s30 14.166 47 20.499s34.667 11.833 53 16.5s36.166 7 53.499 7c32.667 0 57.667 -4.66699 75 -14s29.333 -22.166 36 -38.499s9.33398 -35.833 8.00098 -58.5s-4.66602 -47.334 -9.99902 -74.001zM396.997 551.002
c-11.333 0 -23.1699 2.8291 -35.5029 8.49609s-24.666 11.667 -36.999 18l-36 18c-11.667 5.66699 -22.5 8.5 -32.5 8.5c-5.33301 0 -13 -2 -23 -6s-22 -14.667 -36 -32c-2 -3.33301 -4.33301 -5.66602 -7 -6.99902s-6.33398 -0.333008 -11.001 3l-19 14
c-3.33301 2.66699 -4.66602 5.33398 -3.99902 8.00098s1.66699 5.33398 3 8.00098c8.66699 15.333 18 28 28 38s19.833 17.833 29.5 23.5s19.167 9.5 28.5 11.5s18 3 26 3c12.667 0 25.167 -2.66699 37.5 -8s24.5 -11.333 36.5 -18s23.333 -12.667 34 -18s21 -8 31 -8
c11.333 0 21.333 3.33301 30 10s17.667 16.334 27 29.001c2 2.66699 4.33301 5 7 7s6.33398 2 11.001 0l19 -9c4 -2 5.66699 -4.66699 5 -8s-1.66699 -6 -3 -8c-29.333 -57.333 -65.666 -86 -108.999 -86z" />
    <glyph glyph-name="ograve" unicode="&#xf2;" horiz-adv-x="503" 
d="M471 338c0 -14.667 -1.00098 -29.166 -3.00098 -43.499s-4.33301 -28.5 -7 -42.5c-7.33301 -37.333 -16.166 -72 -26.499 -104s-24.666 -59.5 -42.999 -82.5s-41.833 -41 -70.5 -54s-64.667 -19.5 -108 -19.5c-56 0 -99 12.5 -129 37.5s-45 66.167 -45 123.5
c0 16.667 1 33.167 3 49.5s4.66699 32.833 8 49.5c6.66699 34 15.5 65.833 26.5 95.5s25.667 55.667 44 78s41.333 39.833 69 52.5s61.5 19 101.5 19c27.333 0 52.166 -2.83301 74.499 -8.5s41.333 -14.834 57 -27.501s27.667 -29.167 36 -49.5s12.5 -44.833 12.5 -73.5z
M392.999 333.001c0 36.667 -9.16699 61.668 -27.5 75.001s-44.5 20 -78.5 20c-29.333 0 -53.333 -5 -72 -15s-33.667 -23.333 -45 -40s-20.166 -36 -26.499 -58s-11.833 -45.333 -16.5 -70c-3.33301 -14.667 -6 -29.334 -8 -44.001s-3 -29.667 -3 -45
c0 -34.667 8.16699 -59 24.5 -73s41.5 -21 75.5 -21c30 0 54.667 4.66699 74 14s35 22.166 47 38.499s21.167 35.666 27.5 57.999s12.166 46.5 17.499 72.5c3.33301 14.667 6 29.334 8 44.001s3 29.334 3 44.001zM214.999 677.002
c-2.66699 2.66699 -4.33203 5.66602 -4.99902 8.99902s1 6 5 8l41 19c8 4 14 3 18 -3l96 -143c1.33301 -2 2.16602 -4.66699 2.49902 -8s-1.5 -5.66602 -5.5 -6.99902l-25 -13c-6.66699 -2.66699 -11.667 -1.66699 -15 3z" />
    <glyph glyph-name="oacute" unicode="&#xf3;" horiz-adv-x="503" 
d="M471 338c0 -14.667 -1.00098 -29.166 -3.00098 -43.499s-4.33301 -28.5 -7 -42.5c-7.33301 -37.333 -16.166 -72 -26.499 -104s-24.666 -59.5 -42.999 -82.5s-41.833 -41 -70.5 -54s-64.667 -19.5 -108 -19.5c-56 0 -99 12.5 -129 37.5s-45 66.167 -45 123.5
c0 16.667 1 33.167 3 49.5s4.66699 32.833 8 49.5c6.66699 34 15.5 65.833 26.5 95.5s25.667 55.667 44 78s41.333 39.833 69 52.5s61.5 19 101.5 19c27.333 0 52.166 -2.83301 74.499 -8.5s41.333 -14.834 57 -27.501s27.667 -29.167 36 -49.5s12.5 -44.833 12.5 -73.5z
M392.999 333.001c0 36.667 -9.16699 61.668 -27.5 75.001s-44.5 20 -78.5 20c-29.333 0 -53.333 -5 -72 -15s-33.667 -23.333 -45 -40s-20.166 -36 -26.499 -58s-11.833 -45.333 -16.5 -70c-3.33301 -14.667 -6 -29.334 -8 -44.001s-3 -29.667 -3 -45
c0 -34.667 8.16699 -59 24.5 -73s41.5 -21 75.5 -21c30 0 54.667 4.66699 74 14s35 22.166 47 38.499s21.167 35.666 27.5 57.999s12.166 46.5 17.499 72.5c3.33301 14.667 6 29.334 8 44.001s3 29.334 3 44.001zM319.999 546.002
c-4 -4.66699 -9.33301 -5.66602 -16 -2.99902l-23 9c-3.33301 1.33301 -5 3.66602 -5 6.99902s0.666992 6 2 8l97 143c4 6 9.66699 7 17 3l41 -19c4 -2 5.66699 -4.66699 5 -8s-2 -6.33301 -4 -9z" />
    <glyph glyph-name="ocircumflex" unicode="&#xf4;" horiz-adv-x="503" 
d="M471 338c0 -14.667 -1.00098 -29.166 -3.00098 -43.499s-4.33301 -28.5 -7 -42.5c-7.33301 -37.333 -16.166 -72 -26.499 -104s-24.666 -59.5 -42.999 -82.5s-41.833 -41 -70.5 -54s-64.667 -19.5 -108 -19.5c-56 0 -99 12.5 -129 37.5s-45 66.167 -45 123.5
c0 16.667 1 33.167 3 49.5s4.66699 32.833 8 49.5c6.66699 34 15.5 65.833 26.5 95.5s25.667 55.667 44 78s41.333 39.833 69 52.5s61.5 19 101.5 19c27.333 0 52.166 -2.83301 74.499 -8.5s41.333 -14.834 57 -27.501s27.667 -29.167 36 -49.5s12.5 -44.833 12.5 -73.5z
M392.999 333.001c0 36.667 -9.16699 61.668 -27.5 75.001s-44.5 20 -78.5 20c-29.333 0 -53.333 -5 -72 -15s-33.667 -23.333 -45 -40s-20.166 -36 -26.499 -58s-11.833 -45.333 -16.5 -70c-3.33301 -14.667 -6 -29.334 -8 -44.001s-3 -29.667 -3 -45
c0 -34.667 8.16699 -59 24.5 -73s41.5 -21 75.5 -21c30 0 54.667 4.66699 74 14s35 22.166 47 38.499s21.167 35.666 27.5 57.999s12.166 46.5 17.499 72.5c3.33301 14.667 6 29.334 8 44.001s3 29.334 3 44.001zM465.999 566.002
c4.66699 -7.33301 3.99902 -12.333 -2.00098 -15l-23 -11c-3.33301 -2 -6.33301 -3.5 -9 -4.5s-5 0.166992 -7 3.5l-87 111l-126 -109c-4 -3.33301 -7.16699 -4.83301 -9.5 -4.5s-5.16602 1.83301 -8.49902 4.5l-24 16c-3.33301 1.33301 -4.5 3 -3.5 5
s2.83301 4.66699 5.5 8l118 122c4 4.66699 8 7.66699 12 9s9.66699 2 17 2h48c9.33301 0 15.5 -0.833008 18.5 -2.5s5.83301 -4.16699 8.5 -7.5z" />
    <glyph glyph-name="otilde" unicode="&#xf5;" horiz-adv-x="503" 
d="M471 338c0 -14.667 -1.00098 -29.166 -3.00098 -43.499s-4.33301 -28.5 -7 -42.5c-7.33301 -37.333 -16.166 -72 -26.499 -104s-24.666 -59.5 -42.999 -82.5s-41.833 -41 -70.5 -54s-64.667 -19.5 -108 -19.5c-56 0 -99 12.5 -129 37.5s-45 66.167 -45 123.5
c0 16.667 1 33.167 3 49.5s4.66699 32.833 8 49.5c6.66699 34 15.5 65.833 26.5 95.5s25.667 55.667 44 78s41.333 39.833 69 52.5s61.5 19 101.5 19c27.333 0 52.166 -2.83301 74.499 -8.5s41.333 -14.834 57 -27.501s27.667 -29.167 36 -49.5s12.5 -44.833 12.5 -73.5z
M392.999 333.001c0 36.667 -9.16699 61.668 -27.5 75.001s-44.5 20 -78.5 20c-29.333 0 -53.333 -5 -72 -15s-33.667 -23.333 -45 -40s-20.166 -36 -26.499 -58s-11.833 -45.333 -16.5 -70c-3.33301 -14.667 -6 -29.334 -8 -44.001s-3 -29.667 -3 -45
c0 -34.667 8.16699 -59 24.5 -73s41.5 -21 75.5 -21c30 0 54.667 4.66699 74 14s35 22.166 47 38.499s21.167 35.666 27.5 57.999s12.166 46.5 17.499 72.5c3.33301 14.667 6 29.334 8 44.001s3 29.334 3 44.001zM390.999 551.002
c-11.333 0 -23.1699 2.8291 -35.5029 8.49609s-24.666 11.667 -36.999 18l-36 18c-11.667 5.66699 -22.5 8.5 -32.5 8.5c-5.33301 0 -13 -2 -23 -6s-22 -14.667 -36 -32c-2 -3.33301 -4.33301 -5.66602 -7 -6.99902s-6.33398 -0.333008 -11.001 3l-19 14
c-3.33301 2.66699 -4.66602 5.33398 -3.99902 8.00098s1.66699 5.33398 3 8.00098c8.66699 15.333 18 28 28 38s19.833 17.833 29.5 23.5s19.167 9.5 28.5 11.5s18 3 26 3c12.667 0 25.167 -2.66699 37.5 -8s24.5 -11.333 36.5 -18s23.333 -12.667 34 -18s21 -8 31 -8
c11.333 0 21.333 3.33301 30 10s17.667 16.334 27 29.001c2 2.66699 4.33301 5 7 7s6.33398 2 11.001 0l19 -9c4 -2 5.66699 -4.66699 5 -8s-1.66699 -6 -3 -8c-29.333 -57.333 -65.666 -86 -108.999 -86z" />
    <glyph glyph-name="odieresis" unicode="&#xf6;" horiz-adv-x="503" 
d="M471 338c0 -14.667 -1.00098 -29.166 -3.00098 -43.499s-4.33301 -28.5 -7 -42.5c-7.33301 -37.333 -16.166 -72 -26.499 -104s-24.666 -59.5 -42.999 -82.5s-41.833 -41 -70.5 -54s-64.667 -19.5 -108 -19.5c-56 0 -99 12.5 -129 37.5s-45 66.167 -45 123.5
c0 16.667 1 33.167 3 49.5s4.66699 32.833 8 49.5c6.66699 34 15.5 65.833 26.5 95.5s25.667 55.667 44 78s41.333 39.833 69 52.5s61.5 19 101.5 19c27.333 0 52.166 -2.83301 74.499 -8.5s41.333 -14.834 57 -27.501s27.667 -29.167 36 -49.5s12.5 -44.833 12.5 -73.5z
M392.999 333.001c0 36.667 -9.16699 61.668 -27.5 75.001s-44.5 20 -78.5 20c-29.333 0 -53.333 -5 -72 -15s-33.667 -23.333 -45 -40s-20.166 -36 -26.499 -58s-11.833 -45.333 -16.5 -70c-3.33301 -14.667 -6 -29.334 -8 -44.001s-3 -29.667 -3 -45
c0 -34.667 8.16699 -59 24.5 -73s41.5 -21 75.5 -21c30 0 54.667 4.66699 74 14s35 22.166 47 38.499s21.167 35.666 27.5 57.999s12.166 46.5 17.499 72.5c3.33301 14.667 6 29.334 8 44.001s3 29.334 3 44.001zM456.999 625.002c0 -17.333 -4.16699 -31.499 -12.5 -42.499
s-21.5 -16.5 -39.5 -16.5c-9.33301 0 -17.333 1.66699 -24 5s-10 10.666 -10 21.999c0 17.333 4 31.333 12 42s21 16 39 16c9.33301 0 17.5 -1.66699 24.5 -5s10.5 -10.333 10.5 -21zM272.999 625.003c0 -17.333 -4 -31.499 -12 -42.499s-21 -16.5 -39 -16.5
c-9.33301 0 -17.5 1.66699 -24.5 5s-10.5 10.666 -10.5 21.999c0 17.333 4 31.333 12 42s21 16 39 16c9.33301 0 17.5 -1.66699 24.5 -5s10.5 -10.333 10.5 -21z" />
    <glyph glyph-name="divide" unicode="&#xf7;" horiz-adv-x="556" 
d="M350 472c-2.66699 -13.333 -7.66895 -24.666 -15.002 -33.999s-20.666 -14 -39.999 -14c-20 0 -31.667 4.66699 -35 14s-3.66602 20.666 -0.999023 33.999s7.66699 24.166 15 32.499s20.333 12.5 39 12.5c19.333 0 31 -4.16699 35 -12.5s4.66699 -19.166 2 -32.499z
M292.998 175c-3.33301 -13.333 -8.66602 -24.668 -15.999 -34.001s-20.666 -14 -39.999 -14c-20 0 -31.5 4.83301 -34.5 14.5s-3.16699 20.834 -0.5 33.501c2.66699 13.333 7.5 24.333 14.5 33s19.833 13 38.5 13c19.333 0 31.166 -4.16699 35.499 -12.5
s5.16602 -19.5 2.49902 -33.5zM468.998 307.998c-0.666992 -8 -5.99902 -11.999 -15.999 -11.999h-362c-4 0 -7.33301 0.666992 -10 2s-3.33398 4.66602 -2.00098 9.99902l7 36c2 8.66699 7.66699 13 17 13h362c9.33301 0 13 -4.33301 11 -13z" />
    <glyph glyph-name="oslash" unicode="&#xf8;" horiz-adv-x="503" 
d="M471 338c0 -14.667 -1 -29.167 -3 -43.5s-4.33301 -28.5 -7 -42.5c-7.33301 -37.333 -16.166 -72 -26.499 -104s-24.666 -59.5 -42.999 -82.5s-41.833 -41 -70.5 -54s-64.667 -19.5 -108 -19.5c-52 0 -92.333 10.333 -121 31l-22 -24
c-2.66699 -2.66699 -5.5 -5.16699 -8.5 -7.5s-6.16699 -1.83301 -9.5 1.5c-7.33301 4.66699 -13 9.33398 -17 14.001c-6.66699 6 -6.33398 11.667 0.999023 17l27 30c-16 24 -24 57 -24 99c0 16.667 1 33.167 3 49.5s4.66699 32.833 8 49.5
c6.66699 34 15.5 65.833 26.5 95.5s25.667 55.667 44 78s41.333 39.833 69 52.5s61.5 19 101.5 19c29.333 0 55.5 -3.33301 78.5 -10s42.5 -17 58.5 -31l30 33c2.66699 2.66699 5.5 5.16699 8.5 7.5s6.5 1.83301 10.5 -1.5l15 -14c7.33301 -6 7.66602 -11.667 0.999023 -17
l-39 -43c11.333 -22.667 17 -50.334 17 -83.001zM116 156c0 -16 1.33398 -28.998 4.00098 -38.998l255 281c-8.66699 11.333 -20.334 19.166 -35.001 23.499s-32.334 6.5 -53.001 6.5c-29.333 0 -53.333 -5 -72 -15s-33.667 -23.333 -45 -40s-20.166 -36 -26.499 -58
s-11.833 -45.333 -16.5 -70c-3.33301 -14.667 -6 -29.334 -8 -44.001s-3 -29.667 -3 -45zM393.001 333.002c0 3.33301 -0.166016 6.66797 -0.499023 10.001s-0.5 6.66602 -0.5 9.99902l-248 -273c14.667 -12 38.667 -18 72 -18c30 0 54.667 4.66699 74 14
s35 22.166 47 38.499s21.167 35.666 27.5 57.999s12.166 46.5 17.499 72.5c3.33301 14.667 6 29.334 8 44.001s3 29.334 3 44.001z" />
    <glyph glyph-name="ugrave" unicode="&#xf9;" horiz-adv-x="512" 
d="M420 17c-2 -11.333 -8.66699 -17.002 -20 -17.002h-41c-12 0 -16.667 5.66699 -14 17l7 37c0 0.666992 -0.666992 0.333984 -2 -0.999023c-9.33301 -5.33301 -21.166 -11.666 -35.499 -18.999s-30 -14.166 -47 -20.499s-34.667 -11.833 -53 -16.5s-36.166 -7 -53.499 -7
c-32.667 0 -57.834 4.66699 -75.501 14s-30 22.166 -37 38.499s-9.83301 35.833 -8.5 58.5s4.66602 47.334 9.99902 74.001l57 295c2.66699 11.333 9.66699 17 21 17h42c11.333 0 16 -5.66699 14 -17l-58 -296c-4.66699 -23.333 -7 -42.333 -7 -57
s2.33301 -26.334 7 -35.001s11.834 -14.667 21.501 -18s22.5 -5 38.5 -5c12 0 26.5 2.33301 43.5 7s34 10 51 16s33.167 12.333 48.5 19s27 12 35 16l69 353c2.66699 11.333 9.66699 17 21 17h41c11.333 0 15.666 -5.66699 12.999 -17zM205 676.998
c-2.66699 2.66699 -4.33203 5.66602 -4.99902 8.99902s1 6 5 8l41 19c8 4 14 3 18 -3l96 -143c1.33301 -2 2.16602 -4.66699 2.49902 -8s-1.5 -5.66602 -5.5 -6.99902l-25 -13c-6.66699 -2.66699 -11.667 -1.66699 -15 3z" />
    <glyph glyph-name="uacute" unicode="&#xfa;" horiz-adv-x="512" 
d="M420 17c-2 -11.333 -8.66699 -17.002 -20 -17.002h-41c-12 0 -16.667 5.66699 -14 17l7 37c0 0.666992 -0.666992 0.333984 -2 -0.999023c-9.33301 -5.33301 -21.166 -11.666 -35.499 -18.999s-30 -14.166 -47 -20.499s-34.667 -11.833 -53 -16.5s-36.166 -7 -53.499 -7
c-32.667 0 -57.834 4.66699 -75.501 14s-30 22.166 -37 38.499s-9.83301 35.833 -8.5 58.5s4.66602 47.334 9.99902 74.001l57 295c2.66699 11.333 9.66699 17 21 17h42c11.333 0 16 -5.66699 14 -17l-58 -296c-4.66699 -23.333 -7 -42.333 -7 -57
s2.33301 -26.334 7 -35.001s11.834 -14.667 21.501 -18s22.5 -5 38.5 -5c12 0 26.5 2.33301 43.5 7s34 10 51 16s33.167 12.333 48.5 19s27 12 35 16l69 353c2.66699 11.333 9.66699 17 21 17h41c11.333 0 15.666 -5.66699 12.999 -17zM325 545.998
c-4 -4.66699 -9.33301 -5.66602 -16 -2.99902l-23 9c-3.33301 1.33301 -5 3.66602 -5 6.99902s0.666992 6 2 8l97 143c4 6 9.66699 7 17 3l41 -19c4 -2 5.66699 -4.66699 5 -8s-2 -6.33301 -4 -9z" />
    <glyph glyph-name="ucircumflex" unicode="&#xfb;" horiz-adv-x="512" 
d="M420 17c-2 -11.333 -8.66699 -17.002 -20 -17.002h-41c-12 0 -16.667 5.66699 -14 17l7 37c0 0.666992 -0.666992 0.333984 -2 -0.999023c-9.33301 -5.33301 -21.166 -11.666 -35.499 -18.999s-30 -14.166 -47 -20.499s-34.667 -11.833 -53 -16.5s-36.166 -7 -53.499 -7
c-32.667 0 -57.834 4.66699 -75.501 14s-30 22.166 -37 38.499s-9.83301 35.833 -8.5 58.5s4.66602 47.334 9.99902 74.001l57 295c2.66699 11.333 9.66699 17 21 17h42c11.333 0 16 -5.66699 14 -17l-58 -296c-4.66699 -23.333 -7 -42.333 -7 -57
s2.33301 -26.334 7 -35.001s11.834 -14.667 21.501 -18s22.5 -5 38.5 -5c12 0 26.5 2.33301 43.5 7s34 10 51 16s33.167 12.333 48.5 19s27 12 35 16l69 353c2.66699 11.333 9.66699 17 21 17h41c11.333 0 15.666 -5.66699 12.999 -17zM470 565.998
c4.66699 -7.33301 3.99902 -12.333 -2.00098 -15l-23 -11c-3.33301 -2 -6.33301 -3.5 -9 -4.5s-5 0.166992 -7 3.5l-87 111l-126 -109c-4 -3.33301 -7.16699 -4.83301 -9.5 -4.5s-5.16602 1.83301 -8.49902 4.5l-24 16c-3.33301 1.33301 -4.5 3 -3.5 5
s2.83301 4.66699 5.5 8l118 122c4 4.66699 8 7.66699 12 9s9.66699 2 17 2h48c9.33301 0 15.5 -0.833008 18.5 -2.5s5.83301 -4.16699 8.5 -7.5z" />
    <glyph glyph-name="udieresis" unicode="&#xfc;" horiz-adv-x="512" 
d="M420 17c-2 -11.333 -8.66699 -17.002 -20 -17.002h-41c-12 0 -16.667 5.66699 -14 17l7 37c0 0.666992 -0.666992 0.333984 -2 -0.999023c-9.33301 -5.33301 -21.166 -11.666 -35.499 -18.999s-30 -14.166 -47 -20.499s-34.667 -11.833 -53 -16.5s-36.166 -7 -53.499 -7
c-32.667 0 -57.834 4.66699 -75.501 14s-30 22.166 -37 38.499s-9.83301 35.833 -8.5 58.5s4.66602 47.334 9.99902 74.001l57 295c2.66699 11.333 9.66699 17 21 17h42c11.333 0 16 -5.66699 14 -17l-58 -296c-4.66699 -23.333 -7 -42.333 -7 -57
s2.33301 -26.334 7 -35.001s11.834 -14.667 21.501 -18s22.5 -5 38.5 -5c12 0 26.5 2.33301 43.5 7s34 10 51 16s33.167 12.333 48.5 19s27 12 35 16l69 353c2.66699 11.333 9.66699 17 21 17h41c11.333 0 15.666 -5.66699 12.999 -17zM468 624.998
c0 -17.333 -4.16699 -31.499 -12.5 -42.499s-21.5 -16.5 -39.5 -16.5c-9.33301 0 -17.333 1.66699 -24 5s-10 10.666 -10 21.999c0 17.333 4 31.333 12 42s21 16 39 16c9.33301 0 17.5 -1.66699 24.5 -5s10.5 -10.333 10.5 -21zM284 624.999
c0 -17.333 -4 -31.499 -12 -42.499s-21 -16.5 -39 -16.5c-9.33301 0 -17.5 1.66699 -24.5 5s-10.5 10.666 -10.5 21.999c0 17.333 4 31.333 12 42s21 16 39 16c9.33301 0 17.5 -1.66699 24.5 -5s10.5 -10.333 10.5 -21z" />
    <glyph glyph-name="yacute" unicode="&#xfd;" horiz-adv-x="466" 
d="M147 -162c-3.33301 -4.66699 -6.33008 -8.16699 -8.99707 -10.5s-7.33398 -3.5 -14.001 -3.5h-48c-4.66699 0 -7.5 1.5 -8.5 4.5s-0.166992 6.83301 2.5 11.5l91 161l-84 470c-0.666992 4 -0.166992 7.66699 1.5 11s4.83398 5 9.50098 5h49
c5.33301 0 8.66602 -1.16699 9.99902 -3.5s2.66602 -5.83301 3.99902 -10.5l50 -297l12 -85c2.66699 4 6.5 10.833 11.5 20.5s10.167 19.167 15.5 28.5l19 37l160 297c4 8.66699 10 13 18 13h57c9.33301 0 10.666 -5 3.99902 -15zM302.003 546
c-4 -4.66699 -9.33301 -5.66602 -16 -2.99902l-23 9c-3.33301 1.33301 -5 3.66602 -5 6.99902s0.666992 6 2 8l97 143c4 6 9.66699 7 17 3l41 -19c4 -2 5.66699 -4.66699 5 -8s-2 -6.33301 -4 -9z" />
    <glyph glyph-name="thorn" unicode="&#xfe;" horiz-adv-x="505" 
d="M471 203c-8 -34.667 -17.501 -65.168 -28.501 -91.501s-25.333 -48.5 -43 -66.5s-39.334 -31.5 -65.001 -40.5s-56.834 -13.5 -93.501 -13.5c-18.667 0 -40.167 2 -64.5 6s-49.166 11.333 -74.499 22l-1 -1l-34 -175c-1.33301 -6.66699 -3.33301 -11.5 -6 -14.5
s-7.66699 -4.5 -15 -4.5h-41c-7.33301 0 -11.666 1.33301 -12.999 4s-1.33301 7.66699 0 15l153 802c2.66699 11.333 9.33398 17 20.001 17h42c11.333 0 16 -5.66699 14 -17l-40 -213c0.666992 0.666992 1.33398 1 2.00098 1l34 18c14 7.33301 29.333 14.333 46 21
s34 12.334 52 17.001s35.333 7 52 7c46 0 78.333 -11.667 97 -35s28 -58 28 -104c0 -10 -0.5 -21.5 -1.5 -34.5s-2.5 -26.5 -4.5 -40.5s-4.33301 -27.833 -7 -41.5s-5.33398 -26.167 -8.00098 -37.5zM412.999 347.999c0.666992 32 -4.49707 53.168 -15.4971 63.501
s-28.167 15.5 -51.5 15.5c-12 0 -26.167 -2 -42.5 -6s-32.833 -9 -49.5 -15s-32.334 -12.333 -47.001 -19l-37 -17l-56 -288c25.333 -8 49.666 -13.667 72.999 -17s45.666 -5 66.999 -5c18.667 0 35.167 2.5 49.5 7.5s27 13.167 38 24.5s20.5 26 28.5 44
s15.333 40.333 22 67c2.66699 10.667 5.16699 22.5 7.5 35.5s4.5 26 6.5 39s3.66699 25.667 5 38s2 23.166 2 32.499z" />
    <glyph glyph-name="ydieresis" unicode="&#xff;" horiz-adv-x="466" 
d="M147 -162c-3.33301 -4.66699 -6.33008 -8.16699 -8.99707 -10.5s-7.33398 -3.5 -14.001 -3.5h-48c-4.66699 0 -7.5 1.5 -8.5 4.5s-0.166992 6.83301 2.5 11.5l91 161l-84 470c-0.666992 4 -0.166992 7.66699 1.5 11s4.83398 5 9.50098 5h49
c5.33301 0 8.66602 -1.16699 9.99902 -3.5s2.66602 -5.83301 3.99902 -10.5l50 -297l12 -85c2.66699 4 6.5 10.833 11.5 20.5s10.167 19.167 15.5 28.5l19 37l160 297c4 8.66699 10 13 18 13h57c9.33301 0 10.666 -5 3.99902 -15zM441.003 625
c0 -17.333 -4.16699 -31.499 -12.5 -42.499s-21.5 -16.5 -39.5 -16.5c-9.33301 0 -17.333 1.66699 -24 5s-10 10.666 -10 21.999c0 17.333 4 31.333 12 42s21 16 39 16c9.33301 0 17.5 -1.66699 24.5 -5s10.5 -10.333 10.5 -21zM257.003 625.001
c0 -17.333 -4 -31.499 -12 -42.499s-21 -16.5 -39 -16.5c-9.33301 0 -17.5 1.66699 -24.5 5s-10.5 10.666 -10.5 21.999c0 17.333 4 31.333 12 42s21 16 39 16c9.33301 0 17.5 -1.66699 24.5 -5s10.5 -10.333 10.5 -21z" />
    <glyph glyph-name="Amacron" unicode="&#x100;" horiz-adv-x="548" 
d="M491 14c1.33301 -9.33301 -2.33398 -13.999 -11.001 -13.999h-54c-9.33301 0 -14.333 4.33301 -15 13l-20 164h-244l-81 -161c-3.33301 -6.66699 -6.83301 -11 -10.5 -13s-8.16699 -3 -13.5 -3h-55c-9.33301 0 -11 5.33301 -5 16l329 631c4.66699 10 12 15 22 15h55
c6.66699 0 10.834 -1.33301 12.501 -4s3.16699 -6.33398 4.5 -11.001zM357 465.001c-2.66699 24 -4.66699 45.666 -6 64.999s-2.33301 34.333 -3 45h-3l-19.5 -43.5c-8.33301 -18.333 -18.5 -39.166 -30.5 -62.499l-10.5 -21.5l-20.5 -40.5l-25 -49.5l-25 -49.5l-20.5 -39.5
l-10.5 -20.5h201zM508 747c-2 -8 -7.66797 -12 -17.001 -12h-252c-9.33301 0 -13 4 -11 12l7 38c1.33301 5.33301 3.33301 8.83301 6 10.5s6.33398 2.5 11.001 2.5h252c4.66699 0 8 -0.833008 10 -2.5s2.33301 -5.16699 1 -10.5z" />
    <glyph glyph-name="amacron" unicode="&#x101;" horiz-adv-x="517" 
d="M412 17c-2 -11.333 -8.33301 -17 -19 -17h-41c-12 0 -16.667 5.66699 -14 17l7 38c-25.333 -15.333 -52.833 -29.833 -82.5 -43.5s-63.5 -20.5 -101.5 -20.5c-46 0 -78.833 11.5 -98.5 34.5s-29.5 56.833 -29.5 101.5c0 16 1.16699 33.667 3.5 53s5.5 38.666 9.5 57.999
c8 41.333 17.667 78 29 110s26.333 59 45 81s41.334 38.667 68.001 50s59.667 17 99 17c18.667 0 40.167 -3.16699 64.5 -9.5s48.166 -15.5 71.499 -27.5l1 1l3 14c1.33301 6 3.5 9.66699 6.5 11s8.16699 2 15.5 2h37c7.33301 0 12 -1.16699 14 -3.5
s2.33301 -7.16602 1 -14.499zM412 396c-47.333 20.667 -93.334 30.9971 -138.001 30.9971c-22 0 -40.833 -3.16699 -56.5 -9.5s-29.167 -17 -40.5 -32s-21.166 -34.667 -29.499 -59s-15.833 -54.5 -22.5 -90.5c-4 -21.333 -7.16699 -40.666 -9.5 -57.999
s-3.5 -31.666 -3.5 -42.999c0 -31.333 5.83301 -51.666 17.5 -60.999s29.167 -14 52.5 -14c12 0 26 2 42 6s32.333 9 49 15s32.5 12.167 47.5 18.5s27.167 11.833 36.5 16.5zM471.999 594.997c-2 -8 -7.33105 -12.001 -15.998 -12.001h-252c-4 0 -7.33301 0.833008 -10 2.5
s-3.33398 4.83398 -2.00098 9.50098l8 38c1.33301 5.33301 3.16602 8.83301 5.49902 10.5s5.83301 2.5 10.5 2.5h252c4.66699 0 8.16699 -0.833008 10.5 -2.5s2.83301 -5.16699 1.5 -10.5z" />
    <glyph glyph-name="Abreve" unicode="&#x102;" horiz-adv-x="548" 
d="M491 14c1.33301 -9.33301 -2.33398 -13.999 -11.001 -13.999h-54c-9.33301 0 -14.333 4.33301 -15 13l-20 164h-244l-81 -161c-3.33301 -6.66699 -6.83301 -11 -10.5 -13s-8.16699 -3 -13.5 -3h-55c-9.33301 0 -11 5.33301 -5 16l329 631c4.66699 10 12 15 22 15h55
c6.66699 0 10.834 -1.33301 12.501 -4s3.16699 -6.33398 4.5 -11.001zM357 465.001c-2.66699 24 -4.66699 45.666 -6 64.999s-2.33301 34.333 -3 45h-3l-19.5 -43.5c-8.33301 -18.333 -18.5 -39.166 -30.5 -62.499l-10.5 -21.5l-20.5 -40.5l-25 -49.5l-25 -49.5l-20.5 -39.5
l-10.5 -20.5h201zM360 709c-28.667 0 -54.6689 7.33594 -78.002 22.0029s-39.666 38 -48.999 70l-3 12.5c-1.33301 5.66699 0.333984 10.167 5.00098 13.5l24 16c4 2.66699 7.16699 3.5 9.5 2.5s4.5 -2.83301 6.5 -5.5c7.33301 -11.333 14.333 -21.333 21 -30
s13.834 -15.834 21.501 -21.501s16 -9.83398 25 -12.501s19.5 -4 31.5 -4s22.5 1.5 31.5 4.5s18 7.33301 27 13s18.333 12.667 28 21s20.5 18.166 32.5 29.499c7.33301 5.33301 13.333 6.33301 18 3l18 -14c3.33301 -2.66699 3.16602 -7 -0.500977 -13
s-6.16699 -10.333 -7.5 -13c-21.333 -32 -46.5 -55.667 -75.5 -71s-57.5 -23 -85.5 -23z" />
    <glyph glyph-name="abreve" unicode="&#x103;" horiz-adv-x="517" 
d="M412 17c-2 -11.333 -8.33301 -17 -19 -17h-41c-12 0 -16.667 5.66699 -14 17l7 38c-25.333 -15.333 -52.833 -29.833 -82.5 -43.5s-63.5 -20.5 -101.5 -20.5c-46 0 -78.833 11.5 -98.5 34.5s-29.5 56.833 -29.5 101.5c0 16 1.16699 33.667 3.5 53s5.5 38.666 9.5 57.999
c8 41.333 17.667 78 29 110s26.333 59 45 81s41.334 38.667 68.001 50s59.667 17 99 17c18.667 0 40.167 -3.16699 64.5 -9.5s48.166 -15.5 71.499 -27.5l1 1l3 14c1.33301 6 3.5 9.66699 6.5 11s8.16699 2 15.5 2h37c7.33301 0 12 -1.16699 14 -3.5
s2.33301 -7.16602 1 -14.499zM412 396c-47.333 20.667 -93.334 30.9971 -138.001 30.9971c-22 0 -40.833 -3.16699 -56.5 -9.5s-29.167 -17 -40.5 -32s-21.166 -34.667 -29.499 -59s-15.833 -54.5 -22.5 -90.5c-4 -21.333 -7.16699 -40.666 -9.5 -57.999
s-3.5 -31.666 -3.5 -42.999c0 -31.333 5.83301 -51.666 17.5 -60.999s29.167 -14 52.5 -14c12 0 26 2 42 6s32.333 9 49 15s32.5 12.167 47.5 18.5s27.167 11.833 36.5 16.5zM325.999 537.997c-28.667 0 -55.335 7.33594 -80.002 22.0029s-41.667 38 -51 70l-3 12.5
c-1.33301 5.66699 0.333984 10.167 5.00098 13.5l24 16c4 2.66699 7.16699 3.5 9.5 2.5s4.5 -2.83301 6.5 -5.5c7.33301 -11.333 14.333 -21.333 21 -30s13.834 -15.834 21.501 -21.501s16 -9.83398 25 -12.501s19.5 -4 31.5 -4s22.5 1.5 31.5 4.5s18 7.33301 27 13
s18.333 12.667 28 21s20.5 18.166 32.5 29.499c4 3.33301 7 5.33301 9 6s5 -0.333008 9 -3l23 -16c3.33301 -2.66699 3.16602 -7 -0.500977 -13s-6.16699 -10.333 -7.5 -13c-21.333 -32 -46.666 -55.333 -75.999 -70s-58 -22 -86 -22z" />
    <glyph glyph-name="Aogonek" unicode="&#x104;" horiz-adv-x="548" 
d="M491 14c1.33301 -9.33301 -2.33691 -13.998 -11.0039 -13.998h-10c-18.667 -20.667 -33.5 -40.334 -44.5 -59.001s-16.5 -35.667 -16.5 -51c0 -10.667 2.83301 -18.334 8.5 -23.001s12.834 -7.66699 21.501 -9s18.5 -1.16602 29.5 0.500977s21.833 3.83398 32.5 6.50098
c4 1.33301 6.33301 1.5 7 0.5s1.33398 -2.5 2.00098 -4.5l6 -24c0.666992 -5.33301 -2.33301 -9 -9 -11c-11.333 -5.33301 -23.666 -9.5 -36.999 -12.5s-27.666 -4.5 -42.999 -4.5c-26.667 0 -46.834 5.66699 -60.501 17s-20.5 26.333 -20.5 45
c0 20.667 5.83301 42.167 17.5 64.5s29.167 44.166 52.5 65.499c-3.33301 2 -5 6 -5 12l-20 164h-244l-81 -161c-3.33301 -6.66699 -6.83301 -11 -10.5 -13s-8.16699 -3 -13.5 -3h-55c-9.33301 0 -11 5.33301 -5 16l329 631c4.66699 10 12 15 22 15h55
c6.66699 0 10.834 -1.33301 12.501 -4s3.16699 -6.33398 4.5 -11.001zM356.997 465.002c-2.66699 24 -4.66699 45.666 -6 64.999s-2.33301 34.333 -3 45h-3l-19.5 -43.5c-8.33301 -18.333 -18.5 -39.166 -30.5 -62.499l-10.5 -21.5l-20.5 -40.5l-25 -49.5l-25 -49.5
l-20.5 -39.5l-10.5 -20.5h201z" />
    <glyph glyph-name="aogonek" unicode="&#x105;" horiz-adv-x="517" 
d="M412 21l12.998 -2v-2c-23.333 -24 -42 -46.833 -56 -68.5s-21 -41.167 -21 -58.5c0 -10.667 2.83301 -18.334 8.5 -23.001s12.834 -7.66699 21.501 -9s18.5 -1.16602 29.5 0.500977s21.833 3.83398 32.5 6.50098c4 1.33301 6.33301 1.5 7 0.5s1.33398 -2.5 2.00098 -4.5
l6 -24c0.666992 -5.33301 -2.33301 -9 -9 -11c-11.333 -5.33301 -23.666 -9.5 -36.999 -12.5s-27.666 -4.5 -42.999 -4.5c-26.667 0 -46.834 5.66699 -60.501 17s-20.5 26.333 -20.5 45c0 20 5.66699 41.167 17 63.5s28.666 44.166 51.999 65.499h-2
c-12 0 -16.667 5.66699 -14 17l7 38c-25.333 -15.333 -52.833 -29.833 -82.5 -43.5s-63.5 -20.5 -101.5 -20.5c-46 0 -78.833 11.5 -98.5 34.5s-29.5 56.833 -29.5 101.5c0 16 1.16699 33.667 3.5 53s5.5 38.666 9.5 57.999c8 41.333 17.667 78 29 110s26.333 59 45 81
s41.334 38.667 68.001 50s59.667 17 99 17c18.667 0 40.167 -3.16699 64.5 -9.5s48.166 -15.5 71.499 -27.5l1 1l3 14c1.33301 6 3.5 9.66699 6.5 11s8.16699 2 15.5 2h37c7.33301 0 12 -1.16699 14 -3.5s2.33301 -7.16602 1 -14.499zM411.998 396
c-47.333 20.667 -93.334 30.9971 -138.001 30.9971c-22 0 -40.833 -3.16699 -56.5 -9.5s-29.167 -17 -40.5 -32s-21.166 -34.667 -29.499 -59s-15.833 -54.5 -22.5 -90.5c-4 -21.333 -7.16699 -40.666 -9.5 -57.999s-3.5 -31.666 -3.5 -42.999
c0 -31.333 5.83301 -51.666 17.5 -60.999s29.167 -14 52.5 -14c12 0 26 2 42 6s32.333 9 49 15s32.5 12.167 47.5 18.5s27.167 11.833 36.5 16.5z" />
    <glyph glyph-name="Cacute" unicode="&#x106;" horiz-adv-x="538" 
d="M580 594c-1.33301 -3.33301 -3.5 -6.33887 -6.5 -9.00586s-7.83301 -3.33398 -14.5 -2.00098c-21.333 3.33301 -46.5 6.5 -75.5 9.5s-58.167 4.5 -87.5 4.5c-39.333 0 -72 -7.5 -98 -22.5s-47.333 -35.167 -64 -60.5s-29.834 -54.5 -39.501 -87.5
s-17.834 -67.167 -24.501 -102.5c-4 -18.667 -7.16699 -37.167 -9.5 -55.5s-3.5 -36.166 -3.5 -53.499c0 -23.333 2.33301 -44.166 7 -62.499s12.167 -34 22.5 -47s24.166 -23 41.499 -30s38.666 -10.5 63.999 -10.5c30.667 0 60.334 1.5 89.001 4.5s55 6.16699 79 9.5
c7.33301 1.33301 12.166 0.5 14.499 -2.5s3.5 -6.16699 3.5 -9.5v-26c0 -5.33301 -0.666992 -9.66602 -2 -12.999s-5.66602 -6.33301 -12.999 -9c-13.333 -5.33301 -28.666 -9.66602 -45.999 -12.999s-34.666 -6 -51.999 -8s-33.666 -3.5 -48.999 -4.5s-28 -1.5 -38 -1.5
c-36.667 0 -67.834 4.83301 -93.501 14.5s-46.5 23.667 -62.5 42s-27.667 40.5 -35 66.5s-11 55.333 -11 88c0 20 1.16699 40.167 3.5 60.5s5.16602 40.5 8.49902 60.5c8 42.667 18.5 84.834 31.5 126.501s31.333 78.667 55 111s53.834 58.5 90.501 78.5s82.667 30 138 30
c10 0 22.667 -0.333008 38 -1s31.5 -2 48.5 -4s33.833 -4.66699 50.5 -8s31 -7.66602 43 -12.999c6.66699 -3.33301 10.334 -6.66602 11.001 -9.99902s0 -7.33301 -2 -12zM567 792.994c2 -4 1.83301 -7.16797 -0.5 -9.50098s-4.5 -4.16602 -6.5 -5.49902l-155 -75
c-5.33301 -2.66699 -10 -1.66699 -14 3l-16 23c-4 4 -2 8.33301 6 13l146 95c6.66699 4 12 2.33301 16 -5z" />
    <glyph glyph-name="cacute" unicode="&#x107;" horiz-adv-x="425" 
d="M447 430c-2 -5.33301 -5.33301 -8.49609 -10 -9.49609s-10.667 -1.16699 -18 -0.5l-66.5 6.5c-24.333 2.33301 -45.833 3.5 -64.5 3.5c-22.667 0 -42.167 -3 -58.5 -9s-30.5 -16 -42.5 -30s-22.167 -32.667 -30.5 -56s-15.833 -52.333 -22.5 -87
c-3.33301 -19.333 -6 -36.833 -8 -52.5s-3 -30.167 -3 -43.5c-0.666992 -34.667 6.5 -58.667 21.5 -72s38.833 -20 71.5 -20c8 0 17.833 0.333008 29.5 1s24 1.5 37 2.5l38.5 3c12.667 1 24 2.16699 34 3.5c6 0.666992 10.833 0.333984 14.5 -0.999023s5.5 -5.33301 5.5 -12
v-21c0 -9.33301 -5 -16.333 -15 -21c-20.667 -8.66699 -45.5 -14.667 -74.5 -18s-56.167 -5 -81.5 -5c-33.333 0 -60.5 4.16699 -81.5 12.5s-37.667 19.166 -50 32.499s-20.833 28.666 -25.5 45.999s-7 35 -7 53c0 16.667 1.33301 35.5 4 56.5s6 41.5 10 61.5
c6 32 13.5 62.667 22.5 92s22.167 55.166 39.5 77.499s40 40.166 68 53.499s64.667 20 110 20c10 0 22 -0.333008 36 -1s28.167 -1.83398 42.5 -3.50098s28.333 -4 42 -7s25.5 -6.83301 35.5 -11.5c4.66699 -2 7.16699 -5 7.5 -9s-0.166992 -8 -1.5 -12zM296 546.004
c-4 -4.66699 -9.33301 -5.66602 -16 -2.99902l-23 9c-3.33301 1.33301 -5 3.66602 -5 6.99902s0.666992 6 2 8l97 143c4 6 9.66699 7 17 3l41 -19c4 -2 5.66699 -4.66699 5 -8s-2 -6.33301 -4 -9z" />
    <glyph glyph-name="Ccircumflex" unicode="&#x108;" horiz-adv-x="538" 
d="M580 594c-1.33301 -3.33301 -3.5 -6.33887 -6.5 -9.00586s-7.83301 -3.33398 -14.5 -2.00098c-21.333 3.33301 -46.5 6.5 -75.5 9.5s-58.167 4.5 -87.5 4.5c-39.333 0 -72 -7.5 -98 -22.5s-47.333 -35.167 -64 -60.5s-29.834 -54.5 -39.501 -87.5
s-17.834 -67.167 -24.501 -102.5c-4 -18.667 -7.16699 -37.167 -9.5 -55.5s-3.5 -36.166 -3.5 -53.499c0 -23.333 2.33301 -44.166 7 -62.499s12.167 -34 22.5 -47s24.166 -23 41.499 -30s38.666 -10.5 63.999 -10.5c30.667 0 60.334 1.5 89.001 4.5s55 6.16699 79 9.5
c7.33301 1.33301 12.166 0.5 14.499 -2.5s3.5 -6.16699 3.5 -9.5v-26c0 -5.33301 -0.666992 -9.66602 -2 -12.999s-5.66602 -6.33301 -12.999 -9c-13.333 -5.33301 -28.666 -9.66602 -45.999 -12.999s-34.666 -6 -51.999 -8s-33.666 -3.5 -48.999 -4.5s-28 -1.5 -38 -1.5
c-36.667 0 -67.834 4.83301 -93.501 14.5s-46.5 23.667 -62.5 42s-27.667 40.5 -35 66.5s-11 55.333 -11 88c0 20 1.16699 40.167 3.5 60.5s5.16602 40.5 8.49902 60.5c8 42.667 18.5 84.834 31.5 126.501s31.333 78.667 55 111s53.834 58.5 90.501 78.5s82.667 30 138 30
c10 0 22.667 -0.333008 38 -1s31.5 -2 48.5 -4s33.833 -4.66699 50.5 -8s31 -7.66602 43 -12.999c6.66699 -3.33301 10.334 -6.66602 11.001 -9.99902s0 -7.33301 -2 -12zM546 707.994c-6 -4.66699 -11.332 -5.00098 -15.999 -1.00098l-96 84l-141 -88
c-5.33301 -3.33301 -8.83301 -5.16602 -10.5 -5.49902s-4.16699 1.16699 -7.5 4.5l-15 20c-2.66699 4 -1.66699 8.33301 3 13l122 97c10 7.33301 19.667 11 29 11h47c7.33301 0 12.833 -0.833008 16.5 -2.5s7.16699 -4.16699 10.5 -7.5l81 -94
c3.33301 -2.66699 4.66602 -5.5 3.99902 -8.5s-2.66699 -5.5 -6 -7.5z" />
    <glyph glyph-name="ccircumflex" unicode="&#x109;" horiz-adv-x="425" 
d="M447 430c-2 -5.33301 -5.33301 -8.49609 -10 -9.49609s-10.667 -1.16699 -18 -0.5l-66.5 6.5c-24.333 2.33301 -45.833 3.5 -64.5 3.5c-22.667 0 -42.167 -3 -58.5 -9s-30.5 -16 -42.5 -30s-22.167 -32.667 -30.5 -56s-15.833 -52.333 -22.5 -87
c-3.33301 -19.333 -6 -36.833 -8 -52.5s-3 -30.167 -3 -43.5c-0.666992 -34.667 6.5 -58.667 21.5 -72s38.833 -20 71.5 -20c8 0 17.833 0.333008 29.5 1s24 1.5 37 2.5l38.5 3c12.667 1 24 2.16699 34 3.5c6 0.666992 10.833 0.333984 14.5 -0.999023s5.5 -5.33301 5.5 -12
v-21c0 -9.33301 -5 -16.333 -15 -21c-20.667 -8.66699 -45.5 -14.667 -74.5 -18s-56.167 -5 -81.5 -5c-33.333 0 -60.5 4.16699 -81.5 12.5s-37.667 19.166 -50 32.499s-20.833 28.666 -25.5 45.999s-7 35 -7 53c0 16.667 1.33301 35.5 4 56.5s6 41.5 10 61.5
c6 32 13.5 62.667 22.5 92s22.167 55.166 39.5 77.499s40 40.166 68 53.499s64.667 20 110 20c10 0 22 -0.333008 36 -1s28.167 -1.83398 42.5 -3.50098s28.333 -4 42 -7s25.5 -6.83301 35.5 -11.5c4.66699 -2 7.16699 -5 7.5 -9s-0.166992 -8 -1.5 -12zM455 566.004
c4.66699 -7.33301 3.99902 -12.333 -2.00098 -15l-23 -11c-3.33301 -2 -6.33301 -3.5 -9 -4.5s-5 0.166992 -7 3.5l-87 111l-126 -109c-4 -3.33301 -7.16699 -4.83301 -9.5 -4.5s-5.16602 1.83301 -8.49902 4.5l-24 16c-3.33301 1.33301 -4.5 3 -3.5 5
s2.83301 4.66699 5.5 8l118 122c4 4.66699 8 7.66699 12 9s9.66699 2 17 2h48c9.33301 0 15.5 -0.833008 18.5 -2.5s5.83301 -4.16699 8.5 -7.5z" />
    <glyph glyph-name="Cdotaccent" unicode="&#x10a;" horiz-adv-x="538" 
d="M580 594c-1.33301 -3.33301 -3.5 -6.33887 -6.5 -9.00586s-7.83301 -3.33398 -14.5 -2.00098c-21.333 3.33301 -46.5 6.5 -75.5 9.5s-58.167 4.5 -87.5 4.5c-39.333 0 -72 -7.5 -98 -22.5s-47.333 -35.167 -64 -60.5s-29.834 -54.5 -39.501 -87.5
s-17.834 -67.167 -24.501 -102.5c-4 -18.667 -7.16699 -37.167 -9.5 -55.5s-3.5 -36.166 -3.5 -53.499c0 -23.333 2.33301 -44.166 7 -62.499s12.167 -34 22.5 -47s24.166 -23 41.499 -30s38.666 -10.5 63.999 -10.5c30.667 0 60.334 1.5 89.001 4.5s55 6.16699 79 9.5
c7.33301 1.33301 12.166 0.5 14.499 -2.5s3.5 -6.16699 3.5 -9.5v-26c0 -5.33301 -0.666992 -9.66602 -2 -12.999s-5.66602 -6.33301 -12.999 -9c-13.333 -5.33301 -28.666 -9.66602 -45.999 -12.999s-34.666 -6 -51.999 -8s-33.666 -3.5 -48.999 -4.5s-28 -1.5 -38 -1.5
c-36.667 0 -67.834 4.83301 -93.501 14.5s-46.5 23.667 -62.5 42s-27.667 40.5 -35 66.5s-11 55.333 -11 88c0 20 1.16699 40.167 3.5 60.5s5.16602 40.5 8.49902 60.5c8 42.667 18.5 84.834 31.5 126.501s31.333 78.667 55 111s53.834 58.5 90.501 78.5s82.667 30 138 30
c10 0 22.667 -0.333008 38 -1s31.5 -2 48.5 -4s33.833 -4.66699 50.5 -8s31 -7.66602 43 -12.999c6.66699 -3.33301 10.334 -6.66602 11.001 -9.99902s0 -7.33301 -2 -12zM451 794.994c0 -17.333 -4 -31.499 -12 -42.499s-21 -16.5 -39 -16.5
c-9.33301 0 -17.5 1.66699 -24.5 5s-10.5 10.666 -10.5 21.999c0 17.333 4 31.333 12 42s21 16 39 16c9.33301 0 17.5 -1.66699 24.5 -5s10.5 -10.333 10.5 -21z" />
    <glyph glyph-name="cdotaccent" unicode="&#x10b;" horiz-adv-x="425" 
d="M447 430c-2 -5.33301 -5.33301 -8.49609 -10 -9.49609s-10.667 -1.16699 -18 -0.5l-66.5 6.5c-24.333 2.33301 -45.833 3.5 -64.5 3.5c-22.667 0 -42.167 -3 -58.5 -9s-30.5 -16 -42.5 -30s-22.167 -32.667 -30.5 -56s-15.833 -52.333 -22.5 -87
c-3.33301 -19.333 -6 -36.833 -8 -52.5s-3 -30.167 -3 -43.5c-0.666992 -34.667 6.5 -58.667 21.5 -72s38.833 -20 71.5 -20c8 0 17.833 0.333008 29.5 1s24 1.5 37 2.5l38.5 3c12.667 1 24 2.16699 34 3.5c6 0.666992 10.833 0.333984 14.5 -0.999023s5.5 -5.33301 5.5 -12
v-21c0 -9.33301 -5 -16.333 -15 -21c-20.667 -8.66699 -45.5 -14.667 -74.5 -18s-56.167 -5 -81.5 -5c-33.333 0 -60.5 4.16699 -81.5 12.5s-37.667 19.166 -50 32.499s-20.833 28.666 -25.5 45.999s-7 35 -7 53c0 16.667 1.33301 35.5 4 56.5s6 41.5 10 61.5
c6 32 13.5 62.667 22.5 92s22.167 55.166 39.5 77.499s40 40.166 68 53.499s64.667 20 110 20c10 0 22 -0.333008 36 -1s28.167 -1.83398 42.5 -3.50098s28.333 -4 42 -7s25.5 -6.83301 35.5 -11.5c4.66699 -2 7.16699 -5 7.5 -9s-0.166992 -8 -1.5 -12zM388 625.004
c0 -17.333 -4 -31.499 -12 -42.499s-21 -16.5 -39 -16.5c-9.33301 0 -17.5 1.66699 -24.5 5s-10.5 10.666 -10.5 21.999c0 17.333 4 31.333 12 42s21 16 39 16c9.33301 0 17.5 -1.66699 24.5 -5s10.5 -10.333 10.5 -21z" />
    <glyph glyph-name="Ccaron" unicode="&#x10c;" horiz-adv-x="538" 
d="M580 594c-1.33301 -3.33301 -3.5 -6.33887 -6.5 -9.00586s-7.83301 -3.33398 -14.5 -2.00098c-21.333 3.33301 -46.5 6.5 -75.5 9.5s-58.167 4.5 -87.5 4.5c-39.333 0 -72 -7.5 -98 -22.5s-47.333 -35.167 -64 -60.5s-29.834 -54.5 -39.501 -87.5
s-17.834 -67.167 -24.501 -102.5c-4 -18.667 -7.16699 -37.167 -9.5 -55.5s-3.5 -36.166 -3.5 -53.499c0 -23.333 2.33301 -44.166 7 -62.499s12.167 -34 22.5 -47s24.166 -23 41.499 -30s38.666 -10.5 63.999 -10.5c30.667 0 60.334 1.5 89.001 4.5s55 6.16699 79 9.5
c7.33301 1.33301 12.166 0.5 14.499 -2.5s3.5 -6.16699 3.5 -9.5v-26c0 -5.33301 -0.666992 -9.66602 -2 -12.999s-5.66602 -6.33301 -12.999 -9c-13.333 -5.33301 -28.666 -9.66602 -45.999 -12.999s-34.666 -6 -51.999 -8s-33.666 -3.5 -48.999 -4.5s-28 -1.5 -38 -1.5
c-36.667 0 -67.834 4.83301 -93.501 14.5s-46.5 23.667 -62.5 42s-27.667 40.5 -35 66.5s-11 55.333 -11 88c0 20 1.16699 40.167 3.5 60.5s5.16602 40.5 8.49902 60.5c8 42.667 18.5 84.834 31.5 126.501s31.333 78.667 55 111s53.834 58.5 90.501 78.5s82.667 30 138 30
c10 0 22.667 -0.333008 38 -1s31.5 -2 48.5 -4s33.833 -4.66699 50.5 -8s31 -7.66602 43 -12.999c6.66699 -3.33301 10.334 -6.66602 11.001 -9.99902s0 -7.33301 -2 -12zM301 810.994c-4.66699 6.66699 -3.99902 11.667 2.00098 15l23 11c3.33301 2 6.33301 3.5 9 4.5
s5 -0.166992 7 -3.5l87 -85l126 83c4 3.33301 7.16699 4.83301 9.5 4.5s5.16602 -1.83301 8.49902 -4.5l24 -16c3.33301 -1.33301 4.5 -3 3.5 -5s-2.83301 -4.66699 -5.5 -8l-118 -96c-4 -4.66699 -8 -7.66699 -12 -9s-9.66699 -2 -17 -2h-48
c-9.33301 0 -15.5 0.833008 -18.5 2.5s-5.83301 4.16699 -8.5 7.5z" />
    <glyph glyph-name="ccaron" unicode="&#x10d;" horiz-adv-x="425" 
d="M447 430c-2 -5.33301 -5.33301 -8.49609 -10 -9.49609s-10.667 -1.16699 -18 -0.5l-66.5 6.5c-24.333 2.33301 -45.833 3.5 -64.5 3.5c-22.667 0 -42.167 -3 -58.5 -9s-30.5 -16 -42.5 -30s-22.167 -32.667 -30.5 -56s-15.833 -52.333 -22.5 -87
c-3.33301 -19.333 -6 -36.833 -8 -52.5s-3 -30.167 -3 -43.5c-0.666992 -34.667 6.5 -58.667 21.5 -72s38.833 -20 71.5 -20c8 0 17.833 0.333008 29.5 1s24 1.5 37 2.5l38.5 3c12.667 1 24 2.16699 34 3.5c6 0.666992 10.833 0.333984 14.5 -0.999023s5.5 -5.33301 5.5 -12
v-21c0 -9.33301 -5 -16.333 -15 -21c-20.667 -8.66699 -45.5 -14.667 -74.5 -18s-56.167 -5 -81.5 -5c-33.333 0 -60.5 4.16699 -81.5 12.5s-37.667 19.166 -50 32.499s-20.833 28.666 -25.5 45.999s-7 35 -7 53c0 16.667 1.33301 35.5 4 56.5s6 41.5 10 61.5
c6 32 13.5 62.667 22.5 92s22.167 55.166 39.5 77.499s40 40.166 68 53.499s64.667 20 110 20c10 0 22 -0.333008 36 -1s28.167 -1.83398 42.5 -3.50098s28.333 -4 42 -7s25.5 -6.83301 35.5 -11.5c4.66699 -2 7.16699 -5 7.5 -9s-0.166992 -8 -1.5 -12zM187 670.004
c-4.66699 6.66699 -3.99902 11.667 2.00098 15l23 11c3.33301 2 6.33301 3.5 9 4.5s5 -0.166992 7 -3.5l87 -111l126 109c4 3.33301 7.16699 4.83301 9.5 4.5s5.16602 -1.83301 8.49902 -4.5l24 -16c3.33301 -1.33301 4.5 -3 3.5 -5s-2.83301 -4.66699 -5.5 -8l-118 -122
c-4 -4.66699 -8 -7.66699 -12 -9s-9.66699 -2 -17 -2h-48c-9.33301 0 -15.5 0.833008 -18.5 2.5s-5.83301 4.16699 -8.5 7.5z" />
    </font>
</defs>
</svg>
